<svg width="47" height="49" viewBox="0 0 47 49" fill="none" xmlns="http://www.w3.org/2000/svg">
<path d="M45.84 31.8911L43.329 31.263C43.1189 30.5704 42.8402 29.9004 42.497 29.263L43.83 27.042C43.9222 26.8889 43.9606 26.7093 43.9388 26.5318C43.9171 26.3544 43.8365 26.1894 43.71 26.063L41.21 23.563C41.0837 23.4365 40.9186 23.356 40.7412 23.3342C40.5637 23.3125 40.3841 23.3508 40.231 23.443L38.01 24.776C37.722 24.622 37.425 24.476 37.124 24.349C36.758 24.1938 36.3837 24.0586 36.003 23.944L35.375 21.433C35.3319 21.2596 35.2319 21.1056 35.0911 20.9956C34.9503 20.8856 34.7767 20.8259 34.598 20.8261H31.066C30.8873 20.8259 30.7137 20.8856 30.5729 20.9956C30.432 21.1056 30.3321 21.2596 30.289 21.433L29.661 23.944C28.9683 24.1541 28.2983 24.4328 27.661 24.776L25.44 23.443C25.2869 23.3508 25.1072 23.3125 24.9298 23.3342C24.7523 23.356 24.5873 23.4365 24.461 23.563L21.961 26.063C21.8345 26.1894 21.7539 26.3544 21.7322 26.5318C21.7104 26.7093 21.7487 26.8889 21.841 27.042L23.174 29.263C22.8306 29.9003 22.5518 30.5703 22.342 31.263L19.83 31.8911C19.6566 31.9342 19.5026 32.0341 19.3926 32.1749C19.2826 32.3157 19.2229 32.4893 19.223 32.668V36.203C19.2229 36.3818 19.2826 36.5553 19.3926 36.6962C19.5026 36.837 19.6566 36.9369 19.83 36.98L22.342 37.608C22.552 38.3008 22.8307 38.9708 23.174 39.608L21.841 41.829C21.7487 41.9822 21.7104 42.1618 21.7322 42.3392C21.7539 42.5167 21.8345 42.6817 21.961 42.808L24.461 45.308C24.5872 45.4343 24.7521 45.5147 24.9293 45.5365C25.1066 45.5582 25.286 45.5201 25.439 45.428L27.66 44.095C28.2973 44.4382 28.9673 44.7169 29.66 44.927L30.288 47.438C30.3311 47.6115 30.431 47.7655 30.5719 47.8755C30.7127 47.9855 30.8863 48.0452 31.065 48.045H34.6C34.7787 48.0452 34.9523 47.9855 35.0931 47.8755C35.2339 47.7655 35.3339 47.6115 35.377 47.438L36.005 44.927C36.6977 44.7169 37.3676 44.4382 38.005 44.095L40.226 45.428C40.3791 45.5203 40.5587 45.5586 40.7362 45.5369C40.9136 45.5151 41.0787 45.4346 41.205 45.308L43.705 42.808C43.8315 42.6817 43.9121 42.5167 43.9338 42.3392C43.9556 42.1618 43.9173 41.9822 43.825 41.829L42.492 39.608C42.8351 38.9707 43.1138 38.3007 43.324 37.608L45.835 36.98C46.0084 36.9369 46.1624 36.837 46.2724 36.6962C46.3824 36.5553 46.4421 36.3818 46.442 36.203V32.6711C46.4431 32.4925 46.3844 32.3187 46.2753 32.1774C46.1662 32.036 46.013 31.9352 45.84 31.8911V31.8911ZM44.846 35.577L42.489 36.167C42.3484 36.2019 42.2199 36.2743 42.1173 36.3764C42.0146 36.4786 41.9416 36.6066 41.906 36.747C41.6856 37.6148 41.3407 38.4461 40.882 39.215C40.8076 39.3392 40.7683 39.4813 40.7683 39.626C40.7683 39.7708 40.8076 39.9129 40.882 40.037L42.133 42.119L40.521 43.737L38.439 42.486C38.3148 42.4117 38.1727 42.3724 38.028 42.3724C37.8832 42.3724 37.7412 42.4117 37.617 42.486C36.848 42.9443 36.0167 43.2889 35.149 43.509C35.0086 43.5446 34.8805 43.6176 34.7784 43.7203C34.6762 43.823 34.6038 43.9515 34.569 44.092L33.975 46.4471H31.691L31.102 44.09C31.0671 43.9495 30.9948 43.821 30.8926 43.7183C30.7905 43.6156 30.6624 43.5426 30.522 43.507C29.6542 43.2865 28.823 42.9416 28.054 42.483C27.9298 42.4087 27.7877 42.3694 27.643 42.3694C27.4982 42.3694 27.3562 42.4087 27.232 42.483L25.15 43.734L23.532 42.122L24.783 40.04C24.8574 39.9158 24.8966 39.7738 24.8966 39.629C24.8966 39.4843 24.8574 39.3422 24.783 39.218C24.3247 38.449 23.9802 37.6177 23.76 36.75C23.7244 36.6097 23.6514 36.4815 23.5487 36.3794C23.446 36.2772 23.3176 36.2049 23.177 36.17L20.822 35.576V33.292L23.179 32.702C23.3196 32.6672 23.448 32.5948 23.5507 32.4927C23.6534 32.3905 23.7264 32.2624 23.762 32.122C23.9821 31.2543 24.3267 30.423 24.785 29.654C24.8594 29.5298 24.8986 29.3878 24.8986 29.243C24.8986 29.0983 24.8594 28.9562 24.785 28.832L23.534 26.75L25.146 25.1321L27.228 26.383C27.3522 26.4574 27.4942 26.4967 27.639 26.4967C27.7838 26.4967 27.9258 26.4574 28.05 26.383C28.819 25.9248 29.6503 25.5803 30.518 25.36C30.6584 25.3245 30.7865 25.2514 30.8886 25.1488C30.9908 25.0461 31.0631 24.9176 31.098 24.777L31.692 22.422H33.976L34.566 24.779C34.6008 24.9195 34.673 25.0479 34.7749 25.1506C34.8769 25.2532 35.0048 25.3263 35.145 25.362C36.0125 25.5818 36.8435 25.9264 37.612 26.385C37.7363 26.4596 37.8785 26.499 38.0235 26.499C38.1685 26.499 38.3107 26.4596 38.435 26.385L40.517 25.134L42.135 26.747L40.884 28.829C40.8096 28.9532 40.7703 29.0953 40.7703 29.2401C40.7703 29.3848 40.8096 29.5269 40.884 29.651C41.3425 30.42 41.6874 31.2513 41.908 32.119C41.9436 32.2594 42.0166 32.3875 42.1193 32.4897C42.2219 32.5918 42.3504 32.6642 42.491 32.6991L44.846 33.293V35.577Z" fill="#FF4815"/>
<path d="M32.833 28.028C31.566 28.028 30.3275 28.4037 29.274 29.1076C28.2205 29.8115 27.3995 30.8119 26.9146 31.9825C26.4298 33.153 26.3029 34.4411 26.5501 35.6837C26.7973 36.9264 27.4074 38.0678 28.3033 38.9637C29.1992 39.8596 30.3406 40.4697 31.5832 40.7169C32.8259 40.964 34.1139 40.8372 35.2845 40.3523C36.455 39.8675 37.4555 39.0464 38.1594 37.993C38.8633 36.9395 39.239 35.7009 39.239 34.434C39.239 33.5927 39.0733 32.7597 38.7514 31.9825C38.4294 31.2053 37.9576 30.4991 37.3627 29.9042C36.7679 29.3094 36.0617 28.8375 35.2845 28.5156C34.5073 28.1937 33.6742 28.028 32.833 28.028V28.028ZM32.833 39.239C31.8836 39.239 30.9556 38.9575 30.1662 38.43C29.3769 37.9026 28.7617 37.1529 28.3984 36.2758C28.0351 35.3988 27.94 34.4336 28.1252 33.5025C28.3104 32.5714 28.7676 31.7161 29.4389 31.0448C30.1102 30.3735 30.9655 29.9164 31.8966 29.7312C32.8277 29.546 33.7928 29.641 34.6699 30.0043C35.547 30.3676 36.2966 30.9829 36.8241 31.7722C37.3515 32.5616 37.633 33.4896 37.633 34.439C37.633 35.712 37.1273 36.9329 36.2271 37.8331C35.3269 38.7332 34.106 39.239 32.833 39.239V39.239Z" fill="#FF4815"/>
<path d="M36.837 9.60999H38.437V22.423H36.837V9.60999Z" fill="#FF4815"/>
<path d="M3.20299 40.841V44.041C3.20299 44.1461 3.22368 44.2501 3.26389 44.3471C3.30409 44.4442 3.36302 44.5324 3.43731 44.6067C3.51159 44.681 3.59978 44.7399 3.69684 44.7801C3.7939 44.8203 3.89793 44.841 4.00299 44.841H20.821V43.241H4.80499V40.841H14.415C14.5389 40.8424 14.6615 40.815 14.773 40.761L17.973 39.161C18.1064 39.0948 18.2186 38.9926 18.2971 38.866C18.3756 38.7394 18.4171 38.5934 18.4171 38.4445C18.4171 38.2956 18.3756 38.1496 18.2971 38.023C18.2186 37.8964 18.1064 37.7942 17.973 37.728L14.773 36.128C14.6621 36.0712 14.5395 36.0411 14.415 36.04H4.80499V8.809H35.231C36.0797 8.809 36.8936 8.47186 37.4937 7.87174C38.0938 7.27163 38.431 6.45769 38.431 5.609V4C38.431 3.78783 38.3467 3.58434 38.1967 3.43431C38.0466 3.28429 37.8432 3.2 37.631 3.2H35.231V4.8H36.831V5.6C36.831 6.02435 36.6624 6.43131 36.3624 6.73137C36.0623 7.03143 35.6553 7.2 35.231 7.2C34.8066 7.2 34.3997 7.03143 34.0996 6.73137C33.7996 6.43131 33.631 6.02435 33.631 5.6V3.2C33.631 2.77565 33.7996 2.36869 34.0996 2.06863C34.3997 1.76857 34.8066 1.6 35.231 1.6H38.431C38.8553 1.6 39.2623 1.76857 39.5624 2.06863C39.8624 2.36869 40.031 2.77565 40.031 3.2V21.622H41.631V3.2C41.631 2.77977 41.5482 2.36365 41.3874 1.97541C41.2266 1.58717 40.9909 1.23441 40.6937 0.937258C40.3966 0.640111 40.0438 0.404401 39.6556 0.243585C39.2673 0.0827704 38.8512 0 38.431 0L3.20299 0C2.3543 0 1.54037 0.337142 0.940249 0.937258C0.340133 1.53737 0.00299072 2.35131 0.00299072 3.2V5.6C0.00299072 6.44869 0.340133 7.26263 0.940249 7.86274C1.54037 8.46286 2.3543 8.8 3.20299 8.8V36.036H2.40299C1.76647 36.036 1.15602 36.2889 0.705934 36.7389C0.255847 37.189 0.00299072 37.7995 0.00299072 38.436C0.00299072 39.0725 0.255847 39.683 0.705934 40.1331C1.15602 40.5831 1.76647 40.836 2.40299 40.836L3.20299 40.841ZM1.60099 5.606V3.2C1.60099 2.77565 1.76956 2.36869 2.06962 2.06863C2.36968 1.76857 2.77664 1.6 3.20099 1.6H32.477C32.1887 2.08419 32.0348 2.6365 32.031 3.2V5.6C32.0345 6.16341 32.1881 6.71571 32.476 7.2H3.20299C2.77864 7.2 2.37168 7.03143 2.07162 6.73137C1.77156 6.43131 1.60299 6.02435 1.60299 5.6L1.60099 5.606ZM15.831 38.439L14.231 39.239H13.619V37.639H14.231L15.831 38.439ZM1.60599 38.439C1.60599 38.2268 1.69028 38.0233 1.84031 37.8733C1.99033 37.7233 2.19382 37.639 2.40599 37.639H12.016V39.239H2.40199C2.29685 39.2391 2.19271 39.2185 2.09554 39.1784C1.99836 39.1382 1.91005 39.0793 1.83566 39.005C1.76127 38.9307 1.70225 38.8425 1.66198 38.7454C1.62172 38.6483 1.60099 38.5441 1.60099 38.439H1.60599Z" fill="#FF4815"/>
<path d="M0 12.012H1.6V28.028H0V12.012Z" fill="#FF4815"/>
<path d="M31.232 12.813V11.213H20.821C20.7158 11.2131 20.6117 11.2339 20.5146 11.2742C20.4175 11.3145 20.3293 11.3736 20.255 11.448L18.792 12.911C17.0992 11.6702 15.0179 11.0769 12.9253 11.2385C10.8327 11.4001 8.86719 12.306 7.38499 13.792C7.31061 13.8663 7.2516 13.9546 7.21134 14.0517C7.17108 14.1488 7.15036 14.2529 7.15036 14.358C7.15036 14.4632 7.17108 14.5673 7.21134 14.6644C7.2516 14.7615 7.31061 14.8497 7.38499 14.924L13.048 20.587C13.1222 20.6617 13.2104 20.7209 13.3075 20.7614C13.4046 20.8019 13.5088 20.8228 13.614 20.823H21.622C21.8342 20.823 22.0376 20.7387 22.1877 20.5887C22.3377 20.4387 22.422 20.2352 22.422 20.023C22.4216 17.7687 21.5532 15.6011 19.997 13.97L21.152 12.815L31.232 12.813ZM20.776 19.219H13.949L9.118 14.388C10.3173 13.4279 11.7927 12.8776 13.3278 12.8178C14.8629 12.7581 16.3767 13.192 17.647 14.056L15.449 16.251L16.581 17.383L18.868 15.096C19.9336 16.2276 20.6031 17.6744 20.776 19.219V19.219Z" fill="#FF4815"/>
<path d="M32.833 11.2111H34.433V12.8111H32.833V11.2111Z" fill="#FF4815"/>
<path d="M8.80899 23.223H10.409V24.823H8.80899V23.223Z" fill="#FF4815"/>
<path d="M12.012 23.223H20.02V24.823H12.012V23.223Z" fill="#FF4815"/>
<path d="M7.207 26.427H20.02V28.027H7.207V26.427Z" fill="#FF4815"/>
<path d="M24.825 14.415H26.425V16.015H24.825V14.415Z" fill="#FF4815"/>
<path d="M28.028 14.415H34.434V16.015H28.028V14.415Z" fill="#FF4815"/>
<path d="M24.825 17.618H34.435V19.218H24.825V17.618Z" fill="#FF4815"/>
<path d="M7.207 29.63H17.617V31.23H7.207V29.63Z" fill="#FF4815"/>
</svg>
