<svg width="52" height="52" viewBox="0 0 52 52" fill="none" xmlns="http://www.w3.org/2000/svg">
<path d="M49.0671 25.4431H49.0291C48.4622 25.4653 47.9179 25.6709 47.4779 26.0291C47.0379 26.3872 46.726 26.8785 46.5891 27.4291L45.7891 30.7291C45.4149 32.2745 44.704 33.7182 43.7073 34.9571C42.7106 36.196 41.4526 37.1996 40.0231 37.8961C39.8594 37.9763 39.6767 38.0097 39.4952 37.9925C39.3137 37.9754 39.1405 37.9083 38.9947 37.7988C38.849 37.6893 38.7364 37.5416 38.6694 37.372C38.6024 37.2024 38.5836 37.0176 38.6151 36.8381L39.2501 33.2011C39.3304 32.7385 39.2481 32.2623 39.0173 31.8534C38.7864 31.4446 38.4212 31.1282 37.9837 30.9579C37.5461 30.7877 37.0631 30.774 36.6166 30.9193C36.1701 31.0646 35.7877 31.3599 35.5341 31.7551L31.4241 38.1741C31.134 37.9654 30.7792 37.8665 30.423 37.8951C30.0668 37.9237 29.7323 38.0778 29.4791 38.3301L26.4981 41.3111C26.3573 41.4519 26.2782 41.6429 26.2782 41.8421C26.2782 42.0412 26.3573 42.2322 26.4981 42.3731L35.1531 51.0281C35.294 51.1689 35.485 51.248 35.6841 51.248C35.8833 51.248 36.0743 51.1689 36.2151 51.0281L39.1961 48.0471C39.4627 47.7795 39.6191 47.4216 39.6344 47.0442C39.6498 46.6669 39.523 46.2974 39.2791 46.0091C40.2456 45.4707 41.1729 44.8649 42.0541 44.1961C42.2133 44.0757 42.318 43.897 42.3454 43.6993C42.3728 43.5016 42.3205 43.3012 42.2001 43.1421C42.0797 42.983 41.901 42.8782 41.7034 42.8508C41.5057 42.8234 41.3053 42.8757 41.1461 42.9961C40.2078 43.7048 39.2162 44.34 38.1801 44.8961L32.5221 39.2381L36.7971 32.5591C36.8632 32.455 36.9632 32.3772 37.0803 32.3387C37.1973 32.3003 37.3241 32.3036 37.4389 32.3482C37.5538 32.3928 37.6496 32.4759 37.71 32.5833C37.7704 32.6907 37.7916 32.8157 37.7701 32.9371L37.1351 36.5741C37.0562 37.0263 37.1038 37.4916 37.2727 37.9185C37.4416 38.3454 37.7253 38.7173 38.0923 38.993C38.4594 39.2688 38.8955 39.4377 39.3526 39.4812C39.8096 39.5246 40.2697 39.4408 40.6821 39.2391C42.3095 38.4459 43.7417 37.3033 44.8765 35.8927C46.0113 34.4822 46.8208 32.8385 47.2471 31.0791L48.0471 27.7791C48.3061 26.7161 49.8361 26.6661 49.7471 27.5981C49.2476 32.7074 46.9802 37.482 43.3361 41.0981C43.2624 41.1666 43.2031 41.2492 43.1619 41.3411C43.1208 41.433 43.0985 41.5322 43.0964 41.6329C43.0943 41.7336 43.1125 41.8336 43.1499 41.9271C43.1873 42.0206 43.2431 42.1056 43.3139 42.1771C43.3848 42.2486 43.4694 42.3051 43.5626 42.3433C43.6557 42.3814 43.7556 42.4005 43.8563 42.3993C43.957 42.398 44.0564 42.3766 44.1486 42.3362C44.2408 42.2958 44.324 42.2373 44.3931 42.1641C48.2848 38.3023 50.7067 33.2035 51.2411 27.7471C51.2695 27.4485 51.2338 27.1473 51.1364 26.8637C51.039 26.58 50.8822 26.3204 50.6763 26.1023C50.4705 25.8842 50.2205 25.7125 49.943 25.5988C49.6655 25.4851 49.3668 25.432 49.0671 25.4431ZM35.6811 49.4431L28.0881 41.8501L30.5441 39.3991L38.1311 46.9921L35.6811 49.4431Z" fill="#FF4815"/>
<path d="M15.8761 12.663L16.8761 13.216C16.8845 13.2207 16.8914 13.2277 16.8961 13.236L18.4581 15.936C18.4629 15.9442 18.4653 15.9535 18.4651 15.963L18.4451 17.104C18.4403 17.3814 18.5098 17.655 18.6464 17.8964C18.7831 18.1379 18.9818 18.3383 19.2221 18.477L21.4841 19.783C21.7243 19.9216 21.9972 19.9934 22.2745 19.9909C22.5518 19.9885 22.8234 19.9118 23.0611 19.769L24.0401 19.181C24.0483 19.1763 24.0577 19.1738 24.0671 19.174H27.1911C27.2006 19.1738 27.2099 19.1763 27.2181 19.181L28.1961 19.769C28.4338 19.9118 28.7054 19.9885 28.9827 19.9909C29.26 19.9934 29.5329 19.9216 29.7731 19.783L32.0351 18.477C32.2754 18.3383 32.4742 18.1379 32.6108 17.8964C32.7474 17.655 32.8169 17.3814 32.8121 17.104L32.7921 15.963C32.792 15.9535 32.7944 15.9442 32.7991 15.936L34.3611 13.231C34.366 13.223 34.3729 13.2164 34.3811 13.212L35.3811 12.659C35.6236 12.5245 35.8256 12.3275 35.9663 12.0885C36.107 11.8496 36.1812 11.5773 36.1811 11.3V8.69201C36.1812 8.41471 36.107 8.14246 35.9663 7.90349C35.8256 7.66453 35.6236 7.46756 35.3811 7.33301L34.3811 6.78001C34.3728 6.77524 34.3659 6.76834 34.3611 6.76001L34.2701 6.60001C34.1674 6.43389 34.0041 6.3143 33.8147 6.26661C33.6253 6.21893 33.4248 6.2469 33.2556 6.3446C33.0865 6.44229 32.9621 6.60203 32.9088 6.78991C32.8555 6.9778 32.8775 7.17906 32.9701 7.35101L33.0601 7.50701C33.201 7.75111 33.4057 7.95229 33.6521 8.08901L34.6521 8.64201C34.6604 8.64653 34.6672 8.65319 34.672 8.66129C34.6767 8.66939 34.6792 8.67862 34.6791 8.68801V11.3C34.6792 11.3094 34.6767 11.3186 34.672 11.3267C34.6672 11.3348 34.6604 11.3415 34.6521 11.346L33.6521 11.9C33.4056 12.0367 33.201 12.2379 33.0601 12.482L31.4981 15.187C31.3579 15.43 31.286 15.7065 31.2901 15.987L31.3101 17.128C31.3103 17.1373 31.308 17.1465 31.3034 17.1546C31.2988 17.1626 31.2922 17.1694 31.2841 17.174L29.0221 18.48C29.0141 18.4848 29.0049 18.4873 28.9956 18.4873C28.9863 18.4873 28.9771 18.4848 28.9691 18.48L27.9911 17.892C27.7495 17.7468 27.473 17.6701 27.1911 17.67H24.0671C23.7852 17.67 23.5087 17.7467 23.2671 17.892L22.2881 18.48C22.2801 18.4848 22.271 18.4873 22.2616 18.4873C22.2523 18.4873 22.2431 18.4848 22.2351 18.48L19.9701 17.181C19.9621 17.1764 19.9554 17.1696 19.9509 17.1616C19.9463 17.1535 19.944 17.1443 19.9441 17.135L19.9641 15.994C19.9683 15.7135 19.8964 15.437 19.7561 15.194L18.1941 12.494C18.0532 12.2499 17.8486 12.0487 17.6021 11.912L16.6021 11.359C16.5939 11.3545 16.587 11.3478 16.5823 11.3397C16.5775 11.3316 16.575 11.3224 16.5751 11.313V8.69201C16.575 8.68262 16.5775 8.67339 16.5823 8.66529C16.587 8.65719 16.5939 8.65053 16.6021 8.64601L17.6021 8.09201C17.8486 7.95533 18.0533 7.75414 18.1941 7.51001L19.7561 4.80501C19.8964 4.56199 19.9682 4.28556 19.9641 4.00501L19.9441 2.86401C19.944 2.85472 19.9463 2.84555 19.9509 2.83746C19.9554 2.82937 19.9621 2.82266 19.9701 2.81801L22.2321 1.51201C22.2401 1.50726 22.2493 1.50475 22.2586 1.50475C22.2679 1.50475 22.2771 1.50726 22.2851 1.51201L23.2641 2.10001C23.5057 2.24519 23.7823 2.32193 24.0641 2.32201H27.1881C27.47 2.32188 27.7465 2.24515 27.9881 2.10001L28.9671 1.51201C28.9751 1.50726 28.9843 1.50475 28.9936 1.50475C29.0029 1.50475 29.0121 1.50726 29.0201 1.51201L31.2821 2.81801C31.2902 2.82266 31.2968 2.82937 31.3014 2.83746C31.306 2.84555 31.3083 2.85472 31.3081 2.86401L31.2881 4.00001C31.2848 4.23995 31.3368 4.47744 31.4401 4.69401C31.5285 4.86909 31.6819 5.00266 31.8674 5.06615C32.053 5.12964 32.256 5.11802 32.4331 5.03378C32.6102 4.94953 32.7474 4.79935 32.8152 4.61533C32.883 4.4313 32.8762 4.22805 32.7961 4.04901C32.7922 4.04192 32.7898 4.03408 32.7891 4.02601L32.8091 2.88501C32.8138 2.6078 32.7442 2.3344 32.6076 2.09315C32.4709 1.8519 32.2722 1.6516 32.0321 1.51301L29.7701 0.208011C29.53 0.0693229 29.257 -0.00252282 28.9797 -6.08592e-05C28.7024 0.0024011 28.4308 0.079081 28.1931 0.222011L27.2151 0.810012C27.207 0.815064 27.1977 0.817828 27.1881 0.818012H24.0641C24.0547 0.818131 24.0453 0.815714 24.0371 0.811011L23.0591 0.223011C22.8214 0.0801821 22.5498 0.00356153 22.2725 0.00109976C21.9952 -0.00136201 21.7223 0.0704247 21.4821 0.209011L19.2201 1.51401C18.9798 1.65268 18.7811 1.85314 18.6444 2.09458C18.5078 2.33602 18.4383 2.60963 18.4431 2.88701L18.4631 4.02801C18.4633 4.03748 18.4609 4.04682 18.4561 4.05501L16.8951 6.76001C16.8903 6.76803 16.8834 6.77459 16.8751 6.77901L15.8751 7.33201C15.6327 7.46664 15.4307 7.66363 15.2901 7.90258C15.1494 8.14152 15.0752 8.41374 15.0751 8.69101V11.3C15.0751 11.5773 15.1493 11.8496 15.2899 12.0885C15.4306 12.3275 15.6327 12.5245 15.8751 12.659L15.8761 12.663Z" fill="#FF4815"/>
<path d="M25.6261 5.45801C24.7282 5.45801 23.8504 5.72428 23.1038 6.22314C22.3572 6.722 21.7753 7.43105 21.4317 8.26062C21.0881 9.0902 20.9982 10.003 21.1734 10.8837C21.3486 11.7644 21.7809 12.5733 22.4159 13.2083C23.0508 13.8432 23.8597 14.2756 24.7404 14.4508C25.6211 14.6259 26.5339 14.536 27.3635 14.1924C28.1931 13.8488 28.9021 13.2669 29.401 12.5203C29.8999 11.7737 30.1661 10.8959 30.1661 9.99801C30.1646 8.79441 29.6857 7.64057 28.8346 6.7895C27.9836 5.93843 26.8297 5.4596 25.6261 5.45801ZM25.6261 13.037C25.0251 13.037 24.4375 12.8588 23.9378 12.5248C23.438 12.1909 23.0485 11.7163 22.8185 11.161C22.5885 10.6057 22.5283 9.99464 22.6455 9.40513C22.7628 8.81562 23.0522 8.27412 23.4772 7.84911C23.9022 7.4241 24.4437 7.13466 25.0333 7.0174C25.6228 6.90014 26.2338 6.96032 26.7891 7.19034C27.3444 7.42035 27.819 7.80987 28.153 8.30963C28.4869 8.80939 28.6651 9.39695 28.6651 9.99801C28.6646 10.8039 28.3443 11.5767 27.7745 12.1467C27.2047 12.7166 26.4321 13.0372 25.6261 13.038V13.037Z" fill="#FF4815"/>
<path d="M39.2841 24.74C39.9522 24.74 40.6053 24.5419 41.1609 24.1707C41.7164 23.7995 42.1493 23.272 42.405 22.6547C42.6607 22.0375 42.7276 21.3583 42.5972 20.703C42.4669 20.0477 42.1452 19.4458 41.6727 18.9734C41.2003 18.501 40.5984 18.1793 39.9431 18.0489C39.2879 17.9186 38.6087 17.9855 37.9914 18.2411C37.3742 18.4968 36.8466 18.9298 36.4754 19.4853C36.1043 20.0408 35.9061 20.6939 35.9061 21.362C35.9072 22.2576 36.2634 23.1162 36.8967 23.7494C37.53 24.3827 38.3885 24.7389 39.2841 24.74ZM39.2841 19.485C39.6554 19.485 40.0183 19.5951 40.3269 19.8013C40.6356 20.0076 40.8762 20.3007 41.0182 20.6437C41.1603 20.9867 41.1975 21.3641 41.1251 21.7282C41.0526 22.0923 40.8739 22.4267 40.6114 22.6893C40.3489 22.9518 40.0144 23.1305 39.6503 23.2029C39.2862 23.2754 38.9088 23.2382 38.5658 23.0961C38.2228 22.9541 37.9297 22.7135 37.7234 22.4048C37.5172 22.0961 37.4071 21.7332 37.4071 21.362C37.4077 20.8644 37.6056 20.3872 37.9575 20.0354C38.3094 19.6835 38.7865 19.4855 39.2841 19.485Z" fill="#FF4815"/>
<path d="M34.0741 16.436L34.0871 17.173L33.0581 18.956L32.4131 19.313C32.2089 19.4262 32.0387 19.5919 31.9202 19.7931C31.8017 19.9943 31.7391 20.2235 31.7391 20.457V22.268C31.7391 22.5015 31.8017 22.7307 31.9202 22.9319C32.0387 23.133 32.2089 23.2988 32.4131 23.412L33.0581 23.77L34.0871 25.552L34.0741 26.29C34.0701 26.5232 34.1285 26.7533 34.2433 26.9564C34.3581 27.1595 34.5252 27.3282 34.7271 27.445L36.2961 28.351C36.4982 28.4677 36.7278 28.5282 36.9611 28.5263C37.1945 28.5243 37.423 28.46 37.6231 28.34L38.2551 27.96H40.3131L40.9451 28.34C41.1452 28.46 41.3738 28.5243 41.6071 28.5263C41.8405 28.5282 42.07 28.4677 42.2721 28.351L43.8401 27.445C44.0423 27.3283 44.2095 27.1597 44.3245 26.9566C44.4395 26.7535 44.4981 26.5233 44.4941 26.29L44.4811 25.552L45.5101 23.77L46.1551 23.412C46.359 23.2988 46.5289 23.1331 46.6473 22.9321C46.7656 22.7312 46.828 22.5022 46.8281 22.269V20.458C46.8279 20.2247 46.7653 19.9957 46.6468 19.7947C46.5283 19.5937 46.3582 19.4281 46.1541 19.315L45.5091 18.957L44.4801 17.175L44.4931 16.438C44.4972 16.2047 44.4387 15.9746 44.3239 15.7716C44.2091 15.5685 44.0421 15.3998 43.8401 15.283L42.2711 14.377C42.069 14.2604 41.8393 14.2001 41.606 14.2022C41.3727 14.2043 41.1441 14.2688 40.9441 14.389L40.3121 14.769H38.2541L37.6221 14.389C37.4221 14.2688 37.1936 14.2043 36.9603 14.2022C36.7269 14.2001 36.4973 14.2604 36.2951 14.377L34.7261 15.283C34.5246 15.3998 34.358 15.5682 34.2434 15.7709C34.1288 15.9735 34.0703 16.2032 34.0741 16.436ZM35.5741 16.524L36.9441 15.733L37.5251 16.082C37.7283 16.2042 37.961 16.2689 38.1981 16.269H40.3661C40.6033 16.2688 40.8359 16.2041 41.0391 16.082L41.6191 15.733L42.9891 16.524L42.9771 17.201C42.973 17.438 43.0335 17.6717 43.1521 17.877L44.2351 19.752C44.3541 19.9578 44.527 20.1272 44.7351 20.242L45.3271 20.57V22.149L44.7341 22.477C44.526 22.5919 44.3532 22.7613 44.2341 22.967L43.1511 24.842C43.0324 25.0476 42.9719 25.2816 42.9761 25.519L42.9881 26.196L41.6181 26.987L41.0371 26.638C40.8339 26.5158 40.6013 26.4511 40.3641 26.451H38.1981C37.961 26.4512 37.7284 26.5159 37.5251 26.638L36.9451 26.987L35.5751 26.196L35.5871 25.519C35.5913 25.2816 35.5309 25.0476 35.4121 24.842L34.3291 22.967C34.2101 22.7612 34.0373 22.5918 33.8291 22.477L33.2371 22.149V20.566L33.8291 20.238C34.0373 20.1233 34.2102 19.9538 34.3291 19.748L35.4121 17.873C35.5309 17.6674 35.5913 17.4334 35.5871 17.196L35.5741 16.524Z" fill="#FF4815"/>
<path d="M11.9671 24.74C12.635 24.7392 13.2877 24.5405 13.8426 24.1688C14.3976 23.7972 14.83 23.2694 15.085 22.6522C15.3401 22.0349 15.4065 21.3559 15.2758 20.7009C15.1451 20.0459 14.8232 19.4444 14.3507 18.9723C13.8782 18.5003 13.2764 18.1789 12.6213 18.0487C11.9662 17.9186 11.2872 17.9856 10.6702 18.2412C10.0532 18.4969 9.52576 18.9297 9.15463 19.485C8.78351 20.0403 8.58533 20.6931 8.58513 21.361C8.58592 22.2574 8.94259 23.1169 9.57675 23.7505C10.2109 24.3841 11.0707 24.74 11.9671 24.74ZM11.9671 19.485C12.3384 19.485 12.7013 19.5951 13.0099 19.8013C13.3186 20.0076 13.5592 20.3007 13.7012 20.6437C13.8433 20.9867 13.8805 21.3641 13.8081 21.7282C13.7356 22.0923 13.5569 22.4267 13.2944 22.6893C13.0319 22.9518 12.6974 23.1305 12.3333 23.2029C11.9692 23.2754 11.5918 23.2382 11.2488 23.0961C10.9059 22.9541 10.6127 22.7135 10.4065 22.4048C10.2002 22.0961 10.0901 21.7332 10.0901 21.362C10.0907 20.8644 10.2886 20.3872 10.6405 20.0354C10.9924 19.6835 11.4695 19.4855 11.9671 19.485Z" fill="#FF4815"/>
<path d="M5.09612 23.41L5.74112 23.768L6.77012 25.55L6.75713 26.288C6.75318 26.5214 6.81174 26.7515 6.92673 26.9546C7.04173 27.1577 7.20898 27.3264 7.41112 27.443L8.97913 28.348C9.18119 28.4647 9.41079 28.5252 9.64412 28.5233C9.87746 28.5214 10.106 28.4571 10.3061 28.337L10.9381 27.957H12.9961L13.6281 28.337C13.8282 28.4576 14.0568 28.5223 14.2904 28.5246C14.5239 28.5269 14.7538 28.4666 14.9561 28.35L16.5241 27.444C16.7263 27.3274 16.8935 27.1587 17.0085 26.9557C17.1235 26.7526 17.1821 26.5224 17.1781 26.289L17.1651 25.552L18.1941 23.77L18.8391 23.412C19.0429 23.2987 19.2128 23.133 19.3311 22.9321C19.4494 22.7311 19.5119 22.5022 19.5121 22.269V20.458C19.5119 20.2247 19.4493 19.9957 19.3308 19.7947C19.2123 19.5937 19.0422 19.4281 18.8381 19.315L18.1931 18.957L17.1641 17.175L17.1771 16.438C17.1811 16.2047 17.1225 15.9745 17.0075 15.7714C16.8925 15.5683 16.7253 15.3997 16.5231 15.283L14.9551 14.377C14.753 14.2604 14.5233 14.2 14.29 14.2021C14.0566 14.2042 13.8281 14.2687 13.6281 14.389L12.9961 14.769H10.9381L10.3061 14.389C10.1061 14.2688 9.87759 14.2044 9.64426 14.2022C9.41093 14.2001 9.18128 14.2605 8.97913 14.377L7.41112 15.283C7.20898 15.3997 7.04173 15.5683 6.92673 15.7714C6.81174 15.9745 6.75318 16.2047 6.75713 16.438L6.77012 17.175L5.74112 18.95L5.09612 19.308C4.8919 19.4212 4.72169 19.587 4.60317 19.7882C4.48465 19.9893 4.42214 20.2185 4.42212 20.452V22.263C4.4216 22.497 4.48386 22.7269 4.60241 22.9286C4.72096 23.1304 4.89145 23.2966 5.09612 23.41ZM5.92413 20.57L6.51612 20.242C6.72428 20.1272 6.89716 19.9578 7.01612 19.752L8.09912 17.876C8.21777 17.6704 8.27826 17.4364 8.27412 17.199L8.26212 16.522L9.63213 15.731L10.2121 16.08C10.4153 16.2023 10.648 16.2669 10.8851 16.267H13.0461C13.2833 16.2669 13.5159 16.2022 13.7191 16.08L14.3001 15.731L15.6701 16.522L15.6581 17.199C15.6541 17.4361 15.7146 17.6697 15.8331 17.875L16.9161 19.751C17.0351 19.9568 17.208 20.1262 17.4161 20.241L18.0081 20.569V22.15L17.4161 22.478C17.208 22.5929 17.0351 22.7623 16.9161 22.968L15.8371 24.85C15.7186 25.0553 15.6581 25.289 15.6621 25.526L15.6741 26.203L14.3041 26.994L13.7241 26.645C13.5209 26.5228 13.2883 26.4582 13.0511 26.458H10.8841C10.647 26.4582 10.4144 26.5228 10.2111 26.645L9.63112 26.994L8.26112 26.203L8.27312 25.526C8.27726 25.2887 8.21677 25.0546 8.09812 24.849L7.01512 22.973C6.89608 22.7673 6.72322 22.5979 6.51512 22.483L5.92312 22.155V20.57H5.92413Z" fill="#FF4815"/>
<path d="M21.7751 38.3341C21.522 38.0818 21.1875 37.9277 20.8313 37.8991C20.475 37.8705 20.1202 37.9694 19.8301 38.1781L15.7201 31.7591C15.4677 31.361 15.0849 31.063 14.6371 30.916C14.1893 30.7689 13.7043 30.7819 13.2651 30.9528C12.8258 31.1237 12.4595 31.4418 12.2288 31.8528C11.9981 32.2637 11.9173 32.7421 12.0001 33.2061L12.6351 36.8431C12.6667 37.0226 12.6479 37.2074 12.5809 37.377C12.5139 37.5465 12.4013 37.6943 12.2555 37.8038C12.1098 37.9133 11.9366 37.9804 11.7551 37.9975C11.5735 38.0147 11.3908 37.9813 11.2271 37.9011C9.7977 37.2046 8.53969 36.201 7.54296 34.9621C6.54623 33.7232 5.83536 32.2795 5.46113 30.7341L4.66113 27.4341C4.52423 26.8833 4.21221 26.3919 3.772 26.0338C3.3318 25.6756 2.7872 25.4701 2.22013 25.4481H2.18413C1.88461 25.4371 1.58619 25.4901 1.30882 25.6037C1.03145 25.7173 0.781519 25.8888 0.575728 26.1067C0.369938 26.3246 0.21303 26.5839 0.115492 26.8673C0.0179534 27.1507 -0.017968 27.4517 0.0101282 27.7501C0.376615 31.5355 1.657 35.1754 3.74118 38.3566C5.82537 41.5378 8.651 44.1653 11.9751 46.0131C11.7312 46.3014 11.6044 46.6708 11.6198 47.0482C11.6352 47.4256 11.7916 47.7835 12.0581 48.0511L15.0391 51.0321C15.18 51.1729 15.371 51.252 15.5701 51.252C15.7693 51.252 15.9603 51.1729 16.1011 51.0321L19.4331 47.7011C19.5042 47.6317 19.5608 47.5488 19.5997 47.4573C19.6385 47.3659 19.6588 47.2676 19.6594 47.1682C19.66 47.0689 19.6409 46.9704 19.6031 46.8784C19.5653 46.7865 19.5097 46.703 19.4394 46.6328C19.3692 46.5625 19.2857 46.5069 19.1938 46.4691C19.1018 46.4314 19.0033 46.4122 18.904 46.4128C18.8046 46.4134 18.7063 46.4337 18.6149 46.4725C18.5234 46.5114 18.4406 46.568 18.3711 46.6391L15.5711 49.4391L13.1201 46.9831L20.7141 39.3961L23.1641 41.8461L20.4931 44.5171C20.355 44.6585 20.2783 44.8486 20.2794 45.0462C20.2806 45.2439 20.3596 45.4331 20.4994 45.5728C20.6391 45.7126 20.8283 45.7916 21.026 45.7928C21.2236 45.794 21.4137 45.7172 21.5551 45.5791L24.7551 42.3791C24.8959 42.2382 24.9751 42.0472 24.9751 41.8481C24.9751 41.6489 24.8959 41.4579 24.7551 41.3171L21.7751 38.3341ZM1.50013 27.6051C1.49111 27.5192 1.50075 27.4323 1.52839 27.3505C1.55602 27.2687 1.601 27.1938 1.66024 27.1309C1.71949 27.0681 1.7916 27.0187 1.87167 26.9863C1.95173 26.9539 2.03784 26.9391 2.12413 26.9431H2.16113C2.40344 26.95 2.63666 27.0368 2.82455 27.19C3.01244 27.3432 3.14447 27.5541 3.20013 27.7901L4.00013 31.0901C4.42646 32.8495 5.23592 34.4932 6.37075 35.9037C7.50557 37.3143 8.93777 38.4569 10.5651 39.2501C10.9775 39.4515 11.4375 39.5351 11.8944 39.4915C12.3513 39.448 12.7872 39.279 13.1541 39.0033C13.521 38.7276 13.8045 38.3558 13.9734 37.929C14.1423 37.5023 14.19 37.0372 14.1111 36.5851L13.4761 32.9481C13.4548 32.827 13.4761 32.7022 13.5364 32.5951C13.5967 32.4879 13.6923 32.4049 13.8068 32.3603C13.9214 32.3156 14.0479 32.312 14.1648 32.3501C14.2817 32.3881 14.3818 32.4655 14.4481 32.5691L18.7231 39.2481L13.0651 44.9061C9.86797 43.1899 7.14129 40.7147 5.12475 37.698C3.10821 34.6813 1.86353 31.2155 1.50013 27.6051Z" fill="#FF4815"/>
</svg>
