<svg width="100" height="100" viewBox="0 0 100 100" fill="none" xmlns="http://www.w3.org/2000/svg">
<path d="M29.1 64.61C28.2 64.39 27.92 63.52 28.14 62.7C28.38 61.8 29 61.18 29.65 61.34C30.29 61.5 30.46 62.07 30.36 62.62C31.02 62.78 31.35 62.85 32.01 63C32.22 62.05 32.32 61.58 32.52 60.63C31.96 60.51 31.67 60.45 31.11 60.31C30.98 60.48 30.92 60.56 30.79 60.73C30.73 60.61 30.44 60.05 29.55 59.82C28.38 59.52 26.52 60.21 25.97 62.09C25.43 63.92 26.44 65.44 28.47 65.95C29.73 66.27 30.86 65.94 31.64 65.45C31.29 64.93 31.11 64.67 30.77 64.14C30.68 64.22 29.89 64.81 29.1 64.61Z" fill="#FF4815"/>
<path d="M37.88 61.61C36.49 61.4 35.79 61.29 34.41 61.02C34.33 61.45 34.29 61.67 34.2 62.1C34.35 62.13 34.42 62.14 34.57 62.17C33.8 63.55 33.4 64.24 32.59 65.6C32.33 65.55 32.2 65.52 31.94 65.47C31.85 65.91 31.8 66.13 31.71 66.56C32.94 66.82 33.55 66.94 34.78 67.15C34.86 66.71 34.9 66.49 34.97 66.05C34.67 66 34.52 65.97 34.22 65.92C34.34 65.71 34.4 65.6 34.52 65.38C35.3 65.52 35.69 65.59 36.47 65.71C36.51 65.95 36.54 66.07 36.58 66.32C36.22 66.26 36.03 66.23 35.67 66.17C35.6 66.61 35.56 66.83 35.49 67.27C37.05 67.53 37.83 67.64 39.39 67.83C39.44 67.38 39.47 67.16 39.52 66.72C39.25 66.69 39.12 66.67 38.85 66.64C38.43 64.64 38.23 63.63 37.88 61.61ZM35.07 64.45C35.44 63.77 35.63 63.42 35.99 62.73C36.11 63.5 36.17 63.89 36.3 64.65C35.81 64.58 35.56 64.53 35.07 64.45Z" fill="#FF4815"/>
<path d="M44.66 65.53C44.36 64.23 44.21 63.58 43.94 62.28C42.56 62.18 41.87 62.12 40.49 61.96C40.44 62.4 40.41 62.62 40.36 63.05C40.56 63.07 40.65 63.08 40.85 63.1C40.69 64.6 40.6 65.35 40.44 66.84C40.23 66.82 40.13 66.8 39.92 66.78C39.87 67.22 39.84 67.44 39.79 67.87C40.85 67.99 41.38 68.05 42.44 68.14C42.48 67.7 42.49 67.48 42.53 67.04C42.31 67.02 42.2 67.01 41.98 66.99C42.1 65.65 42.16 64.98 42.29 63.64C42.3 63.64 42.31 63.64 42.33 63.65C42.32 64.08 42.4 64.57 42.43 64.72C42.73 66.11 42.89 66.81 43.23 68.2C44.05 68.26 44.46 68.29 45.27 68.33C45.75 67.02 45.98 66.37 46.43 65.06C46.5 64.86 46.66 64.31 46.75 63.93C46.76 63.93 46.77 63.93 46.79 63.93C46.78 64.13 46.78 64.23 46.77 64.43C46.73 65.57 46.71 66.14 46.66 67.28C46.44 67.27 46.33 67.27 46.12 67.26C46.1 67.7 46.09 67.93 46.07 68.37C47.31 68.42 47.93 68.44 49.17 68.45C49.17 68.01 49.17 67.78 49.18 67.34C48.97 67.34 48.86 67.34 48.65 67.34C48.67 65.84 48.68 65.09 48.7 63.58C48.9 63.58 49.01 63.58 49.21 63.59C49.21 63.15 49.21 62.93 49.22 62.49C47.83 62.48 47.13 62.46 45.74 62.39C45.32 63.65 45.1 64.28 44.66 65.53Z" fill="#FF4815"/>
<path d="M52.62 62.45C51.44 62.49 50.84 62.5 49.66 62.49C49.66 62.94 49.66 63.16 49.66 63.61C49.87 63.61 49.97 63.61 50.18 63.61C50.18 65.1 50.19 65.84 50.19 67.33C49.97 67.33 49.86 67.33 49.65 67.33C49.65 67.78 49.65 68.01 49.65 68.46C50.91 68.46 51.54 68.45 52.81 68.41C52.8 67.96 52.79 67.74 52.77 67.28C52.53 67.29 52.41 67.29 52.18 67.3C52.17 66.77 52.16 66.51 52.15 65.97C52.44 65.96 52.58 65.96 52.87 65.95C54.23 65.9 55.34 65.26 55.26 64.14C55.2 63.18 54.74 62.38 52.62 62.45ZM52.54 65.05C52.37 65.05 52.28 65.06 52.11 65.06C52.09 64.47 52.09 64.17 52.07 63.58C52.26 63.58 52.35 63.57 52.53 63.57C53.07 63.55 53.4 63.81 53.42 64.32C53.45 64.76 53.09 65.04 52.54 65.05Z" fill="#FF4815"/>
<path d="M58.44 66.91C58.29 65.43 58.22 64.7 58.07 63.22C58.3 63.2 58.41 63.19 58.64 63.16C58.59 62.71 58.57 62.49 58.52 62.04C57.31 62.17 56.71 62.22 55.5 62.3C55.53 62.75 55.54 62.98 55.58 63.43C55.81 63.41 55.93 63.41 56.16 63.39C56.27 64.87 56.33 65.61 56.44 67.08C56.2 67.1 56.07 67.11 55.83 67.12C55.86 67.57 55.88 67.8 55.91 68.25C57.21 68.16 57.86 68.1 59.15 67.97C59.1 67.52 59.08 67.29 59.03 66.84C58.8 66.87 58.68 66.89 58.44 66.91Z" fill="#FF4815"/>
<path d="M66.13 61.99C66.04 61.56 66 61.34 65.92 60.91C64.84 61.13 64.29 61.23 63.2 61.41C63.27 61.84 63.31 62.06 63.38 62.5C63.63 62.46 63.75 62.44 64 62.4C64.14 63.2 64.21 63.6 64.35 64.4C63.22 63.32 62.67 62.77 61.6 61.66C60.56 61.81 60.04 61.88 58.99 61.99C59.04 62.43 59.06 62.65 59.11 63.08C59.32 63.06 59.43 63.05 59.65 63.02C59.83 64.52 59.91 65.26 60.09 66.76C59.86 66.79 59.75 66.8 59.52 66.83C59.57 67.27 59.59 67.49 59.64 67.92C60.84 67.79 61.44 67.71 62.63 67.53C62.57 67.09 62.53 66.88 62.47 66.44C62.17 66.48 62.03 66.5 61.73 66.55C61.61 65.7 61.56 65.27 61.44 64.42C62.57 65.58 63.16 66.15 64.36 67.26C65.19 67.12 65.61 67.05 66.44 66.89C66.07 64.98 65.89 64.02 65.52 62.11C65.77 62.07 65.89 62.04 66.13 61.99Z" fill="#FF4815"/>
<path d="M74.01 62.87C73.91 62.52 73.86 62.35 73.75 61.99C72.53 62.35 71.92 62.51 70.69 62.83C70.78 63.18 70.83 63.36 70.92 63.71C71.15 63.65 71.26 63.62 71.49 63.56C71.53 63.7 71.54 63.77 71.58 63.91C71.5 64.16 71.32 64.41 70.78 64.55C69.96 64.76 69.33 64.18 69.13 63.33C68.94 62.5 69.28 61.65 70.01 61.47C70.55 61.34 71.12 61.59 71.32 62.25C71.98 62.08 72.31 61.99 72.96 61.8C72.68 60.83 72.55 60.35 72.27 59.38C71.74 59.53 71.48 59.6 70.95 59.74C70.94 60 70.93 60.13 70.92 60.39C70.74 60.3 70.29 59.82 69 60.14C67.61 60.47 66.51 62.01 66.88 63.83C67.25 65.63 68.83 66.51 70.51 66.1C71.25 65.92 71.76 65.48 71.9 65.12C72.07 65.3 72.16 65.39 72.33 65.56C73.09 65.36 73.48 65.25 74.24 65.03C74 64.21 73.88 63.8 73.65 62.98C73.78 62.93 73.86 62.91 74.01 62.87Z" fill="#FF4815"/>
<path d="M87.28 61.42C87.99 58.47 88.28 56.99 88.73 54.06C85.33 55.86 83.59 56.66 80.05 58.04C79.44 56.48 79.14 55.69 78.53 54.13C58.73 60.67 41.02 60.67 21.22 54.13C20.61 55.69 20.31 56.47 19.7 58.04C16.16 56.66 14.42 55.87 11.02 54.07C11.47 57 11.76 58.48 12.47 61.43C9.75 62.82 8.34001 63.47 5.43001 64.65C11.53 67.88 14.7 69.2 21.16 71.25C21.67 69.65 21.92 68.85 22.43 67.25C41.44 72.26 58.32 72.26 77.33 67.25C77.84 68.85 78.09 69.65 78.6 71.25C85.06 69.2 88.23 67.88 94.33 64.66C91.41 63.46 90 62.81 87.28 61.42ZM19.94 69.37C15.48 67.86 13.28 66.97 9 64.89C11.18 63.89 12.24 63.36 14.3 62.24C13.71 60 13.45 58.88 13.01 56.64C15.45 57.83 16.69 58.37 19.19 59.34C18.26 61.72 17.8 62.91 16.87 65.28C18.44 65.89 19.23 66.18 20.83 66.72C20.48 67.78 20.3 68.31 19.94 69.37ZM76.91 65.91C58.19 70.84 41.58 70.84 22.86 65.91C21.28 65.41 20.5 65.14 18.94 64.57C19.82 62.18 20.26 60.98 21.15 58.59C21.54 57.54 21.73 57.02 22.12 55.97C41.28 61.97 58.49 61.96 77.66 55.97C78.05 57.02 78.24 57.54 78.63 58.59C79.51 60.98 79.95 62.18 80.84 64.57C79.27 65.14 78.48 65.41 76.91 65.91ZM78.93 66.72C80.52 66.18 81.31 65.89 82.89 65.28C81.96 62.9 81.5 61.72 80.57 59.34C83.07 58.36 84.32 57.82 86.76 56.63C86.32 58.87 86.06 59.99 85.47 62.23C87.53 63.35 88.59 63.88 90.77 64.88C86.48 66.96 84.28 67.86 79.82 69.36C79.46 68.31 79.29 67.78 78.93 66.72Z" fill="#FF4815"/>
<path d="M40.82 28.77L28.3 44.38C26.67 46.42 24.81 50.31 23.87 53.56C28.02 54.82 32.09 55.8 36.12 56.47C40.32 48.23 40.43 35.33 40.83 34.93C41.24 35.35 41.34 49.41 46.13 57.54C50.3 57.73 54.46 57.59 58.64 57.14L58.09 54.73C57.31 51.3 55.19 46.66 53.35 44.37L40.82 28.77Z" fill="#FF4815"/>
<path d="M59.83 57.01C65.08 56.37 70.39 55.22 75.84 53.57C74.85 50.55 73.17 47.16 71.68 45.29L60.27 31.06L42.63 28.97L54.21 43.4C56.19 45.87 58.4 50.68 59.24 54.36L59.83 57.01Z" fill="#FF4815"/>
<path d="M58.29 65.4C58.33 65.85 58.38 66.32 58.44 66.91C58.68 66.89 58.8 66.87 59.03 66.85L58.29 65.4Z" fill="#FF4815"/>
<path d="M52.3 63.57C52.23 63.57 52.17 63.57 52.08 63.58C52.1 64.17 52.1 64.47 52.12 65.06C52.28 65.06 52.37 65.05 52.51 65.05L52.3 63.57Z" fill="#FF4815"/>
<path d="M35.99 62.73C35.95 62.81 35.92 62.86 35.88 62.93L36 62.82C36 62.79 35.99 62.77 35.99 62.73Z" fill="#FF4815"/>
<path d="M59.38 63.06L59.7 63.47C59.68 63.33 59.67 63.18 59.65 63.03C59.54 63.04 59.46 63.05 59.38 63.06Z" fill="#FF4815"/>
<path d="M42.29 63.66C42.27 63.92 42.25 64.14 42.23 64.36L42.35 64.15C42.34 63.99 42.33 63.83 42.33 63.67C42.31 63.66 42.3 63.66 42.29 63.66Z" fill="#FF4815"/>
<path d="M36.58 66.21L36.5 66.31C36.53 66.31 36.56 66.32 36.6 66.33C36.59 66.28 36.58 66.25 36.58 66.21Z" fill="#FF4815"/>
<path d="M40.51 66.2L40.17 66.82C40.25 66.83 40.33 66.84 40.44 66.85C40.46 66.62 40.48 66.41 40.51 66.2Z" fill="#FF4815"/>
<path d="M46.71 65.81L46.46 67.29C46.52 67.29 46.58 67.29 46.66 67.3C46.68 66.7 46.7 66.26 46.71 65.81Z" fill="#FF4815"/>
<path d="M35.2 35.76L13.54 15.66L34.86 36.18L35.2 35.76Z" fill="#FF4815"/>
<path d="M28.3 44.37L28.57 44.04L1.58 37.09L28.23 44.47C28.24 44.44 28.27 44.4 28.3 44.37Z" fill="#FF4815"/>
<path d="M30.92 41.1L4.36 29.32L30.58 41.52L30.92 41.1Z" fill="#FF4815"/>
<path d="M33.09 38.39L8.38 22.1L32.75 38.81L33.09 38.39Z" fill="#FF4815"/>
<path d="M26.33 47.5L0.110001 45.22L26.1 47.96C26.17 47.8 26.25 47.65 26.33 47.5Z" fill="#FF4815"/>
<path d="M24.53 51.54L0 53.48L24.37 52.01C24.42 51.85 24.47 51.7 24.53 51.54Z" fill="#FF4815"/>
<path d="M9.83 66.88L3.82001 69.49L9.97 66.95C9.93 66.93 9.88 66.9 9.83 66.88Z" fill="#FF4815"/>
<path d="M11.92 58.98L1.25 61.64L11.96 59.18C11.94 59.11 11.93 59.05 11.92 58.98Z" fill="#FF4815"/>
<path d="M57.08 30.69L66.74 2.91998L56.53 30.62L57.08 30.69Z" fill="#FF4815"/>
<path d="M50.42 29.9L50.54 0L49.87 29.84L50.42 29.9Z" fill="#FF4815"/>
<path d="M53.72 30.29L58.76 0.789978L53.17 30.23L53.72 30.29Z" fill="#FF4815"/>
<path d="M17.9 70.17L7.66 76.8L18.17 70.26C18.09 70.23 17.99 70.2 17.9 70.17Z" fill="#FF4815"/>
<path d="M43.27 29.06L34.27 2.5L42.7 28.99L43.27 29.06Z" fill="#FF4815"/>
<path d="M47.01 29.5L42.3 0.579987L46.45 29.43L47.01 29.5Z" fill="#FF4815"/>
<path d="M39.74 30.11L26.66 5.71997L39.39 30.54L39.74 30.11Z" fill="#FF4815"/>
<path d="M37.37 33.05L19.69 10.14L37.03 33.48L37.37 33.05Z" fill="#FF4815"/>
<path d="M28.71 68.72L12.65 83.39L29.19 68.83C29.03 68.79 28.87 68.75 28.71 68.72Z" fill="#FF4815"/>
<path d="M69.68 69L86.22 84.35L70.18 68.91C70.01 68.94 69.85 68.97 69.68 69Z" fill="#FF4815"/>
<path d="M64.64 69.87L80.08 89.86L65.16 69.79C64.98 69.81 64.81 69.84 64.64 69.87Z" fill="#FF4815"/>
<path d="M60.26 31.06L60.55 31.42L74.25 6.34L60.16 31.05L60.26 31.06Z" fill="#FF4815"/>
<path d="M75.53 52.69L99.66 54.78L75.36 52.22C75.42 52.38 75.47 52.53 75.53 52.69Z" fill="#FF4815"/>
<path d="M88.42 67.59L95.41 70.69L88.59 67.51C88.53 67.54 88.47 67.56 88.42 67.59Z" fill="#FF4815"/>
<path d="M60.31 70.43L73.1 94.29L60.84 70.37C60.66 70.39 60.49 70.41 60.31 70.43Z" fill="#FF4815"/>
<path d="M87.58 60.18L98.19 62.91L87.62 59.98C87.61 60.05 87.59 60.11 87.58 60.18Z" fill="#FF4815"/>
<path d="M80.39 70.66L91.38 77.9L80.68 70.56C80.59 70.59 80.49 70.63 80.39 70.66Z" fill="#FF4815"/>
<path d="M38.27 70.29L25.5 93.66L38.8 70.35C38.63 70.33 38.45 70.31 38.27 70.29Z" fill="#FF4815"/>
<path d="M42.2 70.68L33.02 97.08L42.73 70.73C42.56 70.71 42.38 70.69 42.2 70.68Z" fill="#FF4815"/>
<path d="M33.86 69.67L18.65 89.05L34.38 69.75C34.21 69.73 34.03 69.7 33.86 69.67Z" fill="#FF4815"/>
<path d="M45.84 70.9L41 99.21L46.37 70.93C46.2 70.93 46.02 70.91 45.84 70.9Z" fill="#FF4815"/>
<path d="M52.83 70.95L57.47 99.43L53.37 70.93C53.18 70.94 53 70.94 52.83 70.95Z" fill="#FF4815"/>
<path d="M56.44 70.77L65.5 97.5L56.97 70.73C56.79 70.75 56.61 70.76 56.44 70.77Z" fill="#FF4815"/>
<path d="M49.34 70.99L49.22 100L49.87 71C49.69 71 49.52 70.99 49.34 70.99Z" fill="#FF4815"/>
<path d="M18.69 57.64L19.97 57.35C20.02 57.21 20.08 57.08 20.13 56.95L18.17 57.44C18.34 57.49 18.51 57.56 18.69 57.64Z" fill="#FF4815"/>
<path d="M22.43 67.24C22.38 67.41 22.33 67.56 22.28 67.71L22.86 67.35C22.72 67.31 22.57 67.28 22.43 67.24Z" fill="#FF4815"/>
<path d="M69.15 42.14L95.93 30.52L68.8 41.71L69.15 42.14Z" fill="#FF4815"/>
<path d="M73.48 48.12C73.56 48.27 73.64 48.43 73.72 48.58L99.76 46.53L73.48 48.12Z" fill="#FF4815"/>
<path d="M71.51 45.09L98.51 38.36L71.16 44.65L71.51 45.09Z" fill="#FF4815"/>
<path d="M64.93 36.88L87.11 16.62L64.58 36.45L64.93 36.88Z" fill="#FF4815"/>
<path d="M67 39.46L92.1 23.2L66.65 39.03L67 39.46Z" fill="#FF4815"/>
<path d="M62.82 34.25L81.11 10.95L62.47 33.82L62.82 34.25Z" fill="#FF4815"/>
<path d="M80.06 58.03C80.14 58 80.21 57.97 80.28 57.94L80 57.86C80.01 57.93 80.03 57.98 80.06 58.03Z" fill="#FF4815"/>
<path d="M82.68 64.77C82.72 64.88 82.77 64.99 82.81 65.11L86.63 66.81C86.7 66.78 86.77 66.75 86.84 66.72L82.68 64.77Z" fill="#FF4815"/>
<path d="M77.75 68.55L76.24 67.51C76.09 67.55 75.94 67.58 75.8 67.62L77.9 69.01C77.84 68.86 77.8 68.71 77.75 68.55Z" fill="#FF4815"/>
</svg>
