<svg width="100" height="100" viewBox="0 0 100 100" fill="none" xmlns="http://www.w3.org/2000/svg">
<path d="M59.12 72.2C59.25 72.22 59.38 72.22 59.52 72.22C59.95 72.22 60.42 72.15 60.9 72.03C61.54 71.87 62.21 71.59 62.86 71.23C63.51 70.87 64.15 70.42 64.72 69.89C65.29 69.37 65.75 68.82 66.1 68.28C66.44 67.75 66.67 67.22 66.77 66.74C66.88 66.26 66.87 65.81 66.74 65.43C66.62 65.05 66.38 64.73 66.02 64.5L61.94 61.86C59.81 62.51 57.39 62.96 54.63 63.19L51.14 66.12L57.77 71.69C58.13 71.97 58.59 72.14 59.12 72.2ZM58.74 69.63C58.86 69.28 59.08 68.88 59.37 68.49C59.69 68.06 60.09 67.65 60.55 67.26C61.01 66.87 61.51 66.54 62.04 66.27C62.52 66.02 63.02 65.83 63.49 65.71C63.84 65.62 64.17 65.57 64.48 65.57C64.53 65.57 64.59 65.57 64.64 65.57C64.89 65.59 65.1 65.64 65.23 65.73C65.32 65.79 65.34 65.83 65.36 65.88C65.4 66 65.4 66.19 65.35 66.4C65.28 66.73 65.11 67.09 64.87 67.47C64.58 67.92 64.2 68.36 63.74 68.78C63.26 69.22 62.73 69.6 62.16 69.92C61.63 70.22 61.07 70.44 60.55 70.58C60.18 70.67 59.84 70.72 59.53 70.72C59.45 70.72 59.36 70.72 59.28 70.71C59.04 70.68 58.84 70.62 58.74 70.53C58.7 70.49 58.66 70.45 58.64 70.33C58.62 70.24 58.61 70.01 58.74 69.63Z" fill="#FF4815"/>
<path d="M50 63.36C47.27 63.36 42.39 63.36 37.86 61.98L33.98 64.49C33.62 64.72 33.38 65.04 33.26 65.42C33.13 65.8 33.13 66.25 33.23 66.73C33.34 67.22 33.56 67.74 33.91 68.27C34.25 68.81 34.71 69.36 35.29 69.88C35.87 70.41 36.5 70.86 37.15 71.22C37.8 71.58 38.47 71.85 39.11 72.02C39.59 72.15 40.06 72.21 40.49 72.21C40.63 72.21 40.76 72.2 40.89 72.19C41.43 72.14 41.89 71.96 42.23 71.67L52.18 63.31C51.46 63.34 50.74 63.36 50 63.36ZM41.37 70.35C41.35 70.47 41.31 70.51 41.27 70.54C41.16 70.63 40.97 70.7 40.72 70.72C40.64 70.73 40.56 70.73 40.47 70.73C40.17 70.73 39.82 70.68 39.46 70.59C38.94 70.46 38.38 70.23 37.85 69.93C37.28 69.62 36.75 69.23 36.27 68.79C35.81 68.37 35.43 67.93 35.14 67.47C34.9 67.1 34.73 66.73 34.66 66.4C34.61 66.19 34.61 65.99 34.65 65.87C34.66 65.83 34.69 65.78 34.77 65.72C34.9 65.64 35.11 65.58 35.35 65.56C35.41 65.56 35.46 65.56 35.52 65.56C35.82 65.56 36.15 65.61 36.51 65.7C36.98 65.82 37.47 66.01 37.95 66.26C38.48 66.53 38.98 66.87 39.44 67.25C39.9 67.63 40.3 68.05 40.62 68.48C40.91 68.87 41.13 69.26 41.25 69.62C41.39 70.01 41.38 70.25 41.37 70.35Z" fill="#FF4815"/>
<path d="M50.74 36.24C50.7 37.03 50.68 37.76 50.62 38.43C50.57 39.12 50.48 39.71 50.33 40.2C50.25 40.5 50.13 40.74 50 40.92C49.87 40.75 49.75 40.51 49.67 40.2C49.52 39.71 49.43 39.12 49.38 38.43C49.33 37.75 49.3 37.02 49.26 36.24C49.22 35.46 49.16 34.65 49.03 33.83C48.89 33 48.69 32.19 48.36 31.46C48.03 30.73 47.63 30.1 47.16 29.64C46.95 29.4 46.71 29.2 46.49 29.03C46.28 28.85 46.05 28.72 45.84 28.6C45.45 28.34 45.04 28.2 44.76 28.08C44.16 27.89 43.83 27.79 43.83 27.79C43.83 27.79 44.02 28.09 44.32 28.62C44.44 28.91 44.59 29.19 44.69 29.57C44.74 29.76 44.81 29.95 44.82 30.15C44.86 30.35 44.88 30.55 44.86 30.76C44.86 31.17 44.74 31.58 44.59 31.97C44.42 32.36 44.17 32.74 43.88 33.14C43.59 33.54 43.23 33.97 42.84 34.43C42.45 34.89 42.01 35.41 41.57 35.98C41.12 36.55 40.65 37.21 40.2 37.99C39.84 38.61 39.5 39.35 39.24 40.19C39.22 40.03 39.21 39.86 39.18 39.69C39.04 38.87 38.84 38.05 38.51 37.32C38.18 36.59 37.78 35.96 37.31 35.5C37.09 35.25 36.86 35.06 36.64 34.89C36.43 34.71 36.2 34.57 36 34.45C35.6 34.2 35.21 34.06 34.92 33.93C34.33 33.74 33.99 33.65 33.99 33.65C33.99 33.65 34.18 33.95 34.48 34.48C34.59 34.77 34.75 35.05 34.85 35.43C34.9 35.61 34.97 35.8 34.98 36C35.02 36.2 35.04 36.41 35.02 36.61C35.03 37.02 34.9 37.44 34.75 37.82C34.58 38.2 34.33 38.59 34.04 38.99C33.75 39.39 33.39 39.82 33 40.28C32.61 40.74 32.17 41.26 31.73 41.84C31.28 42.4 30.81 43.07 30.36 43.85C29.92 44.61 29.5 45.54 29.23 46.63C29.08 47.16 29 47.77 28.93 48.36C28.9 48.98 28.87 49.59 28.94 50.23C29.81 57.99 36.22 60.67 43.11 61.52C41.33 60.7 40 59.31 39.73 56.94C39.69 56.63 39.71 56.33 39.72 56.03C39.75 55.75 39.79 55.44 39.87 55.19C40 54.66 40.2 54.21 40.42 53.83C40.64 53.45 40.87 53.13 41.09 52.85C41.3 52.57 41.52 52.31 41.71 52.09C41.9 51.87 42.08 51.66 42.22 51.46C42.36 51.27 42.48 51.08 42.57 50.89C42.64 50.7 42.7 50.5 42.7 50.3C42.71 50.2 42.7 50.1 42.68 50C42.67 49.9 42.64 49.81 42.62 49.72C42.57 49.53 42.5 49.4 42.44 49.26C42.29 49 42.2 48.85 42.2 48.85C42.2 48.85 42.36 48.89 42.65 48.99C42.79 49.05 42.98 49.12 43.18 49.24C43.28 49.3 43.39 49.37 43.49 49.45C43.6 49.53 43.71 49.62 43.82 49.75C44.05 49.98 44.24 50.28 44.41 50.64C44.57 51 44.67 51.39 44.73 51.8C44.74 51.88 44.75 51.97 44.76 52.04C44.89 51.63 45.06 51.27 45.23 50.97C45.45 50.59 45.68 50.27 45.9 49.99C46.12 49.71 46.33 49.46 46.52 49.23C46.71 49 46.89 48.8 47.03 48.6C47.17 48.4 47.29 48.22 47.38 48.03C47.46 47.84 47.51 47.64 47.51 47.44C47.52 47.34 47.51 47.24 47.49 47.14C47.48 47.04 47.45 46.95 47.43 46.85C47.38 46.66 47.3 46.53 47.25 46.39C47.1 46.13 47.01 45.98 47.01 45.98C47.01 45.98 47.17 46.03 47.46 46.12C47.6 46.18 47.8 46.25 47.99 46.38C48.09 46.44 48.2 46.5 48.31 46.59C48.42 46.67 48.53 46.77 48.63 46.88C48.86 47.11 49.05 47.41 49.22 47.77C49.38 48.13 49.48 48.53 49.55 48.93C49.61 49.33 49.64 49.73 49.66 50.11C49.68 50.5 49.69 50.85 49.72 51.18C49.74 51.51 49.79 51.8 49.86 52.04C49.9 52.19 49.96 52.31 50.02 52.39C50.08 52.31 50.14 52.19 50.18 52.04C50.25 51.8 50.3 51.51 50.32 51.18C50.35 50.85 50.36 50.49 50.38 50.11C50.4 49.73 50.43 49.34 50.49 48.93C50.56 48.53 50.66 48.13 50.81 47.77C50.98 47.42 51.17 47.11 51.4 46.88C51.51 46.76 51.62 46.67 51.73 46.59C51.83 46.5 51.94 46.44 52.04 46.38C52.23 46.26 52.43 46.19 52.57 46.12C52.86 46.03 53.02 45.98 53.02 45.98C53.02 45.98 52.93 46.13 52.78 46.39C52.72 46.53 52.65 46.67 52.6 46.85C52.57 46.94 52.54 47.03 52.54 47.14C52.52 47.24 52.51 47.34 52.52 47.44C52.52 47.64 52.57 47.84 52.65 48.03C52.73 48.22 52.86 48.41 52.99 48.6C53.13 48.79 53.31 49 53.5 49.23C53.69 49.45 53.9 49.71 54.13 49.99C54.35 50.27 54.58 50.59 54.79 50.97C54.97 51.27 55.13 51.63 55.26 52.04C55.27 51.96 55.28 51.88 55.29 51.8C55.35 51.4 55.46 51 55.61 50.64C55.78 50.28 55.97 49.98 56.19 49.75C56.3 49.63 56.41 49.54 56.52 49.45C56.62 49.36 56.73 49.3 56.83 49.24C57.02 49.12 57.22 49.05 57.36 48.99C57.65 48.9 57.82 48.85 57.82 48.85C57.82 48.85 57.73 48.99 57.58 49.26C57.52 49.4 57.45 49.54 57.4 49.72C57.37 49.81 57.34 49.9 57.34 50C57.33 50.1 57.31 50.2 57.32 50.3C57.32 50.5 57.37 50.7 57.45 50.89C57.53 51.08 57.65 51.27 57.79 51.46C57.93 51.66 58.11 51.87 58.3 52.09C58.49 52.31 58.71 52.57 58.92 52.85C59.14 53.13 59.37 53.45 59.58 53.83C59.8 54.2 60 54.66 60.14 55.19C60.21 55.45 60.25 55.75 60.29 56.03C60.3 56.33 60.32 56.64 60.28 56.94C60 59.24 58.63 60.63 56.82 61.47C63.67 60.53 70.15 57.72 71.07 50.24C71.15 49.6 71.11 48.99 71.09 48.37C71.02 47.78 70.94 47.17 70.79 46.64C70.51 45.55 70.09 44.63 69.65 43.86C69.21 43.08 68.74 42.42 68.29 41.85C67.84 41.27 67.4 40.75 67.01 40.29C66.62 39.83 66.26 39.4 65.97 39C65.69 38.6 65.43 38.22 65.27 37.83C65.11 37.45 65 37.03 65 36.62C64.98 36.41 65.01 36.21 65.04 36.01C65.06 35.8 65.12 35.62 65.17 35.44C65.27 35.06 65.43 34.77 65.54 34.49C65.84 33.96 66.03 33.66 66.03 33.66C66.03 33.66 65.69 33.75 65.1 33.94C64.82 34.07 64.41 34.21 64.01 34.46C63.8 34.58 63.58 34.72 63.37 34.9C63.15 35.07 62.91 35.26 62.7 35.51C62.24 35.97 61.84 36.6 61.5 37.33C61.18 38.06 60.97 38.88 60.84 39.7C60.81 39.87 60.8 40.04 60.77 40.2C60.51 39.36 60.17 38.62 59.81 38C59.37 37.22 58.9 36.56 58.45 35.99C58 35.41 57.56 34.9 57.17 34.44C56.78 33.98 56.42 33.55 56.13 33.15C55.84 32.75 55.59 32.37 55.43 31.98C55.27 31.6 55.15 31.18 55.16 30.77C55.14 30.56 55.17 30.36 55.2 30.16C55.22 29.95 55.27 29.77 55.33 29.58C55.43 29.2 55.58 28.91 55.7 28.63C56 28.1 56.19 27.8 56.19 27.8C56.19 27.8 55.85 27.9 55.26 28.09C54.97 28.22 54.57 28.36 54.17 28.61C53.96 28.73 53.74 28.86 53.53 29.04C53.3 29.21 53.07 29.4 52.86 29.65C52.4 30.11 52 30.74 51.66 31.47C51.34 32.2 51.13 33.02 50.99 33.84C50.84 34.65 50.79 35.45 50.74 36.24Z" fill="#FF4815"/>
<path d="M67.82 91.41C66.98 91.77 66.12 92.11 65.25 92.43C64.88 92.56 64.69 92.97 64.83 93.33C64.93 93.62 65.2 93.8 65.49 93.8C65.57 93.8 65.65 93.79 65.73 93.76C66.63 93.44 67.51 93.09 68.39 92.71C68.75 92.56 68.91 92.14 68.76 91.79C68.59 91.42 68.17 91.26 67.82 91.41Z" fill="#FF4815"/>
<path d="M94 40.18C94.2 41.08 94.37 41.99 94.52 42.9C94.57 43.25 94.87 43.49 95.21 43.49C95.25 43.49 95.28 43.49 95.32 43.48C95.7 43.42 95.97 43.06 95.91 42.67C95.76 41.72 95.58 40.79 95.38 39.86C95.3 39.48 94.92 39.24 94.54 39.33C94.15 39.42 93.91 39.8 94 40.18Z" fill="#FF4815"/>
<path d="M8.10001 66.64C7.96001 66.28 7.55001 66.1 7.19001 66.24C6.83001 66.38 6.65001 66.79 6.79001 67.15C7.14001 68.04 7.52 68.91 7.93 69.77C8.05 70.02 8.30001 70.17 8.57001 70.17C8.67001 70.17 8.77 70.15 8.87 70.1C9.22 69.94 9.37 69.52 9.21 69.16C8.81 68.34 8.44001 67.49 8.10001 66.64Z" fill="#FF4815"/>
<path d="M6.75 62.71C6.49 61.83 6.25999 60.93 6.04999 60.03C5.95999 59.65 5.59999 59.41 5.20999 59.5C4.82999 59.59 4.58999 59.96 4.67999 60.34C4.88999 61.27 5.12999 62.2 5.39999 63.11C5.48999 63.42 5.76999 63.62 6.07999 63.62C6.13999 63.62 6.21 63.61 6.28 63.59C6.64 63.47 6.85 63.08 6.75 62.71Z" fill="#FF4815"/>
<path d="M11.14 72.85C10.94 72.51 10.51 72.4 10.18 72.6C9.84999 72.8 9.72999 73.23 9.92999 73.56C10.41 74.38 10.92 75.19 11.45 75.98C11.59 76.18 11.81 76.29 12.03 76.29C12.17 76.29 12.3 76.25 12.42 76.17C12.74 75.95 12.83 75.51 12.61 75.19C12.11 74.43 11.61 73.65 11.14 72.85Z" fill="#FF4815"/>
<path d="M15.11 78.53C14.86 78.23 14.42 78.19 14.12 78.43C13.82 78.68 13.78 79.12 14.02 79.42C14.62 80.16 15.25 80.88 15.9 81.58C16.04 81.73 16.23 81.81 16.42 81.81C16.59 81.81 16.76 81.75 16.9 81.62C17.19 81.36 17.2 80.91 16.94 80.62C16.3 79.94 15.69 79.24 15.11 78.53Z" fill="#FF4815"/>
<path d="M47.53 95.01C46.6 94.96 45.68 94.88 44.77 94.78C44.39 94.75 44.03 95.01 43.99 95.4C43.95 95.79 44.22 96.14 44.61 96.18C45.55 96.29 46.5 96.37 47.46 96.42C47.47 96.42 47.49 96.42 47.5 96.42C47.87 96.42 48.18 96.13 48.2 95.75C48.21 95.36 47.92 95.03 47.53 95.01Z" fill="#FF4815"/>
<path d="M54.45 94.86C53.54 94.95 52.61 95.01 51.69 95.04C51.3 95.05 51 95.38 51.01 95.77C51.02 96.15 51.34 96.45 51.71 96.45C51.72 96.45 51.73 96.45 51.73 96.45C52.69 96.42 53.64 96.35 54.58 96.26C54.97 96.22 55.25 95.88 55.21 95.49C55.18 95.1 54.83 94.84 54.45 94.86Z" fill="#FF4815"/>
<path d="M40.66 94.1C39.75 93.91 38.85 93.69 37.97 93.44C37.6 93.34 37.21 93.56 37.1 93.93C37 94.3 37.22 94.69 37.59 94.8C38.5 95.05 39.43 95.28 40.37 95.48C40.42 95.49 40.47 95.49 40.52 95.49C40.85 95.49 41.14 95.26 41.21 94.93C41.28 94.56 41.04 94.18 40.66 94.1Z" fill="#FF4815"/>
<path d="M5.32 55.93C5.2 55.02 5.11001 54.1 5.04 53.17C5.01 52.78 4.67 52.5 4.29 52.52C3.9 52.55 3.61001 52.88 3.64001 53.27C3.71001 54.23 3.79999 55.17 3.92999 56.11C3.97999 56.46 4.28 56.72 4.63 56.72C4.66 56.72 4.69 56.72 4.72 56.71C5.1 56.67 5.37 56.32 5.32 55.93Z" fill="#FF4815"/>
<path d="M61.27 93.65C60.38 93.88 59.48 94.08 58.57 94.26C58.19 94.33 57.94 94.7 58.01 95.08C58.08 95.42 58.37 95.65 58.7 95.65C58.74 95.65 58.79 95.65 58.83 95.64C59.77 95.46 60.7 95.25 61.62 95.01C62 94.91 62.22 94.53 62.13 94.15C62.03 93.78 61.64 93.56 61.27 93.65Z" fill="#FF4815"/>
<path d="M90.28 29.76C90.4 30.01 90.65 30.15 90.91 30.15C91.02 30.15 91.12 30.13 91.23 30.07C91.58 29.9 91.72 29.47 91.54 29.12C91.11 28.27 90.66 27.43 90.18 26.61C89.98 26.27 89.55 26.16 89.22 26.36C88.88 26.56 88.77 26.99 88.97 27.32C89.42 28.12 89.86 28.94 90.28 29.76Z" fill="#FF4815"/>
<path d="M94.97 47.03C95.03 47.95 95.06 48.87 95.06 49.8C95.06 50.19 95.38 50.5 95.76 50.5C96.15 50.5 96.46 50.18 96.46 49.79C96.46 48.83 96.42 47.88 96.36 46.93C96.33 46.54 96 46.24 95.61 46.27C95.24 46.31 94.95 46.65 94.97 47.03Z" fill="#FF4815"/>
<path d="M19.89 83.54C19.6 83.28 19.16 83.3 18.9 83.59C18.64 83.88 18.66 84.32 18.95 84.59C19.66 85.23 20.39 85.84 21.14 86.44C21.27 86.54 21.42 86.59 21.58 86.59C21.79 86.59 21.99 86.5 22.13 86.32C22.37 86.02 22.32 85.57 22.02 85.33C21.28 84.75 20.58 84.16 19.89 83.54Z" fill="#FF4815"/>
<path d="M34.02 92.16C33.15 91.83 32.3 91.48 31.46 91.1C31.11 90.94 30.69 91.1 30.53 91.45C30.37 91.8 30.53 92.22 30.88 92.38C31.75 92.77 32.63 93.14 33.53 93.48C33.61 93.51 33.7 93.53 33.78 93.53C34.06 93.53 34.33 93.36 34.44 93.07C34.56 92.7 34.38 92.29 34.02 92.16Z" fill="#FF4815"/>
<path d="M27.75 89.2C26.94 88.74 26.15 88.26 25.38 87.75C25.06 87.54 24.62 87.63 24.41 87.95C24.2 88.28 24.29 88.71 24.61 88.92C25.41 89.44 26.22 89.94 27.05 90.41C27.16 90.47 27.28 90.5 27.4 90.5C27.65 90.5 27.88 90.37 28.01 90.14C28.21 89.83 28.09 89.4 27.75 89.2Z" fill="#FF4815"/>
<path d="M92.9 36.17C93 36.47 93.27 36.66 93.57 36.66C93.64 36.66 93.71 36.65 93.78 36.63C94.15 36.51 94.36 36.11 94.24 35.74C93.95 34.83 93.63 33.93 93.28 33.05C93.14 32.69 92.73 32.51 92.37 32.65C92.01 32.79 91.83 33.2 91.97 33.56C92.31 34.41 92.62 35.29 92.9 36.17Z" fill="#FF4815"/>
<path d="M62.23 6.60998C63.12 6.85998 64 7.13998 64.87 7.43998C64.95 7.46998 65.03 7.47999 65.1 7.47999C65.39 7.47999 65.66 7.29999 65.77 7.00999C65.9 6.63999 65.71 6.23998 65.34 6.10998C64.44 5.79998 63.53 5.50999 62.61 5.24999C62.23 5.13999 61.85 5.35998 61.74 5.73998C61.64 6.11998 61.85 6.49998 62.23 6.60998Z" fill="#FF4815"/>
<path d="M68.73 8.99001C69.57 9.38001 70.4 9.79 71.22 10.22C71.33 10.28 71.44 10.3 71.55 10.3C71.8 10.3 72.04 10.17 72.17 9.93001C72.35 9.59001 72.22 9.16001 71.88 8.98001C71.04 8.53001 70.19 8.11001 69.31 7.71001C68.96 7.55001 68.54 7.70002 68.38 8.06002C68.22 8.42002 68.37 8.83001 68.73 8.99001Z" fill="#FF4815"/>
<path d="M55.44 5.25999C56.36 5.36999 57.28 5.51 58.18 5.67C58.22 5.68 58.26 5.67999 58.31 5.67999C58.64 5.67999 58.94 5.43999 59 5.09999C59.07 4.71999 58.82 4.35 58.43 4.28C57.5 4.11 56.56 3.96999 55.6 3.84999C55.22 3.79999 54.86 4.07998 54.82 4.46998C54.77 4.85998 55.05 5.20999 55.44 5.25999Z" fill="#FF4815"/>
<path d="M74.79 12.35C75.56 12.86 76.32 13.39 77.06 13.95C77.19 14.05 77.33 14.09 77.48 14.09C77.69 14.09 77.9 13.99 78.04 13.81C78.27 13.5 78.21 13.06 77.9 12.82C77.14 12.25 76.36 11.7 75.56 11.17C75.24 10.96 74.8 11.04 74.58 11.37C74.37 11.7 74.46 12.14 74.79 12.35Z" fill="#FF4815"/>
<path d="M86.7 23.84C86.84 24.03 87.05 24.13 87.27 24.13C87.41 24.13 87.56 24.09 87.68 24C88 23.77 88.07 23.33 87.84 23.02C87.29 22.24 86.71 21.48 86.11 20.75C85.86 20.45 85.42 20.4 85.12 20.65C84.82 20.89 84.77 21.34 85.02 21.64C85.6 22.35 86.16 23.09 86.7 23.84Z" fill="#FF4815"/>
<path d="M48.49 4.95998C48.5 4.95998 48.5 4.95998 48.51 4.95998C48.98 4.93998 49.46 4.93997 49.93 4.93997C50.39 4.93997 50.83 4.93998 51.28 4.95998C51.68 4.95998 51.99 4.65998 52 4.27998C52.01 3.88998 51.7 3.56998 51.32 3.55998C50.88 3.54998 50.43 3.53998 49.99 3.53998C49.49 3.53998 48.97 3.54998 48.46 3.55998C48.07 3.56998 47.77 3.89998 47.78 4.28998C47.8 4.65998 48.12 4.95998 48.49 4.95998Z" fill="#FF4815"/>
<path d="M82.26 18.53C82.4 18.67 82.58 18.74 82.76 18.74C82.94 18.74 83.12 18.67 83.25 18.54C83.53 18.27 83.53 17.82 83.26 17.54C82.59 16.86 81.91 16.2 81.2 15.55C80.91 15.29 80.47 15.31 80.2 15.6C79.94 15.89 79.96 16.33 80.25 16.6C80.95 17.22 81.61 17.86 82.26 18.53Z" fill="#FF4815"/>
<path d="M6.14998 36.81C6.21998 36.83 6.28997 36.84 6.35997 36.84C6.65997 36.84 6.93998 36.65 7.02998 36.35C7.30998 35.46 7.62 34.59 7.95 33.73C8.09 33.37 7.90997 32.96 7.54997 32.82C7.18997 32.68 6.78 32.86 6.64 33.22C6.3 34.11 5.97999 35.01 5.68999 35.92C5.56999 36.3 5.77998 36.7 6.14998 36.81Z" fill="#FF4815"/>
<path d="M8.68999 30.25C8.78999 30.3 8.89999 30.32 8.99999 30.32C9.25999 30.32 9.50999 30.18 9.62999 29.93C10.04 29.1 10.48 28.29 10.94 27.49C11.14 27.15 11.02 26.72 10.68 26.53C10.34 26.33 9.90999 26.45 9.71999 26.79C9.23999 27.62 8.78997 28.46 8.35997 29.31C8.19997 29.65 8.33999 30.07 8.68999 30.25Z" fill="#FF4815"/>
<path d="M12.62 24.28C12.84 24.28 13.06 24.18 13.19 23.98C13.73 23.23 14.28 22.49 14.86 21.77C15.1 21.47 15.06 21.02 14.75 20.78C14.45 20.54 14 20.59 13.76 20.89C13.16 21.63 12.59 22.39 12.04 23.17C11.82 23.49 11.89 23.93 12.21 24.15C12.33 24.24 12.48 24.28 12.62 24.28Z" fill="#FF4815"/>
<path d="M17.11 18.87C17.29 18.87 17.48 18.8 17.62 18.66C18.26 18 18.93 17.35 19.61 16.73C19.9 16.47 19.92 16.02 19.65 15.74C19.39 15.45 18.94 15.44 18.65 15.7C17.95 16.34 17.26 17.01 16.6 17.69C16.33 17.97 16.34 18.41 16.62 18.69C16.76 18.8 16.93 18.87 17.11 18.87Z" fill="#FF4815"/>
<path d="M4.23003 50.71C4.62003 50.71 4.93001 50.39 4.93001 50.01C4.93001 49.08 4.96002 48.15 5.01002 47.24C5.03002 46.85 4.74002 46.52 4.35002 46.5C3.96002 46.48 3.63 46.77 3.61 47.16C3.55 48.1 3.53001 49.06 3.53001 50.02C3.52001 50.39 3.84003 50.71 4.23003 50.71Z" fill="#FF4815"/>
<path d="M34.71 7.54999C34.79 7.54999 34.87 7.53999 34.95 7.50999C35.82 7.19999 36.7 6.92 37.59 6.67C37.96 6.56 38.18 6.16999 38.07 5.79999C37.96 5.42999 37.58 5.20999 37.2 5.31999C36.28 5.57999 35.37 5.86999 34.48 6.18999C34.11 6.31999 33.92 6.72 34.05 7.09C34.15 7.37 34.42 7.54999 34.71 7.54999Z" fill="#FF4815"/>
<path d="M41.5 5.71999C41.54 5.71999 41.59 5.72 41.63 5.71C42.53 5.54 43.45 5.4 44.37 5.28C44.76 5.23 45.03 4.87999 44.98 4.48999C44.93 4.09999 44.57 3.81999 44.19 3.87999C43.24 3.99999 42.3 4.15 41.36 4.32C40.98 4.39 40.73 4.76 40.8 5.14C40.87 5.48 41.17 5.71999 41.5 5.71999Z" fill="#FF4815"/>
<path d="M22.38 14.2C22.53 14.2 22.68 14.15 22.8 14.06C23.54 13.5 24.29 12.97 25.06 12.45C25.38 12.23 25.47 11.8 25.26 11.47C25.04 11.14 24.6 11.06 24.28 11.27C23.49 11.8 22.71 12.35 21.95 12.93C21.64 13.16 21.58 13.61 21.81 13.92C21.95 14.11 22.16 14.2 22.38 14.2Z" fill="#FF4815"/>
<path d="M28.29 10.4C28.4 10.4 28.52 10.37 28.62 10.31C29.43 9.86998 30.26 9.45997 31.1 9.06997C31.45 8.90997 31.61 8.48997 31.44 8.12997C31.28 7.77997 30.86 7.61998 30.51 7.78998C29.65 8.18998 28.79 8.61997 27.96 9.06997C27.62 9.24997 27.49 9.67997 27.67 10.02C27.8 10.27 28.04 10.4 28.29 10.4Z" fill="#FF4815"/>
<path d="M4.64999 43.69C4.68999 43.7 4.72001 43.7 4.76001 43.7C5.10001 43.7 5.40001 43.45 5.45001 43.1C5.59001 42.18 5.76001 41.27 5.95001 40.37C6.03001 39.99 5.79 39.62 5.41 39.53C5.02 39.45 4.66 39.69 4.57 40.07C4.37 41 4.18998 41.93 4.04998 42.88C4.00998 43.27 4.26999 43.63 4.64999 43.69Z" fill="#FF4815"/>
<path d="M73.94 88.19C73.16 88.68 72.36 89.15 71.55 89.59C71.21 89.78 71.08 90.2 71.27 90.55C71.4 90.78 71.64 90.92 71.89 90.92C72 90.92 72.12 90.89 72.23 90.83C73.07 90.37 73.89 89.89 74.69 89.39C75.02 89.18 75.12 88.75 74.91 88.42C74.71 88.09 74.27 87.99 73.94 88.19Z" fill="#FF4815"/>
<path d="M92.52 66.99C92.16 66.84 91.75 67.01 91.6 67.37C91.24 68.23 90.86 69.07 90.45 69.9C90.28 70.25 90.42 70.67 90.77 70.84C90.87 70.89 90.98 70.91 91.08 70.91C91.34 70.91 91.59 70.77 91.71 70.52C92.13 69.67 92.53 68.8 92.9 67.91C93.05 67.55 92.88 67.14 92.52 66.99Z" fill="#FF4815"/>
<path d="M95.66 53.32C95.29 53.29 94.93 53.57 94.9 53.96C94.82 54.89 94.71 55.8 94.58 56.71C94.52 57.09 94.79 57.45 95.17 57.51C95.2 57.51 95.24 57.52 95.27 57.52C95.61 57.52 95.91 57.27 95.96 56.92C96.1 55.98 96.21 55.04 96.29 54.08C96.34 53.69 96.05 53.35 95.66 53.32Z" fill="#FF4815"/>
<path d="M94.62 60.28C94.24 60.19 93.86 60.42 93.77 60.8C93.55 61.7 93.3 62.59 93.03 63.47C92.91 63.84 93.12 64.24 93.49 64.35C93.56 64.37 93.63 64.38 93.7 64.38C94 64.38 94.28 64.19 94.37 63.89C94.65 62.98 94.91 62.06 95.14 61.14C95.23 60.75 95 60.37 94.62 60.28Z" fill="#FF4815"/>
<path d="M84.38 79.15C83.78 79.86 83.16 80.54 82.52 81.21C82.25 81.49 82.26 81.94 82.54 82.21C82.68 82.34 82.85 82.41 83.03 82.41C83.22 82.41 83.4 82.34 83.54 82.19C84.2 81.5 84.84 80.79 85.45 80.07C85.7 79.77 85.67 79.33 85.37 79.08C85.08 78.82 84.63 78.85 84.38 79.15Z" fill="#FF4815"/>
<path d="M89.41 73.3C89.08 73.1 88.64 73.2 88.44 73.53C87.95 74.32 87.4501 75.09 86.9201 75.85C86.7001 76.17 86.77 76.61 87.09 76.83C87.21 76.92 87.35 76.96 87.49 76.96C87.71 76.96 87.93 76.86 88.07 76.66C88.62 75.88 89.1401 75.08 89.6401 74.27C89.8501 73.94 89.74 73.51 89.41 73.3Z" fill="#FF4815"/>
<path d="M79.51 84.07C78.81 84.67 78.1 85.26 77.36 85.82C77.05 86.06 76.99 86.5 77.23 86.81C77.37 86.99 77.58 87.09 77.79 87.09C77.94 87.09 78.09 87.04 78.22 86.94C78.98 86.36 79.72 85.76 80.44 85.14C80.73 84.88 80.77 84.44 80.51 84.15C80.25 83.85 79.8 83.82 79.51 84.07Z" fill="#FF4815"/>
<path d="M50 7.03998C26.31 7.03998 7.04001 26.31 7.04001 50C7.04001 73.69 26.31 92.96 50 92.96C73.69 92.96 92.96 73.69 92.96 50C92.96 26.32 73.69 7.03998 50 7.03998ZM50 91.55C27.09 91.55 8.45001 72.91 8.45001 50C8.45001 27.09 27.09 8.44998 50 8.44998C72.91 8.44998 91.55 27.09 91.55 50C91.55 72.91 72.91 91.55 50 91.55Z" fill="#FF4815"/>
<path d="M16.89 38.25C18.88 39.18 20.68 38.48 21.56 36.58C22.1 35.41 21.94 34.2 21.56 33.29L19.93 33.8C19.98 33.92 20.5 34.88 20.15 35.63C19.75 36.48 18.75 36.57 17.86 36.16C16.89 35.71 16.29 34.92 16.58 34.28C16.87 33.65 17.55 33.61 18.15 33.86L18.89 32.26L16.35 31.08L15.7 32.48L16.11 32.92C15.97 32.95 15.28 33.12 14.86 34.01C14.32 35.18 14.84 37.3 16.89 38.25Z" fill="#FF4815"/>
<path d="M19.36 28.8L21.97 32.49L21.56 33.02L22.58 33.81L24.49 31.33L23.47 30.54L23 31.15L22.6 30.58L23.83 28.98L24.49 29.23L23.92 29.97L24.94 30.76L27.35 27.63L26.33 26.84L25.91 27.39L20.41 25.35L18.1 28.35L19.11 29.13L19.36 28.8ZM22.68 28.55L21.89 29.57L20.6 27.76L22.68 28.55Z" fill="#FF4815"/>
<path d="M24.34 22.73L26.95 26.21L26.52 26.53L27.28 27.55L29.42 25.95L28.66 24.93L28.21 25.27L25.88 22.16L25.91 22.14C26.23 22.52 26.67 22.89 26.81 22.99L30.05 25.48L31.7 24.24L30.23 20.55C30.15 20.33 29.87 19.72 29.67 19.32L29.7 19.3L30.05 19.76L32.02 22.39L31.58 22.72L32.35 23.75L34.84 21.88L34.07 20.85L33.64 21.18L31.04 17.71L31.47 17.38L30.71 16.36L27.71 18.61L29.16 22.13L26.15 19.78L23.16 22.02L23.92 23.04L24.34 22.73Z" fill="#FF4815"/>
<path d="M33.35 16.65L35.03 20.61L34.52 20.82L35.03 22.02L37.96 20.78L37.45 19.58L36.9 19.81L36.31 18.4L37 18.11C38.3 17.56 39.14 16.5 38.63 15.3C38.19 14.26 37.41 13.52 35.3 14.42L32.35 15.67L32.85 16.86L33.35 16.65ZM35.66 15.66C36.19 15.44 36.63 15.59 36.86 16.13C37.06 16.61 36.81 17.04 36.29 17.26L35.88 17.43L35.21 15.85L35.66 15.66Z" fill="#FF4815"/>
<path d="M39.9 14.19L40.94 18.34L40.34 18.5L40.66 19.77L43.83 18.97L43.51 17.7L42.92 17.85L41.88 13.7L42.47 13.55L42.15 12.28L38.98 13.08L39.29 14.35L39.9 14.19Z" fill="#FF4815"/>
<path d="M44.19 13.1L44.49 17.44L43.91 17.48L44 18.75L47.02 18.54L46.94 17.27L46.18 17.32L46 14.84L48.78 18.42L50.89 18.27L50.5 12.66L51.15 12.61L51.06 11.34L48.1 11.55L48.19 12.82L48.86 12.77L49.02 15.11L46.36 11.67L43.53 11.87L43.62 13.14L44.19 13.1Z" fill="#FF4815"/>
<path d="M54.62 18.83C55.37 18.95 56.03 18.71 56.3 18.39L56.5 19.05L58.45 19.37L58.85 16.94L59.24 17L59.41 15.96L56.18 15.42L56.01 16.46L56.6 16.56L56.53 16.97C56.34 17.2 56.07 17.38 55.52 17.29C54.67 17.15 54.32 16.27 54.48 15.28C54.64 14.31 55.33 13.54 56.12 13.67C56.7 13.77 57.13 14.3 57.03 15.09L58.77 15.38L59.25 12.51L57.8 12.27L57.48 12.94C57.35 12.76 57.13 12.04 55.72 11.81C54.2 11.56 52.49 12.78 52.14 14.9C51.78 17 52.91 18.55 54.62 18.83Z" fill="#FF4815"/>
<path d="M64.37 20.4L63.69 20.05L64.18 19.55L65.98 20.47L65.86 21.16L65.03 20.73L64.44 21.88L67.96 23.69L68.55 22.54L67.94 22.22L68.95 16.44L65.58 14.71L65 15.84L65.36 16.03L62.19 19.27L61.59 18.96L61 20.11L63.79 21.55L64.37 20.4ZM66.59 17.06L66.19 19.25L65.04 18.66L66.59 17.06Z" fill="#FF4815"/>
<path d="M68.8 22.8L67.95 23.79L70.37 25.86L71.21 24.87L70.75 24.48L71.74 23.32C72.41 23.89 72.35 24.13 71.77 24.81C71.02 25.69 71.05 26.61 72.03 27.45C72.86 28.16 73.62 27.81 74.15 27.19L74.5 26.78L74 26.35L73.79 26.6C73.66 26.75 73.52 26.79 73.41 26.69C73.28 26.57 73.39 26.35 73.67 26.03C74.13 25.49 74.05 24.64 73.6 24.13C74.3 24.57 75.12 24.56 75.62 23.97C76.35 23.12 76.6 22.14 74.86 20.65L72.42 18.57L71.58 19.55L72 19.91L69.21 23.18L68.8 22.8ZM73.57 21.2L73.95 21.52C74.38 21.89 74.44 22.33 74.06 22.77C73.72 23.17 73.26 23.13 72.82 22.76L72.48 22.47L73.57 21.2Z" fill="#FF4815"/>
<path d="M77.6 24.91L77.98 25.4L74.6 28.02L74.22 27.53L73.18 28.33L76.82 33.04L78.59 31.67L77.54 30.32L76.82 30.89L75.85 29.64L77.12 28.65L78.27 30.13L79.31 29.33L78.16 27.85L79.23 27.02L80.2 28.26L79.51 28.8L80.55 30.15L82.28 28.82L78.63 24.11L77.6 24.91Z" fill="#FF4815"/>
<path d="M78.39 33.09L78.11 32.48L76.94 33.03L78.27 35.87L79.44 35.32L79.11 34.62L79.81 34.52L80.67 36.35L80.15 36.82L79.75 35.97L78.58 36.52L80.26 40.1L81.43 39.55L81.14 38.93L85.47 34.97L83.86 31.55L82.71 32.09L82.88 32.46L78.39 33.09ZM81.58 35.52L81.03 34.35L83.23 34.02L81.58 35.52Z" fill="#FF4815"/>
<path d="M15.15 62.01L14.27 62.28L13.81 60.77L15.35 60.3L15.89 62.09L17.15 61.71L16.6 59.91L17.9 59.52L18.36 61.03L17.52 61.28L18.02 62.91L20.11 62.28L18.37 56.59L17.13 56.97L17.31 57.56L13.21 58.81L13.03 58.22L11.77 58.6L13.51 64.29L15.64 63.64L15.15 62.01Z" fill="#FF4815"/>
<path d="M19.68 65.45C19.98 65.29 20.33 65.55 20.46 65.8C20.79 66.41 20.69 67.11 20.05 67.45L20.89 69.02L23.07 67.85L22.27 66.36L21.49 66.66C21.95 65.96 21.79 65.1 21.4 64.37C20.94 63.52 19.71 62.62 18.42 63.31C16.21 64.5 18.28 67.68 17.61 68.04C17.25 68.24 16.94 67.84 16.78 67.54C16.6 67.17 16.33 66.37 17.06 65.98L16.19 64.37L14 65.54L14.82 67.06L15.54 66.8C15.33 67.34 15.25 68.17 15.72 69.04C16.28 70.07 17.44 71.08 18.8 70.35C20.84 69.26 18.78 65.93 19.68 65.45Z" fill="#FF4815"/>
<path d="M24.85 72.11L25.37 72.75L24.4 73.55L25.32 74.67L27.3 73.04L23.09 67.93L21.11 69.56L22.03 70.68L23.01 69.88L23.55 70.53L20.25 73.26L19.73 72.63L18.72 73.47L21.06 76.3L22.07 75.46L21.55 74.83L24.85 72.11Z" fill="#FF4815"/>
<path d="M31.34 76.25L28.36 73.92L27.58 74.92L27.9 75.17L24.18 77.75L23.65 77.34L22.85 78.36L25.32 80.29L26.12 79.27L25.51 78.8L26.09 78.4L27.68 79.65L27.43 80.31L26.69 79.73L25.89 80.75L29 83.19L29.8 82.17L29.26 81.74L31.34 76.25ZM28.12 78.49L27.1 77.69L28.92 76.41L28.12 78.49Z" fill="#FF4815"/>
<path d="M37.94 81.79C38.41 80.82 37.97 79.93 36.5 79.22L33.19 77.62L32.64 78.76L33.15 79.01L31.26 82.92L30.75 82.67L30.19 83.82L33.56 85.45C35.27 86.28 36.24 86.07 36.85 84.82C37.27 83.96 36.96 83.23 36.41 82.74C37.2 82.8 37.58 82.53 37.94 81.79ZM34.9 83.73C34.67 84.21 34.18 84.32 33.81 84.15L33.1 83.81L33.85 82.27L34.53 82.6C35.02 82.82 35.12 83.28 34.9 83.73ZM35.81 81.12C35.6 81.55 35.35 81.74 34.88 81.51L34.34 81.25L34.98 79.92L35.54 80.19C35.87 80.36 36 80.72 35.81 81.12Z" fill="#FF4815"/>
<path d="M41.13 86.72L39.9 86.38L41.03 82.25L41.53 82.39L41.88 81.13L38.87 80.31L38.53 81.57L39.05 81.71L37.92 85.84L37.4 85.7L37.05 86.97L42.38 88.42L43.06 85.95L41.46 85.51L41.13 86.72Z" fill="#FF4815"/>
<path d="M44.19 83.01L44.81 83.09L44.27 87.33L43.66 87.25L43.49 88.56L46.74 88.96L46.9 87.66L46.3 87.59L46.83 83.34L47.44 83.42L47.6 82.13L44.35 81.72L44.19 83.01Z" fill="#FF4815"/>
<path d="M50.35 84.02C50.34 83.67 50.73 83.49 51.02 83.48C51.71 83.46 52.29 83.86 52.32 84.59L54.11 84.54L54.04 82.06L52.34 82.11L52.26 82.94C51.84 82.21 51 81.97 50.17 81.99C49.2 82.02 47.84 82.72 47.88 84.18C47.95 86.7 51.73 86.26 51.75 87.03C51.76 87.44 51.27 87.54 50.93 87.55C50.51 87.54 49.68 87.43 49.66 86.6L47.83 86.65L47.9 89.14L49.63 89.09L49.72 88.33C50.11 88.76 50.81 89.21 51.81 89.18C52.98 89.15 54.41 88.55 54.37 87.01C54.27 84.69 50.37 85.04 50.35 84.02Z" fill="#FF4815"/>
<path d="M61.81 86L60.8 81.83L61.36 81.69L61.05 80.43L57.94 81.18L58.24 82.45L58.81 82.31L59.16 83.76L57.34 84.2L56.99 82.75L57.58 82.61L57.28 81.34L54.17 82.1L54.48 83.36L55 83.23L56.01 87.4L55.49 87.53L55.79 88.8L58.9 88.04L58.59 86.78L58 86.92L57.65 85.48L59.47 85.03L59.82 86.48L59.25 86.62L59.56 87.88L62.68 87.13L62.37 85.86L61.81 86Z" fill="#FF4815"/>
<path d="M68.84 76.07L66.42 77.86L66.41 77.83L61.03 80.37L61.59 81.55L62.15 81.28L63.98 85.15L63.42 85.41L63.98 86.6L69.36 84.06L68.41 82.05L66.87 82.78L67.26 83.61L65.83 84.28L65.14 82.83L66.83 82.03L66.27 80.84L64.58 81.64L64 80.41L65.43 79.74L65.81 80.53L67.35 79.8L66.43 77.86L67.2 78.91L67.69 78.55L70.24 81.99L69.75 82.35L70.53 83.4L72.92 81.63C74.87 80.19 75.2 78.34 73.86 76.53C72.73 75.02 70.76 74.65 68.84 76.07ZM72.16 80.56L71.86 80.78L69.31 77.34L69.61 77.12C70.45 76.5 71.39 77.04 72.02 77.89C72.76 78.88 72.99 79.92 72.16 80.56Z" fill="#FF4815"/>
<path d="M79.87 73.11L75.58 69.55L74.46 70.9C74.66 72 74.5 72.44 74.35 73.05L75.48 73.4L75.75 72.35L78.56 74.69L77.93 75.45L78.94 76.29L81.46 73.25L80.45 72.41L79.87 73.11Z" fill="#FF4815"/>
<path d="M81.58 65.7C79.86 64.74 78.22 65.21 77.43 66.62C76.64 68.02 77.12 69.41 78.25 70.09C79.4 70.78 80.71 70.35 81.32 69.24C81.57 68.78 81.6 68.3 81.51 67.95C82.26 68.39 82.4 69.04 82.04 69.67C81.73 70.18 81.21 70.46 80.87 70.64L81.62 71.87C82.34 71.62 83.16 70.85 83.49 70.28C84.75 68.03 82.88 66.43 81.58 65.7ZM80.24 68.3C79.94 68.81 79.41 68.72 79.08 68.53C78.67 68.3 78.56 67.76 78.81 67.32C79.14 66.78 79.81 66.96 80.23 67.21C80.32 67.45 80.46 67.89 80.24 68.3Z" fill="#FF4815"/>
<path d="M85.4201 61.18C84.7901 60.93 84.01 60.99 83.46 61.5C83.43 61.02 83.12 60.48 82.52 60.24C81.5 59.84 80.4101 60.3 79.8501 61.72C79.3001 63.1 79.7701 64.22 80.7901 64.62C81.2301 64.79 81.83 64.76 82.28 64.41C82.34 65.14 82.91 65.8 83.5 66.04C84.63 66.49 85.86 65.92 86.46 64.4C87.05 62.91 86.5501 61.62 85.4201 61.18ZM81.31 63.07C81.01 62.95 80.85 62.54 80.99 62.18C81.14 61.81 81.51 61.59 81.84 61.72C82.12 61.83 82.25 62.13 82.27 62.4C82.14 62.7 81.81 63.27 81.31 63.07ZM85.16 63.87C84.98 64.33 84.5001 64.6 84.0701 64.43C83.7301 64.3 83.51 63.91 83.46 63.57C83.65 63.15 84.1 62.47 84.74 62.73C85.25 62.93 85.34 63.42 85.16 63.87Z" fill="#FF4815"/>
<path d="M81.3 57C81.01 58.58 81.9101 59.74 83.2001 60.02C84.5101 60.3 85.62 59.48 85.83 58.23C85.92 57.72 85.79 57.25 85.59 56.95C86.44 57.12 86.7801 57.69 86.6401 58.41C86.5101 59 86.11 59.42 85.85 59.71L86.96 60.64C87.56 60.18 88.09 59.18 88.21 58.53C88.68 55.98 86.4 55.07 84.93 54.8C82.99 54.43 81.59 55.41 81.3 57ZM84.5 57.68C84.38 58.26 83.85 58.35 83.47 58.27C83.01 58.18 82.73 57.71 82.83 57.21C82.96 56.59 83.6601 56.54 84.1401 56.65C84.3001 56.85 84.58 57.23 84.5 57.68Z" fill="#FF4815"/>
<path d="M50 0C22.43 0 0 22.43 0 50C0 77.57 22.43 100 50 100C77.57 100 100 77.57 100 50C100 22.43 77.57 0 50 0ZM50 98.59C23.21 98.59 1.41 76.79 1.41 50C1.41 23.21 23.21 1.40999 50 1.40999C76.79 1.40999 98.59 23.21 98.59 50C98.59 76.79 76.79 98.59 50 98.59Z" fill="#FF4815"/>
</svg>
