<svg width="101" height="78" viewBox="0 0 101 78" fill="none" xmlns="http://www.w3.org/2000/svg">
<path d="M10.11 20.8414C10.11 20.5514 10.11 20.3514 10.11 20.3414C10.11 20.3414 10.12 19.4614 10.2 18.5814C10.27 17.7114 10.41 16.8414 10.41 16.8414L10.45 16.6114C10.79 16.8914 11.24 17.2514 11.71 17.5914C12.17 17.9314 12.63 18.2414 12.99 18.4714C12.96 18.7914 12.95 19.1014 12.97 19.3414H12.94C12.94 19.3414 12.89 20.0814 12.89 20.8414H14.2C14.2 20.2314 14.23 19.6414 14.24 19.4714C14.24 19.4314 14.24 19.3814 14.23 19.3414C14.23 19.0514 14.5 17.0414 14.59 16.6314C14.6 16.6014 14.62 16.5614 14.63 16.5214L14.87 15.5414C14.88 15.5114 14.88 15.4714 14.89 15.4414C14.99 15.0614 15.6 13.3814 15.77 13.0114C15.8 12.9714 15.82 12.9314 15.84 12.8914C15.84 12.8914 16.14 12.2614 16.5 11.7014C16.84 11.1514 17.25 10.6814 17.25 10.6814C17.26 10.6614 17.28 10.6514 17.29 10.6314C17.38 10.5314 17.64 10.2614 17.74 10.1614C17.75 10.1514 17.77 10.1314 17.79 10.1214C17.93 9.99139 18.07 9.89139 18.17 9.81139L18.32 9.72139L18.84 9.73139C18.85 9.73139 19.52 9.77139 20.18 9.88139L35.12 12.9414V11.2914L34.9 11.5514L30.53 10.6514L32.58 8.22139L35.12 8.74139V7.20139L33.43 6.85139L35.12 4.81139V3.01139L23.21 0.561389C22.81 0.471389 22.37 0.391388 22.01 0.341388L20.89 0.161389C20.88 0.161389 20.73 0.141389 20.72 0.141389L19.62 0.0413882C19.12 -0.0186118 18.6 0.00138846 18.21 0.0113885L17.61 0.0313884C17.44 0.0213884 17.19 0.0413886 16.84 0.0813886L15.42 0.421388C14.95 0.501388 14.56 0.721389 14.19 0.931389L13.93 1.07139C12.84 1.65139 12.34 1.99139 12.12 2.22139L10.65 3.52139C9.96999 4.22139 9.39999 4.98139 9.39999 4.99139C9.00999 5.46139 8.73 5.80139 8.59 6.06139L7.67 7.63139C7.41 8.06139 7.17 8.48139 7.06 8.81139L6.12999 11.0414C5.84999 11.9014 5.62 12.7714 5.62 12.7714L5.31 13.8814C5.31 13.8814 5.22 14.1414 5.17 14.5214L4.68999 17.5314L4.53 20.4714C4.52 20.6014 4.50999 20.7014 4.50999 20.8014H10.11V20.8414ZM27.97 2.90139L32.25 3.78139L30.23 6.21139L25.95 5.33139L27.97 2.90139ZM29.32 7.57139L27.27 10.0014L22.9 9.10139L24.95 6.67139L29.32 7.57139ZM19.44 2.78139C19.74 2.30139 20.07 1.82139 20.33 1.46139L20.72 1.49139L21.83 1.67139C22.17 1.72139 22.58 1.80139 22.96 1.88139L24.76 2.25139L22.74 4.68139L21.84 4.49139L20.33 4.25139C19.61 4.20139 18.9 4.13139 18.82 4.13139H18.69C18.86 3.75139 19.12 3.25139 19.44 2.78139ZM16.95 5.82139L17.25 5.76139C17.35 5.74139 17.44 5.72139 17.53 5.69139L17.74 5.65139C17.86 5.63139 18.75 5.59139 19.68 5.69139C20.57 5.77139 21.46 5.96139 21.47 5.96139L21.67 6.00139C21.39 6.34139 21.02 6.78139 20.65 7.22139C20.29 7.67139 19.97 8.14139 19.73 8.50139C19.28 8.45139 18.92 8.43139 18.89 8.43139L18.08 8.42139C17.94 8.43139 17.82 8.47139 17.72 8.55139L17.44 8.72139C17.27 8.84139 17.1 8.97139 16.93 9.12139C16.89 9.15139 16.83 9.19139 16.77 9.24139C16.63 8.85139 16.48 8.32139 16.39 7.76139C16.3 7.20139 16.28 6.60139 16.32 6.14139C16.36 6.12139 16.39 6.10139 16.43 6.07139C16.59 5.99139 16.78 5.90139 16.95 5.82139ZM13.03 3.19139L13.04 3.20139C13.15 3.11139 13.8 2.68139 14.56 2.28139L14.85 2.12139C15.15 1.95139 15.41 1.80139 15.71 1.75139L16.64 1.53139C16.46 1.96139 16.26 2.53139 16.18 3.07139C16.08 3.58139 16.09 4.18139 16.11 4.61139C15.92 4.71139 15.74 4.82139 15.58 4.92139C15.29 5.01139 14.97 5.27139 14.62 5.56139C13.84 6.19139 13.37 6.59139 13.17 6.91139L13.13 6.95139C12.96 6.55139 12.75 6.02139 12.58 5.47139C12.42 4.94139 12.3 4.38139 12.21 3.95139C12.64 3.56139 12.89 3.34139 13.03 3.19139ZM12.44 10.5814C12.85 9.79139 13.38 9.02139 13.38 9.02139L13.52 8.84139C13.69 9.25139 13.94 9.78139 14.22 10.2814C14.5 10.7814 14.81 11.2614 15.05 11.6114C14.83 12.0114 14.67 12.3314 14.67 12.3514C14.44 12.8014 13.7 14.3414 13.64 15.2614L13.61 15.2514L13.57 15.4214C13.25 15.1414 12.82 14.7514 12.42 14.3414C12.01 13.9314 11.62 13.5014 11.33 13.1714C11.51 12.6514 11.67 12.2514 11.67 12.2514C11.68 12.2214 12.01 11.3814 12.44 10.5814ZM8.28999 9.33139C8.37999 9.07139 8.6 8.70139 8.81 8.34139L9.5 7.16139C9.59 7.01139 9.67999 6.86139 9.73999 6.72139H9.75C9.77 6.69139 9.79 6.65139 9.83 6.61139C10.02 7.01139 10.31 7.54139 10.6 8.04139C10.89 8.55139 11.2 9.02139 11.43 9.37139L11.08 9.98139C10.97 10.1314 10.87 10.3714 10.7 10.8014L10 12.4614C9.9 12.7514 9.84999 12.9514 9.84999 12.9514L9.81 13.1014C9.5 12.8014 9.09 12.3914 8.7 11.9614C8.33 11.5514 7.95999 11.1014 7.68999 10.7614L8.28999 9.33139ZM5.98999 17.7114L6.47 14.7614C6.5 14.5214 6.54999 14.3614 6.56999 14.3114L6.62999 14.0914C6.93999 14.3914 7.35999 14.7714 7.81999 15.1414C8.26999 15.5114 8.72999 15.8614 9.06999 16.1214L8.86 17.3814C8.77 17.7714 8.73999 18.2314 8.73999 18.5314L8.65999 20.0414C8.65999 20.1214 8.64999 20.1814 8.64999 20.2514C8.27999 20.0514 7.78999 19.7714 7.29999 19.4814C6.80999 19.1914 6.32 18.8714 5.95 18.6314L5.98999 17.7114Z" fill="#FF4815"/>
<path d="M66.16 11.3514L64.88 11.6114V12.9314L79.17 10.0114C79.87 9.86139 80.55 9.79139 80.58 9.78139C80.93 9.73139 81.43 9.72139 81.7 9.73139C81.75 9.76139 81.8 9.79139 81.84 9.82139C81.87 9.84139 81.9 9.86139 81.93 9.88139C82.04 9.96139 82.27 10.1714 82.35 10.2514C82.36 10.2714 82.38 10.2814 82.39 10.3014C82.43 10.3414 82.82 10.7314 83.17 11.2214C83.54 11.7314 83.86 12.3414 83.86 12.3414C83.87 12.3514 84.19 12.9514 84.45 13.6114C84.72 14.2514 84.92 14.9314 84.92 14.9314L85.19 15.9014C85.2 15.9314 85.21 15.9614 85.23 15.9914C85.33 16.3714 85.64 18.2614 85.68 18.6514C85.67 18.7314 85.68 18.8014 85.7 18.8714C85.73 19.1214 85.76 20.1014 85.78 20.8314H89.69C89.34 20.6314 88.92 20.3914 88.48 20.1714C87.97 19.9114 87.45 19.6714 87.06 19.4914C87.04 19.1914 87.02 18.9114 86.98 18.6814C86.96 18.0614 86.7 16.2614 86.45 15.5314H86.47L86.42 15.3714C86.84 15.4614 87.39 15.5914 87.95 15.7514C88.5 15.9114 89.05 16.0914 89.47 16.2414C89.55 16.6114 89.61 16.9214 89.63 17.0614C89.62 17.1414 89.63 17.2314 89.66 17.3114C89.73 17.7214 89.9 20.1414 89.9 20.5914C89.89 20.6314 89.89 20.6714 89.89 20.7014V20.8214H91.41C91.41 20.7414 91.41 20.6614 91.4 20.5714L91.26 18.0114H91.25C91.25 17.9514 91.23 17.8614 91.23 17.7914C91.64 17.9414 92.16 18.1414 92.68 18.3714C93.2 18.5914 93.72 18.8414 94.11 19.0314L94.16 19.9914C94.16 20.0514 94.17 20.1014 94.19 20.1514C94.2 20.2714 94.19 20.5114 94.19 20.8214H95.51C95.52 20.3014 95.51 20.0114 95.47 19.8314L95.38 18.1814C95.36 17.6314 95.32 17.1914 95.25 16.8914L94.97 15.2214C94.97 15.1814 94.87 14.2614 94.57 13.3814L94.08 11.6614L93.1 9.14139C92.81 8.43139 92.73 8.24139 92.64 8.13139L91.76 6.63139C91.71 6.55139 91.66 6.46139 91.61 6.37139C91.46 6.11139 91.28 5.79139 91.03 5.52139L89.93 4.15139C89.85 4.00139 89.73 3.88139 89.62 3.76139C88.1 2.24139 87.23 1.63139 86.71 1.44139L85.64 0.841389C85.16 0.481389 83.22 0.101389 83.13 0.0913887C82.11 0.0113887 81.13 0.00138855 81.12 0.00138855C81.12 0.00138855 80.86 0.00138851 80.49 0.0413885L79.19 0.151389L77.38 0.441389L64.89 3.01139V4.66139L64.99 4.33139L69.27 3.45139L68.37 6.51139L64.89 7.22139V8.73139L67.09 8.28139L66.16 11.3514ZM86.97 12.5814C86.39 12.5114 85.83 12.4914 85.4 12.4814C85.2 12.0614 85.03 11.7414 85.03 11.7314C85.01 11.7014 84.66 11.0514 84.24 10.4614C83.87 9.93139 83.46 9.51139 83.33 9.38139C83.28 9.32139 83.24 9.30139 83.2 9.25139C83.59 9.09139 84.11 8.90139 84.68 8.78139C85.24 8.65139 85.82 8.57139 86.27 8.52139C86.62 8.98139 86.85 9.35139 86.86 9.36139C86.86 9.37139 87.37 10.1514 87.76 10.9614C88.16 11.7614 88.47 12.6014 88.47 12.6014C88.5 12.6914 88.52 12.7514 88.55 12.8214C88.11 12.7314 87.54 12.6414 86.97 12.5814ZM92.52 11.1914L92.67 11.5414L93.32 13.8014C93.57 14.5714 93.66 15.3814 93.67 15.4314L93.71 15.6514C93.3 15.5114 92.76 15.3314 92.22 15.1714C91.69 15.0014 91.13 14.8614 90.7 14.7714C90.58 14.3114 90.46 13.9614 90.46 13.9614L90.02 12.4414L89.45 11.0914C89.42 11.0114 89.4 10.9614 89.37 10.9014C89.79 10.9214 90.35 10.9514 90.92 11.0114C91.5 11.0414 92.08 11.1214 92.52 11.1914ZM86.64 4.75139C87.17 4.54139 87.73 4.36139 88.17 4.23139C88.37 4.41139 88.55 4.58139 88.69 4.71139C88.72 4.74139 88.74 4.77139 88.76 4.79139C88.78 4.83139 88.81 4.87139 88.84 4.91139L90.04 6.39139C90.21 6.58139 90.35 6.82139 90.47 7.04139C90.54 7.16139 90.6 7.27139 90.65 7.34139L91.04 8.02139C90.6 8.02139 90.02 8.03139 89.45 8.07139C88.88 8.11139 88.32 8.16139 87.91 8.22139C87.84 8.11139 87.76 8.00139 87.68 7.92139L87.42 7.60139C87.42 7.60139 86.97 7.00139 86.43 6.42139L85.47 5.58139C85.45 5.56139 85.44 5.54139 85.42 5.52139C85.42 5.52139 85.34 5.46139 85.25 5.38139C85.61 5.20139 86.11 4.96139 86.64 4.75139ZM79.53 2.87139C79.74 2.35139 79.97 1.82139 80.16 1.42139L80.6 1.38139C80.9 1.35139 81.11 1.35139 81.11 1.35139C81.12 1.35139 82.05 1.36139 82.94 1.42139C83.8 1.59139 84.57 1.82139 84.82 1.92139C84.84 1.94139 84.87 1.96139 84.9 1.97139L85.14 2.11139C84.77 2.35139 84.31 2.63139 83.86 3.07139C83.41 3.48139 83.09 3.92139 82.87 4.25139C82.82 4.24139 82.76 4.23139 82.72 4.22139C82.66 4.20139 82.6 4.19139 82.54 4.19139L82.13 4.17139C82.07 4.17139 82.01 4.17139 81.96 4.19139V4.17139C81.7 4.15139 81.22 4.13139 80.68 4.18139L79.67 4.27139C79.38 4.30139 79.18 4.34139 79.18 4.35139L79.01 4.38139C79.14 3.95139 79.32 3.41139 79.53 2.87139ZM77.99 6.07139L78.93 5.88139C78.94 5.88139 79.82 5.71139 80.73 5.66139C81.21 5.63139 81.68 5.62139 82.05 5.64139C82.39 5.66139 82.68 5.71139 82.79 5.74139C82.82 5.75139 82.84 5.76139 82.87 5.77139C82.94 5.79139 83 5.83139 83.07 5.86139C82.49 6.17139 82.04 6.68139 81.8 7.18139C81.58 7.58139 81.39 8.00139 81.22 8.42139C80.85 8.43139 80.52 8.48139 80.41 8.49139C80.41 8.49139 79.66 8.57139 78.89 8.73139L77.06 9.11139L77.99 6.07139ZM72.47 2.82139L76.56 1.98139L76.75 1.95139L75.85 5.01139L71.57 5.88139L72.47 2.82139ZM70.35 7.64139L74.72 6.74139L73.8 9.77139L69.43 10.6714L70.35 7.64139Z" fill="#FF4815"/>
<path d="M39.08 20.8414V18.1814V17.1214V13.9314V10.7414V9.68139V10.2114L42.21 11.8314V13.9314V16.0814L39.08 14.4614V17.1214V17.6514L42.21 19.2714V20.8414H44.5V20.3114V18.1514L46.65 19.2614V20.8314H48.94V20.3014V18.1514L51.09 19.2614V20.8314H53.38V20.2914V18.1414L55.53 19.2514V20.8214H57.82V20.2914V18.1414L60.95 19.7614V20.3014V20.8314H62.26V20.3014V17.1114V16.0414V12.8614V9.67139V8.61139V5.42139V2.23139C62.26 1.88139 62.12 1.55139 61.88 1.30139C61.63 1.05139 61.3 0.921392 60.95 0.921392H56.85C56.79 0.921392 56.74 0.941392 56.69 0.951392C56.63 0.941392 56.57 0.911392 56.51 0.911392H52.41C52.35 0.911392 52.3 0.941392 52.24 0.941392C52.18 0.931392 52.13 0.911392 52.07 0.911392H47.97C47.91 0.911392 47.85 0.941392 47.8 0.941392C47.74 0.931392 47.69 0.911392 47.64 0.911392H43.54C43.48 0.911392 43.42 0.941392 43.36 0.941392C43.3 0.931392 43.25 0.911392 43.2 0.911392H39.1C38.75 0.911392 38.42 1.05139 38.17 1.29139C37.92 1.54139 37.78 1.87139 37.78 2.22139V3.28139V6.47139V9.66139V10.7214V13.9114V17.1014V18.1614V20.8214H39.08V20.8414ZM57.81 5.42139V3.27139L60.94 4.89139V5.42139V8.61139V9.14139L57.81 7.52139V5.42139ZM57.81 10.7114L60.94 12.3314V12.8614V16.0514V16.5814L57.81 14.9614V12.8614V10.7114ZM53.37 5.42139V3.27139L55.52 4.38139V6.48139V8.63139L53.37 7.52139V5.42139ZM53.37 10.7114L55.52 11.8214V13.9214V16.0714L53.37 14.9614V10.7114ZM48.93 5.42139V3.27139L51.08 4.38139V6.48139V8.63139L48.93 7.52139V5.42139ZM48.93 10.7114L51.08 11.8214V16.0714L48.93 14.9614V12.8614V10.7114ZM46.64 13.9314V16.0814L44.49 14.9714V12.8714V10.7214L46.64 11.8314V13.9314ZM44.49 5.42139V3.27139L46.64 4.38139V6.48139V8.63139L44.49 7.52139V5.42139ZM39.08 2.23139V2.76139L42.21 4.38139V6.48139V8.63139L39.08 7.01139V6.48139V3.29139V2.23139Z" fill="#FF4815"/>
<path d="M4.51999 56.9014C4.51999 57.0014 4.51999 57.1014 4.53999 57.2314L4.7 60.1714L5.17999 63.1814C5.22999 63.5614 5.31999 63.8214 5.31999 63.8214L5.62999 64.9314C5.62999 64.9314 5.86 65.8014 6.14 66.6614L7.06999 68.8914C7.18999 69.2214 7.42999 69.6414 7.67999 70.0714L8.59999 71.6414C8.73999 71.9014 9.01999 72.2414 9.40999 72.7114C9.40999 72.7114 9.96999 73.4714 10.66 74.1814L12.13 75.4814C12.36 75.7114 12.85 76.0514 13.94 76.6314L14.2 76.7814C14.57 76.9914 14.96 77.2114 15.43 77.2914L16.85 77.6314C17.21 77.6714 17.45 77.6914 17.62 77.6814L18.22 77.7014C18.6 77.7114 19.13 77.7314 19.63 77.6714L20.73 77.5714C20.74 77.5714 20.89 77.5614 20.9 77.5514L22.02 77.3714C22.38 77.3114 22.82 77.2314 23.22 77.1514L35.13 74.7014V72.9014L33.44 70.8614L35.13 70.5114V68.9714L32.59 69.4914L30.54 67.0614L34.91 66.1614L35.13 66.4214V64.7714L20.19 67.8314C19.53 67.9414 18.86 67.9814 18.85 67.9814L18.33 67.9914L18.18 67.9014C18.07 67.8214 17.93 67.7214 17.8 67.5914C17.79 67.5814 17.77 67.5614 17.75 67.5514C17.65 67.4614 17.39 67.1814 17.3 67.0814C17.29 67.0614 17.27 67.0514 17.26 67.0314C17.26 67.0314 16.85 66.5514 16.51 66.0114C16.15 65.4514 15.86 64.8314 15.85 64.8214C15.83 64.7814 15.81 64.7414 15.78 64.7014C15.61 64.3314 14.99 62.6514 14.9 62.2714C14.9 62.2414 14.89 62.2014 14.88 62.1714L14.64 61.1914C14.63 61.1514 14.62 61.1214 14.6 61.0814C14.51 60.6714 14.24 58.6614 14.24 58.3714C14.25 58.3314 14.25 58.2814 14.25 58.2414C14.24 58.0714 14.21 57.4814 14.21 56.8714H12.9C12.9 57.6314 12.95 58.3714 12.95 58.3714H12.98C12.96 58.6214 12.97 58.9214 13 59.2414C12.64 59.4714 12.18 59.7814 11.72 60.1214C11.26 60.4614 10.8 60.8214 10.46 61.1014L10.42 60.8714C10.42 60.8714 10.28 60.0114 10.21 59.1314C10.13 58.2514 10.12 57.3714 10.12 57.3714C10.12 57.3614 10.12 57.1614 10.12 56.8714H4.51999V56.9014ZM25.95 72.4114L30.23 71.5314L32.25 73.9614L27.97 74.8414L25.95 72.4114ZM24.96 71.0714L22.91 68.6414L27.28 67.7414L29.33 70.1714L24.96 71.0714ZM18.68 73.6114H18.81C18.89 73.6114 19.6 73.5514 20.32 73.4914L21.83 73.2514L22.73 73.0614L24.75 75.4914L22.95 75.8614C22.57 75.9414 22.15 76.0214 21.82 76.0714L20.71 76.2514L20.32 76.2814C20.06 75.9214 19.73 75.4414 19.43 74.9614C19.12 74.5014 18.86 74.0014 18.68 73.6114ZM16.45 71.6714C16.41 71.6514 16.38 71.6314 16.34 71.6014C16.3 71.1314 16.32 70.5414 16.41 69.9814C16.5 69.4214 16.65 68.8914 16.79 68.5014C16.85 68.5514 16.91 68.5914 16.95 68.6214C17.12 68.7714 17.29 68.9014 17.46 69.0214L17.74 69.1914C17.84 69.2714 17.97 69.3114 18.1 69.3214L18.91 69.3114C18.94 69.3114 19.3 69.2914 19.75 69.2414C19.98 69.6014 20.31 70.0714 20.67 70.5214C21.04 70.9614 21.41 71.4114 21.69 71.7414L21.49 71.7814C21.48 71.7814 20.59 71.9714 19.7 72.0514C18.77 72.1514 17.88 72.1114 17.76 72.0914L17.55 72.0514C17.46 72.0214 17.36 71.9914 17.27 71.9814L16.97 71.9214C16.78 71.8414 16.59 71.7614 16.45 71.6714ZM12.22 73.8114C12.3 73.3814 12.43 72.8114 12.59 72.2914C12.75 71.7414 12.97 71.2114 13.14 70.8114L13.18 70.8514C13.38 71.1714 13.85 71.5714 14.63 72.2014C14.99 72.4914 15.3 72.7514 15.59 72.8414C15.75 72.9414 15.93 73.0514 16.12 73.1514C16.11 73.5814 16.1 74.1814 16.19 74.6914C16.27 75.2314 16.47 75.7914 16.65 76.2314L15.72 76.0114C15.42 75.9514 15.16 75.8114 14.86 75.6414L14.57 75.4814C13.81 75.0814 13.16 74.6514 13.05 74.5614L13.04 74.5714C12.89 74.4114 12.64 74.1814 12.22 73.8114ZM11.68 65.5214C11.68 65.5114 11.52 65.1114 11.34 64.6014C11.63 64.2614 12.02 63.8314 12.43 63.4314C12.84 63.0214 13.26 62.6314 13.58 62.3514L13.62 62.5214L13.65 62.5114C13.72 63.4314 14.45 64.9714 14.68 65.4214C14.69 65.4414 14.85 65.7614 15.06 66.1614C14.82 66.5114 14.51 66.9814 14.23 67.4914C13.94 67.9914 13.7 68.5114 13.53 68.9314L13.39 68.7514C13.39 68.7514 12.86 67.9814 12.45 67.1914C12.01 66.3614 11.68 65.5314 11.68 65.5214ZM7.67999 66.9714C7.94999 66.6314 8.30999 66.1914 8.68999 65.7714C9.07999 65.3414 9.48999 64.9414 9.79999 64.6314L9.84 64.7814C9.84 64.7814 9.88999 64.9914 9.98999 65.2714L10.69 66.9314C10.87 67.3614 10.97 67.6114 11.07 67.7514L11.42 68.3614C11.18 68.7114 10.88 69.1914 10.59 69.6914C10.3 70.1914 10.01 70.7214 9.81999 71.1214C9.78999 71.0814 9.75999 71.0414 9.73999 71.0114H9.73C9.67 70.8714 9.57999 70.7314 9.48999 70.5714L8.79999 69.3914C8.58999 69.0314 8.37 68.6614 8.28 68.4014L7.67999 66.9714ZM5.93999 59.1314C6.30999 58.8914 6.79999 58.5714 7.28999 58.2814C7.77999 57.9914 8.27 57.7114 8.64 57.5114C8.64 57.5814 8.64999 57.6414 8.64999 57.7214L8.73 59.2314C8.74 59.5314 8.76999 59.9914 8.84999 60.3814L9.06 61.6414C8.72 61.9014 8.26 62.2514 7.81 62.6214C7.35 62.9914 6.93 63.3714 6.62 63.6714L6.56 63.4514C6.54 63.4014 6.48999 63.2414 6.45999 63.0014L5.98 60.0514L5.93999 59.1314Z" fill="#FF4815"/>
<path d="M67.08 69.4314L64.88 68.9814V70.4914L68.36 71.2014L69.26 74.2614L64.98 73.3814L64.88 73.0514V74.7014L77.37 77.2714L79.18 77.5614L80.48 77.6714C80.84 77.7014 81.11 77.7114 81.11 77.7114C81.12 77.7114 82.1 77.7114 83.12 77.6314C83.21 77.6214 85.15 77.2414 85.63 76.8814L86.7 76.2814C87.22 76.0814 88.09 75.4814 89.61 73.9614C89.72 73.8514 89.84 73.7214 89.92 73.5714L91.02 72.2014C91.27 71.9314 91.45 71.6114 91.6 71.3514C91.65 71.2614 91.71 71.1714 91.75 71.0914L92.63 69.5914C92.72 69.4714 92.8 69.2814 93.09 68.5814L94.07 66.0614L94.56 64.3414C94.85 63.4614 94.95 62.5414 94.96 62.5014L95.24 60.8314C95.3 60.5314 95.35 60.0914 95.37 59.5414L95.46 57.8914C95.49 57.7114 95.51 57.4214 95.5 56.9014H94.18C94.19 57.2114 94.19 57.4514 94.18 57.5714C94.17 57.6214 94.16 57.6714 94.15 57.7314L94.1 58.6914C93.71 58.8814 93.19 59.1314 92.67 59.3514C92.16 59.5814 91.63 59.7914 91.22 59.9314C91.23 59.8614 91.24 59.7714 91.24 59.7114H91.25L91.39 57.1514C91.4 57.0614 91.4 56.9814 91.4 56.9014H89.88V57.0214C89.88 57.0614 89.88 57.1014 89.89 57.1314C89.89 57.5814 89.72 60.0014 89.65 60.4114C89.62 60.4914 89.61 60.5714 89.62 60.6614C89.6 60.8014 89.54 61.1114 89.46 61.4814C89.04 61.6314 88.49 61.8114 87.94 61.9714C87.38 62.1314 86.83 62.2614 86.41 62.3514L86.46 62.1914H86.44C86.69 61.4514 86.95 59.6614 86.97 59.0414C87.01 58.8214 87.04 58.5414 87.05 58.2314C87.44 58.0614 87.96 57.8214 88.47 57.5514C88.91 57.3314 89.32 57.1014 89.68 56.8914H85.77C85.76 57.6214 85.73 58.6014 85.69 58.8514C85.67 58.9214 85.66 59.0014 85.67 59.0714C85.64 59.4614 85.32 61.3514 85.22 61.7314C85.21 61.7614 85.19 61.7914 85.18 61.8214L84.91 62.7914C84.91 62.7914 84.71 63.4714 84.44 64.1114C84.17 64.7614 83.85 65.3714 83.85 65.3814C83.85 65.3914 83.53 65.9914 83.16 66.5014C82.81 66.9914 82.43 67.3814 82.38 67.4214C82.36 67.4414 82.35 67.4514 82.34 67.4714C82.26 67.5514 82.02 67.7514 81.92 67.8414C81.89 67.8614 81.86 67.8714 81.83 67.9014C81.79 67.9314 81.74 67.9614 81.69 67.9914C81.42 67.9914 80.92 67.9914 80.57 67.9414C80.53 67.9314 79.86 67.8614 79.16 67.7114L64.87 64.7914V66.1114L66.15 66.3714L67.08 69.4314ZM88.55 64.9414C88.53 65.0114 88.5 65.0714 88.47 65.1614C88.47 65.1614 88.16 66.0014 87.76 66.8014C87.37 67.6114 86.86 68.3914 86.86 68.4014C86.85 68.4114 86.62 68.7814 86.27 69.2414C85.82 69.1914 85.24 69.1114 84.68 68.9814C84.11 68.8614 83.59 68.6714 83.2 68.5114C83.24 68.4614 83.29 68.4314 83.33 68.3814C83.46 68.2514 83.87 67.8314 84.24 67.3014C84.66 66.7214 85.01 66.0614 85.03 66.0314C85.03 66.0314 85.2 65.7114 85.4 65.2814C85.83 65.2714 86.4 65.2414 86.97 65.1814C87.54 65.1114 88.11 65.0214 88.55 64.9414ZM90.93 66.7614C90.36 66.8214 89.8 66.8514 89.38 66.8714C89.41 66.8014 89.43 66.7514 89.46 66.6814L90.03 65.3314L90.47 63.8114C90.47 63.8114 90.59 63.4614 90.71 63.0014C91.14 62.9014 91.69 62.7714 92.23 62.6014C92.77 62.4414 93.31 62.2614 93.72 62.1214L93.68 62.3414C93.67 62.3814 93.58 63.2014 93.33 63.9714L92.68 66.2314L92.53 66.5814C92.08 66.6314 91.5 66.7114 90.93 66.7614ZM85.25 72.3614C85.35 72.2814 85.42 72.2214 85.42 72.2214C85.44 72.2014 85.46 72.1814 85.47 72.1614L86.43 71.3214C86.97 70.7514 87.42 70.1414 87.42 70.1414L87.68 69.8214C87.76 69.7414 87.83 69.6314 87.91 69.5214C88.32 69.5814 88.88 69.6314 89.45 69.6714C90.01 69.7114 90.59 69.7214 91.04 69.7214L90.65 70.4014C90.6 70.4714 90.54 70.5814 90.47 70.7014C90.34 70.9214 90.21 71.1614 90.04 71.3514L88.84 72.8314C88.81 72.8714 88.79 72.9114 88.76 72.9514C88.74 72.9714 88.72 73.0014 88.69 73.0314C88.56 73.1614 88.37 73.3314 88.17 73.5114C87.73 73.3814 87.17 73.2014 86.64 72.9914C86.11 72.7814 85.61 72.5514 85.25 72.3614ZM79.02 73.3814L79.19 73.4114C79.19 73.4114 79.4 73.4614 79.68 73.4914L80.69 73.5814C81.23 73.6314 81.71 73.6014 81.97 73.5914V73.5714C82.02 73.5814 82.08 73.5914 82.14 73.5914L82.55 73.5714C82.61 73.5714 82.67 73.5614 82.73 73.5414C82.77 73.5314 82.83 73.5214 82.88 73.5114C83.1 73.8514 83.43 74.2814 83.87 74.6914C84.32 75.1414 84.78 75.4214 85.15 75.6514L84.91 75.7914C84.88 75.8114 84.86 75.8214 84.83 75.8414C84.58 75.9414 83.81 76.1714 82.95 76.3414C82.05 76.4114 81.13 76.4114 81.12 76.4114C81.12 76.4114 80.91 76.4114 80.61 76.3814L80.17 76.3414C79.98 75.9414 79.74 75.4114 79.54 74.8914C79.32 74.3414 79.14 73.7914 79.02 73.3814ZM77.07 68.6414L78.9 69.0214C79.67 69.1914 80.42 69.2614 80.42 69.2614C80.53 69.2814 80.87 69.3214 81.23 69.3314C81.4 69.7514 81.58 70.1614 81.81 70.5714C82.05 71.0614 82.5 71.5814 83.08 71.8914C83.01 71.9214 82.95 71.9614 82.88 71.9814C82.85 71.9914 82.82 72.0014 82.8 72.0114C82.69 72.0414 82.4 72.0914 82.06 72.1114C81.68 72.1314 81.22 72.1314 80.74 72.0914C79.83 72.0314 78.95 71.8714 78.94 71.8714L78 71.6814L77.07 68.6414ZM71.57 71.8614L75.85 72.7314L76.75 75.7914L76.56 75.7614L72.47 74.9214L71.57 71.8614ZM69.43 67.0714L73.8 67.9714L74.72 71.0014L70.35 70.1014L69.43 67.0714Z" fill="#FF4815"/>
<path d="M37.76 56.9014V59.5614V60.6214V63.8114V67.0014V68.0614V71.2514V74.4414V75.5014C37.76 75.8514 37.9 76.1814 38.15 76.4314C38.4 76.6814 38.73 76.8114 39.08 76.8114H43.18C43.24 76.8114 43.29 76.7914 43.34 76.7814C43.4 76.7914 43.46 76.8214 43.52 76.8114H47.62C47.68 76.8114 47.73 76.7814 47.78 76.7814C47.84 76.7914 47.89 76.8114 47.95 76.8114H52.05C52.11 76.8114 52.16 76.7814 52.22 76.7814C52.28 76.7914 52.33 76.8114 52.39 76.8114H56.49C56.55 76.8114 56.61 76.7814 56.67 76.7714C56.72 76.7814 56.77 76.8014 56.83 76.8014H60.93C61.28 76.8014 61.61 76.6614 61.86 76.4214C62.11 76.1714 62.24 75.8414 62.24 75.4914V72.3014V69.1114V68.0514V64.8614V61.6814V60.6114V57.4214V56.8914H60.93V57.4214V57.9614L57.8 59.5814V57.4314V56.9014H55.51V58.4714L53.36 59.5814V57.4314V56.8914H51.07V58.4614L48.92 59.5714V57.4214V56.8914H46.63V58.4614L44.48 59.5714V57.4214V56.8914H42.19V58.4614L39.06 60.0814V60.6114V63.2714L42.19 61.6514V63.8014V65.9014L39.06 67.5214V68.0514V66.9914V63.8014V60.6114V59.5514V56.8914H37.76V56.9014ZM57.81 70.2214L60.94 68.6014V69.1314V72.3214V72.8514L57.81 74.4714V72.3214V70.2214ZM57.81 64.8814V62.7814L60.94 61.1614V61.6914V64.8814V65.4114L57.81 67.0314V64.8814ZM53.37 70.2214L55.52 69.1114V71.2614V73.3614L53.37 74.4714V72.3214V70.2214ZM53.37 62.7814L55.52 61.6714V63.8214V65.9214L53.37 67.0314V62.7814ZM48.93 70.2214L51.08 69.1114V71.2614V73.3614L48.93 74.4714V72.3214V70.2214ZM48.93 64.8814V62.7814L51.08 61.6714V65.9214L48.93 67.0314V64.8814ZM46.64 65.9214L44.49 67.0314V64.8814V62.7814L46.64 61.6714V63.8214V65.9214ZM44.49 70.2214L46.64 69.1114V71.2614V73.3614L44.49 74.4714V72.3214V70.2214ZM39.08 74.4514V71.2614V70.7314L42.21 69.1114V71.2614V73.3614L39.08 74.9814V75.5114V74.4514Z" fill="#FF4815"/>
<path d="M12.34 34.5114C11.06 35.9214 9.11 37.1614 6.64 37.1614C2.65 37.1614 0 34.6014 0 30.4114C0 26.0914 3.24999 23.4914 5.70999 23.4914C7.58999 23.4914 8.44 24.5414 8.61 24.7714L9.03999 23.7214H11.99V29.0614H8.62C8.55999 27.8414 7.95999 26.6914 6.62999 26.6914C5.27999 26.6914 4.39 28.3614 4.39 30.4114C4.39 32.2714 5.34999 33.9414 7.12999 33.9414C8.70999 33.9414 9.95 32.2914 10.12 32.1014L12.34 34.5114Z" fill="#FF4815"/>
<path d="M19.04 23.7214V26.2014H18.04V34.3614H20.47V31.9714H23.63V36.8614H13.1V34.3614H14.13V26.2014H13.1V23.7214H19.04Z" fill="#FF4815"/>
<path d="M30.82 23.7214V26.2014H29.65V34.3614H30.82V36.8614H24.58V34.3614H25.76V26.2014H24.58V23.7214H30.82Z" fill="#FF4815"/>
<path d="M44.81 27.0314C44.66 27.8814 44.4 29.1214 44.27 29.5514L42.3 36.8614H38.37L36.27 29.3614C36.18 29.0414 35.93 27.9714 35.88 27.0314H35.8V34.4414H36.87V36.8614H31.78V34.4414H32.79V26.1514H31.79V23.7314H38.92L40.82 30.7614L42.62 23.7314H49.78V26.1514H48.74V34.4214H49.78V36.8614H43.84V34.4214H44.89V28.1414V27.0314H44.81Z" fill="#FF4815"/>
<path d="M50.72 34.4214H51.81V26.1514H50.72V23.7314H57.73C60.85 23.7314 62.34 24.9014 62.34 26.9414C62.34 28.5214 61.91 29.2914 60.5 29.8514C61.85 30.2214 62.98 31.2214 62.98 33.0414C62.98 35.6914 61.49 36.8614 57.87 36.8614H50.73V34.4214H50.72ZM55.7 29.0214H56.85C57.85 29.0214 58.13 28.4814 58.13 27.5714C58.13 26.7114 57.6 26.2014 56.89 26.2014H55.71V29.0214H55.7ZM57.2 34.4214C57.99 34.4214 58.72 33.8214 58.72 32.8014C58.72 31.8414 58.18 31.1514 57.14 31.1514H55.69V34.4214H57.2Z" fill="#FF4815"/>
<path d="M69.88 23.7214V26.2014H68.71V34.3614H69.88V36.8614H63.64V34.3614H64.82V26.2014H63.64V23.7214H69.88Z" fill="#FF4815"/>
<path d="M83.98 26.1514V36.8714H79.94L75.15 29.7114V34.4514H76.6V36.8714H70.83V34.4514H71.94V26.1514H70.85V23.7314H76.24L80.85 30.6314V26.1514H79.57V23.7314H85.23V26.1514H83.98Z" fill="#FF4815"/>
<path d="M94.92 35.6814C94.51 36.3814 93.34 37.0314 91.89 37.0314C88.6 37.0314 85.99 34.4714 85.99 30.4114C85.99 26.3114 88.83 23.4914 91.76 23.4914C94.49 23.4914 95.12 24.7714 95.43 25.0714L95.83 23.7214H98.63V29.2614H95.27C95.21 27.7414 94.24 26.8714 93.13 26.8714C91.61 26.8714 90.56 28.5214 90.56 30.4014C90.56 32.3214 91.5 33.8614 93.13 33.8614C94.2 33.8614 94.65 33.4314 94.94 32.9414V32.1514H93.79V30.1514H100.01V32.1614H99.26V36.8614H95.5L94.92 35.6814Z" fill="#FF4815"/>
<path d="M9.50999 41.5814V45.0614H6.78V43.6614H4.25999V45.8314H7.25V47.9214H4.25999V50.4914H6.78V49.0314H9.50999V52.5914H0.00999451V50.5014H1V43.6614H0.00999451V41.5814H9.50999Z" fill="#FF4815"/>
<path d="M21.57 51.7314C21.57 53.1314 20.78 54.2514 19.21 54.2514C17.92 54.2514 17.11 53.4314 16.77 52.5014C16.39 52.5614 15.97 52.5914 15.54 52.5914C12.36 52.5914 10.15 50.7314 10.15 47.0114C10.15 43.8014 12.28 41.5314 15.44 41.5314C19.16 41.5314 20.83 43.7714 20.83 47.1214C20.83 48.7714 20.39 50.1114 19.52 51.0614C19.65 51.5514 19.82 52.0814 20.21 52.0814C20.49 52.0814 20.53 51.6414 20.53 51.3714V50.9114H21.57V51.7314ZM17.3 47.7414C17.32 47.5514 17.33 47.3514 17.33 47.1314C17.33 45.3214 16.59 43.8414 15.42 43.8414C14.47 43.8214 13.61 45.1814 13.61 47.0214C13.61 47.3314 13.63 47.6214 13.67 47.8914C14.03 47.5114 14.6 47.1314 15.53 47.1314C16.21 47.1314 16.79 47.3814 17.3 47.7414ZM16.37 49.8814C16.26 49.0914 16.07 48.5614 15.54 48.5614C15.02 48.5614 14.7 49.0814 14.48 49.7114C14.79 50.0614 15.16 50.2314 15.54 50.2314C15.83 50.2314 16.12 50.1114 16.37 49.8814Z" fill="#FF4815"/>
<path d="M27.05 41.5814V43.6114H26.2V47.0114C26.2 49.5514 26.77 50.0814 27.78 50.0814C28.74 50.0814 29.37 49.7014 29.37 46.9914V43.6514H28.52V41.5714H33.18V43.6014H32.33V47.4314C32.33 51.1614 30.77 52.8514 27.81 52.8514C24.63 52.7614 22.93 51.0914 22.93 47.5114V43.6214H22.05V41.5714H27.05V41.5814Z" fill="#FF4815"/>
<path d="M39.05 41.5814V43.6614H38.07V50.5014H39.05V52.5914H33.82V50.5014H34.81V43.6614H33.82V41.5814H39.05Z" fill="#FF4815"/>
<path d="M44.94 41.5814C48.6 41.5814 49.29 43.1614 49.29 44.9514C49.29 47.0314 47.4 48.0714 45.15 48.0714H43.95V50.5114H44.91V52.5914H39.84V50.5114H40.72V43.6514H39.84V41.5914H44.94V41.5814ZM43.95 46.3714H44.66C45.57 46.3714 46.2 45.9014 46.2 45.0614C46.2 44.1314 45.65 43.6314 44.74 43.6314H43.95V46.3714Z" fill="#FF4815"/>
<path d="M60.86 44.3614C60.73 45.0714 60.51 46.1114 60.4 46.4714L58.75 52.6014H55.46L53.7 46.3214C53.62 46.0514 53.41 45.1514 53.37 44.3714H53.31V50.5814H54.21V52.6114H49.94V50.5814H50.79V43.6314H49.96V41.6014H55.93L57.52 47.4914L59.03 41.6014H65.03V43.6314H64.16V50.5614H65.03V52.6114H60.05V50.5514H60.93V45.2914V44.3614H60.86Z" fill="#FF4815"/>
<path d="M75.31 41.5814V45.0614H72.58V43.6614H70.06V45.8314H73.05V47.9214H70.06V50.4914H72.58V49.0314H75.31V52.5914H65.81V50.5014H66.8V43.6614H65.81V41.5814H75.31Z" fill="#FF4815"/>
<path d="M87.13 43.6214V52.6014H83.74L79.72 46.6014V50.5714H80.93V52.6014H76.09V50.5714H77.02V43.6214H76.11V41.5914H80.63L84.49 47.3714V43.6214H83.42V41.5914H88.16V43.6214H87.13Z" fill="#FF4815"/>
<path d="M99.38 45.6814H97.06V43.6614H95.74V50.5014H97.05V52.5914H91.19V50.5014H92.48V43.6614H91.13V45.6814H88.81V41.5814H99.38V45.6814Z" fill="#FF4815"/>
</svg>
