<svg width="100" height="100" viewBox="0 0 100 100" fill="none" xmlns="http://www.w3.org/2000/svg">
<path d="M78.98 68.59L77.92 69.94L78.65 70.52L77.68 71.78L76.4 70.79L77.55 69.29L76.5 68.48L75.34 69.97L74.25 69.13L75.23 67.87L75.93 68.41L77 67.04L75.24 65.7L71.57 70.46L72.61 71.26L72.99 70.76L76.41 73.42L76.03 73.91L77.08 74.72L80.76 69.96L78.98 68.59Z" fill="white"/>
<path d="M68.66 24.99L68.19 24.59L67.32 25.59L70.11 28.02L70.98 27.03L70.21 26.36L71.05 25.4L72.48 26.64L73.35 25.64L71.92 24.4L73.06 23.09L74.19 24.08L73.61 24.75L74.94 25.9L76.38 24.25L71.89 20.33L71.03 21.33L71.5 21.73L68.66 24.99Z" fill="white"/>
<path d="M71.87 50.73H70.86V51.27H69.92V50.32H71.03V49.55H69.92V48.73H70.86V49.26H71.87V47.97H68.35V48.73H68.72V51.27H68.35V52.04H71.87V50.73Z" fill="white"/>
<path d="M64.15 23.99C66.13 25.06 67.88 24.45 68.96 22.47C70.03 20.5 69.73 18.68 67.58 17.51C65.77 16.53 63.8 17.14 62.78 19.03C61.58 21.23 62.31 22.99 64.15 23.99ZM64.93 20.2C65.53 19.12 66.31 18.55 66.84 18.85C67.52 19.22 67.34 20.23 66.77 21.28C66.19 22.36 65.45 22.91 64.89 22.61C64.33 22.31 64.32 21.36 64.93 20.2Z" fill="white"/>
<path d="M56.04 51.26L56.23 51.23L62.46 50L56.85 48.91L56.04 51.26Z" fill="white"/>
<path d="M53.9 54.85L56.74 56.74L54.79 53.84L53.9 54.85Z" fill="white"/>
<path d="M54.82 14.83L55.66 15L54.84 19.25L54.05 19.1L53.79 20.4L57.44 21.1L57.68 19.79L56.87 19.63L57.68 15.39L58.51 15.54L58.26 16.8L59.7 17.07L60.2 14.52L53.62 13.26L53.13 15.81L54.57 16.09L54.82 14.83Z" fill="white"/>
<path d="M50.8 58.41L49.5 59.9L50 62.47L50.8 58.41Z" fill="white"/>
<path d="M50.5 40.12L50 37.55L49.2 41.61L50.5 40.12Z" fill="white"/>
<path d="M52.21 18.92H51.6L51.67 14.59H52.29L52.31 13.28L49 13.22L48.98 14.53L49.6 14.55L49.53 18.88L48.9 18.86L48.88 20.19L52.19 20.26L52.21 18.92Z" fill="white"/>
<path d="M49.62 68.71C49.62 68.5 49.85 68.4 50.02 68.4C50.43 68.4 50.77 68.64 50.77 69.07H51.82V67.62H50.81L50.75 68.1C50.52 67.67 50.02 67.5 49.54 67.5C48.97 67.5 48.14 67.9 48.14 68.75C48.14 70.25 50.39 70.06 50.39 70.5C50.39 70.76 50.09 70.8 49.89 70.8C49.63 70.79 49.15 70.7 49.15 70.22H48.07V71.69H49.1L49.16 71.25C49.39 71.51 49.79 71.78 50.38 71.78C51.06 71.78 51.92 71.45 51.92 70.54C51.92 69.16 49.62 69.3 49.62 68.71Z" fill="white"/>
<path d="M49.56 31.54H49.1V30.07L50.6 32.3H51.85V28.96H52.24V28.21H50.49V28.96H50.88V30.36L49.45 28.22L47.78 28.21V28.96H48.11V31.54H47.76V32.3H49.56V31.54Z" fill="white"/>
<path d="M74.93 74.15L74.42 74.58L74.63 74.82C74.76 74.98 74.77 75.12 74.66 75.22C74.52 75.33 74.32 75.18 74.05 74.85C73.58 74.31 72.72 74.25 72.13 74.61C72.7 73.98 72.81 73.17 72.32 72.57C71.59 71.7 70.65 71.29 68.89 72.78L66.44 74.83L63.9 76.13L64.5 77.3L64.98 77.06L65.93 78.94C66.7 80.46 66.46 80.86 65.91 81.13C65.34 81.43 64.87 81.29 64.14 79.86L63.16 77.94L63.64 77.7L63.06 76.54L62.86 76.64L60.44 77.88L54 79.51V79.52L51.18 79.56L51.21 80.84L51.88 80.83L51.92 83.21L49.43 79.59L46.6 79.63L46.61 79.54L40.74 78.26L40.73 78.3L38.54 77.27L37.98 78.45L38.46 78.66L36.72 80.25C36.32 80.62 35.99 81 35.85 81.25L35.81 81.22C35.91 80.96 35.98 80.51 36.04 79.99L36.23 77.61L36.71 77.84L37.25 76.65L33.93 75.1L33.37 76.28L33.87 76.51V82.78L35.54 83.55L40.11 79.42L40.55 79.63L40.58 79.54L41.08 79.64L40.15 83.87L39.54 83.74L39.26 85.04L45.13 86.32L45.61 84.11L43.92 83.74L43.73 84.65L42.16 84.31L42.52 82.73L44.36 83.13L44.65 81.83L42.8 81.43L43.1 80.08L44.65 80.42L44.46 81.29L46.14 81.66L46.57 79.75L46.58 80.88H47.15L47.22 85.27L46.64 85.29L46.65 86.57L49.71 86.53L49.7 85.25L48.93 85.26L48.89 82.74L51.5 86.5L53.65 86.47L53.55 80.79L54.22 80.78L54.21 80.31L54.64 81.99L56.06 81.63L55.75 80.39L56.58 80.18L57.63 84.38L56.85 84.58L57.16 85.86L60.76 84.96L60.43 83.67L59.63 83.88L58.58 79.68L59.39 79.48L59.7 80.71L61.12 80.35L60.79 79.05L60.82 79.11L61.32 78.85L62.43 81.04C63.46 83.06 64.89 83.52 66.72 82.67C68.39 81.81 68.78 80.42 67.72 78.31L66.62 76.14L67.1 75.9L66.8 75.33L67.23 75.83L67.66 75.48L70.45 78.8L70.02 79.17L70.86 80.17L73.33 78.1L72.49 77.09L72.02 77.49L71.02 76.31C71.7 75.74 71.93 75.82 72.52 76.52C73.28 77.42 74.19 77.53 75.18 76.69C76.03 75.98 75.81 75.16 75.28 74.54L74.93 74.15ZM70.66 75.17L70.32 75.47L69.23 74.18L69.6 73.85C70.04 73.48 70.5 73.5 70.87 73.95C71.21 74.35 71.1 74.8 70.66 75.17Z" fill="white"/>
<path d="M46.1 45.17L43.26 43.27L45.21 46.18L46.1 45.17Z" fill="white"/>
<path d="M41.75 64.29L47.28 57.95L52.81 51.62L55.53 43.66L58.25 35.73L52.72 42.06L47.21 48.4L44.48 56.35L41.75 64.29ZM45.74 56.77L48.39 49.08L50 50.01L51.61 50.95L46.27 57.08L45.24 58.26L45.74 56.77Z" fill="white"/>
<path d="M43.96 48.75L43.78 48.79L37.54 50L43.16 51.1L43.96 48.75Z" fill="white"/>
<path d="M41.57 15.44L42.25 19.74L41.69 19.83L41.89 21.13L45.08 20.63L44.87 19.32L44.27 19.42L44.03 17.9C44.9 17.76 45.04 17.96 45.18 18.86C45.34 19.86 45.91 20.43 46.89 20.43C47.05 20.43 47.22 20.42 47.39 20.39C48.49 20.22 48.7 19.41 48.57 18.59L48.48 18.05L47.82 18.15L47.88 18.48C47.91 18.68 47.85 18.81 47.69 18.84C47.52 18.87 47.42 18.63 47.35 18.2C47.24 17.49 46.54 17 45.84 17C46.64 16.76 47.16 16.12 47.04 15.35C46.87 14.22 46.27 13.4 43.99 13.75L40.8 14.26L41 15.56L41.57 15.44ZM44.07 15.05C44.65 14.95 45.03 15.19 45.11 15.78C45.19 16.31 44.87 16.63 44.3 16.73L43.86 16.8L43.59 15.12L44.07 15.05Z" fill="white"/>
<path d="M37.31 16.9L37.64 17.84L38.73 20.97L38.15 21.18L38.59 22.44L41.71 21.34L41.67 21.21L41.27 20.09L40.68 20.29L39.26 16.21L39.83 16L39.4 14.76L36.28 15.86L36.71 17.1L37.31 16.9Z" fill="white"/>
<path d="M30.96 20L33.05 23.82L32.55 24.09L32.59 24.17L33.17 25.24L35.99 23.7L35.36 22.55L34.83 22.84L34.09 21.49L34.75 21.12C35.93 20.48 36.64 19.42 36.22 18.34C36.19 18.27 36.16 18.2 36.12 18.13C35.56 17.13 34.71 16.46 32.67 17.57L29.84 19.12L30.47 20.27L30.96 20ZM33.19 18.78C33.69 18.49 34.16 18.61 34.43 19.12C34.69 19.59 34.49 20.05 33.97 20.32L33.57 20.53L32.74 19.01L33.19 18.78Z" fill="white"/>
<path d="M34.17 48.72H34.5V47.96H32.83V48.72H33.14L32.94 49.6C32.88 49.86 32.78 50.46 32.77 50.73H32.74C32.71 50.43 32.64 49.96 32.57 49.58L32.2 47.97H30.97L30.68 49.28C30.57 49.84 30.41 50.56 30.39 50.73H30.36C30.33 50.56 30.23 49.86 30.17 49.58L30.01 48.73H30.35V47.97H28.43V48.73H28.74L29.52 52.05H30.87L31.23 50.65C31.27 50.48 31.34 50.11 31.36 49.94H31.39C31.42 50.13 31.49 50.47 31.53 50.67L31.89 52.05H33.27L34.17 48.72Z" fill="white"/>
<path d="M29.73 25.49C30 25.82 29.67 26.2 29.42 26.43C29.09 26.69 28.37 27.13 27.81 26.49L26.41 27.72L28.05 29.61L29.37 28.47L28.94 27.81C29.52 27.91 30.36 27.8 31.12 27.14C31.86 26.5 32.5 25.44 32.12 24.43C32.05 24.22 31.92 24.02 31.75 23.82C30.21 22.04 27.38 24.8 26.71 24.03C26.48 23.76 26.67 23.36 26.88 23.18C27.41 22.72 28.12 22.67 28.6 23.22L29.97 22.04L28.33 20.15L27.04 21.28L27.51 21.98C26.73 21.67 25.9 22.02 25.27 22.58C24.53 23.21 23.92 24.63 24.87 25.74C26.54 27.65 29.22 24.9 29.73 25.49Z" fill="white"/>
<path d="M31.45 73.04L29.07 71.15L28.24 72.18L28.72 72.57L26.03 75.97L25.55 75.59L24.74 76.63L27.09 78.5C29.01 80.02 30.91 79.86 32.32 78.07C33.5 76.56 33.35 74.53 31.45 73.04ZM30.53 76.63C29.75 77.6 28.79 78.1 27.95 77.46L27.65 77.23L30.34 73.84L30.64 74.07C31.47 74.72 31.18 75.79 30.53 76.63Z" fill="white"/>
<path d="M50 77.51C54.27 77.51 58.32 76.54 61.92 74.8C71.14 70.36 77.5 60.91 77.5 50C77.5 34.81 65.18 22.49 49.99 22.49C49.03 22.49 48.08 22.53 47.16 22.63C33.3 24.05 22.49 35.76 22.49 49.99C22.49 65.19 34.82 77.51 50 77.51ZM50 25.87C63.31 25.87 74.13 36.7 74.13 50C74.13 63.3 63.31 74.14 50 74.14C36.7 74.14 25.87 63.31 25.88 50.01C25.87 36.7 36.7 25.87 50 25.87Z" fill="white"/>
<path d="M27.62 69.39L25.27 66.38L24.26 67.16L24.5 67.49L20.23 69.13L19.82 68.6L18.79 69.4L20.74 71.89L21.77 71.09L21.29 70.48L21.96 70.22L23.23 71.83L22.82 72.41L22.24 71.66L21.21 72.47L23.67 75.62L24.69 74.81L24.26 74.27L27.62 69.39ZM23.12 69.79L25.21 68.96L23.93 70.81L23.12 69.79Z" fill="white"/>
<path d="M50 0C22.44 0 0 22.44 0 50C0 77.58 22.44 100 50 100C77.58 100 100 77.58 100 50C100 22.44 77.58 0 50 0ZM50 88.84C48.82 88.84 47.65 88.78 46.5 88.67C26.73 86.91 11.19 70.24 11.19 50.01C11.19 38.57 16.16 28.29 24.05 21.18C30.93 14.96 40.03 11.18 50 11.18C71.41 11.18 88.83 28.59 88.83 50C88.83 71.41 71.41 88.84 50 88.84ZM94.72 32.97L87.57 35.58C86.9 33.83 86.1 32.13 85.21 30.51L91.81 26.71C92.91 28.71 93.89 30.8 94.72 32.97ZM86.18 18.72L80.35 23.6C79.13 22.19 77.8 20.88 76.39 19.65L81.28 13.82C83.03 15.34 84.67 16.97 86.18 18.72ZM73.31 8.21999L69.51 14.8C67.89 13.9 66.19 13.12 64.44 12.43L67.05 5.28C69.2 6.11 71.3 7.09999 73.31 8.21999ZM32.96 5.28999L35.57 12.44C33.82 13.12 32.12 13.91 30.5 14.81L26.7 8.23C28.7 7.1 30.8 6.10999 32.96 5.28999ZM18.72 13.83L23.61 19.66C22.21 20.89 20.89 22.2 19.66 23.61L13.83 18.73C15.34 16.97 16.97 15.34 18.72 13.83ZM8.22 26.7L14.8 30.5C13.9 32.12 13.12 33.82 12.44 35.57L5.29 32.96C6.11 30.8 7.09 28.71 8.22 26.7ZM5.29 67.04L12.44 64.43C13.11 66.18 13.91 67.88 14.8 69.5L8.22 73.3C7.09 71.3 6.11 69.2 5.29 67.04ZM13.82 81.28L19.65 76.4C20.89 77.81 22.2 79.12 23.61 80.35L18.72 86.18C16.97 84.66 15.33 83.04 13.82 81.28ZM26.7 91.78L30.5 85.2C32.12 86.1 33.82 86.9 35.57 87.56L32.96 94.71C30.8 93.89 28.7 92.91 26.7 91.78ZM67.04 94.73L64.43 87.56C66.18 86.89 67.88 86.09 69.5 85.2L73.3 91.8C71.3 92.92 69.2 93.89 67.04 94.73ZM81.28 86.19L76.39 80.36C77.8 79.13 79.11 77.81 80.34 76.4L86.17 81.3C84.66 83.04 83.03 84.68 81.28 86.19ZM91.78 73.31L85.2 69.51C86.1 67.88 86.89 66.19 87.56 64.44L94.71 67.05C93.89 69.22 92.91 71.31 91.78 73.31Z" fill="white"/>
</svg>
