<svg width="15" height="15" viewBox="0 0 15 15" fill="none" xmlns="http://www.w3.org/2000/svg">
<path d="M4.28239 0.532492C4.28239 0.239996 4.04239 0 3.7499 0C3.4574 0 3.21741 0.239996 3.21741 0.532492V1.60498H4.28989V0.532492H4.28239Z" fill="white"/>
<path d="M11.7823 0.532492C11.7823 0.239996 11.5423 0 11.2498 0C10.9573 0 10.7173 0.239996 10.7173 0.532492V1.60498H11.7898V0.532492H11.7823Z" fill="white"/>
<path d="M13.3948 1.60522H11.7898V3.75019C11.7898 4.04269 11.5498 4.28268 11.2573 4.28268C10.9648 4.28268 10.7173 4.04269 10.7173 3.75019V1.60522H4.28244V3.75019C4.28244 4.04269 4.04244 4.28268 3.74994 4.28268C3.45745 4.28268 3.21745 4.04269 3.21745 3.75019V1.60522H1.60498C0.719989 1.60522 0 2.32521 0 3.2177V13.395C0 14.28 0.719989 15 1.60498 15H13.3873C14.2723 15 14.9923 14.28 14.9923 13.395V3.2177C14.9998 2.32521 14.2798 1.60522 13.3948 1.60522ZM13.9273 13.395C13.9273 13.6875 13.6873 13.9275 13.3948 13.9275H1.60498C1.31248 13.9275 1.07248 13.6875 1.07248 13.395V6.42765H13.9273V13.395Z" fill="white"/>
<path d="M4.28238 8.57231H3.2174C2.9249 8.57231 2.68491 8.33231 2.68491 8.03982C2.68491 7.74732 2.9249 7.50732 3.2174 7.50732H4.28988C4.58238 7.50732 4.82237 7.74732 4.82237 8.03982C4.82237 8.33231 4.58238 8.57231 4.28238 8.57231Z" fill="white"/>
<path d="M8.03232 8.57231H6.96734C6.67484 8.57231 6.43484 8.33231 6.43484 8.03982C6.43484 7.74732 6.67484 7.50732 6.96734 7.50732H8.03982C8.33232 7.50732 8.57231 7.74732 8.57231 8.03982C8.57231 8.33231 8.33232 8.57231 8.03232 8.57231Z" fill="white"/>
<path d="M11.7823 8.57231H10.7098C10.4173 8.57231 10.1773 8.33231 10.1773 8.03982C10.1773 7.74732 10.4173 7.50732 10.7098 7.50732H11.7823C12.0748 7.50732 12.3148 7.74732 12.3148 8.03982C12.3223 8.33231 12.0823 8.57231 11.7823 8.57231Z" fill="white"/>
<path d="M4.28238 10.7168H3.2174C2.9249 10.7168 2.68491 10.4768 2.68491 10.1843C2.68491 9.89185 2.9249 9.65186 3.2174 9.65186H4.28988C4.58238 9.65186 4.82237 9.89185 4.82237 10.1843C4.82237 10.4768 4.58238 10.7168 4.28238 10.7168Z" fill="white"/>
<path d="M8.03232 10.7168H6.96734C6.67484 10.7168 6.43484 10.4768 6.43484 10.1843C6.43484 9.89185 6.67484 9.65186 6.96734 9.65186H8.03982C8.33232 9.65186 8.57231 9.89185 8.57231 10.1843C8.57231 10.4768 8.33232 10.7168 8.03232 10.7168Z" fill="white"/>
<path d="M11.7823 10.7168H10.7098C10.4173 10.7168 10.1773 10.4768 10.1773 10.1843C10.1773 9.89185 10.4173 9.65186 10.7098 9.65186H11.7823C12.0748 9.65186 12.3148 9.89185 12.3148 10.1843C12.3223 10.4768 12.0823 10.7168 11.7823 10.7168Z" fill="white"/>
<path d="M4.28238 12.8543H3.2174C2.9249 12.8543 2.68491 12.6143 2.68491 12.3218C2.68491 12.0293 2.9249 11.7893 3.2174 11.7893H4.28988C4.58238 11.7893 4.82237 12.0293 4.82237 12.3218C4.82237 12.6143 4.58238 12.8543 4.28238 12.8543Z" fill="white"/>
<path d="M8.03232 12.8543H6.96734C6.67484 12.8543 6.43484 12.6143 6.43484 12.3218C6.43484 12.0293 6.67484 11.7893 6.96734 11.7893H8.03982C8.33232 11.7893 8.57231 12.0293 8.57231 12.3218C8.57231 12.6143 8.33232 12.8543 8.03232 12.8543Z" fill="white"/>
<path d="M11.7823 12.8543H10.7098C10.4173 12.8543 10.1773 12.6143 10.1773 12.3218C10.1773 12.0293 10.4173 11.7893 10.7098 11.7893H11.7823C12.0748 11.7893 12.3148 12.0293 12.3148 12.3218C12.3148 12.6143 12.0823 12.8543 11.7823 12.8543Z" fill="white"/>
</svg>
