<svg width="50" height="50" viewBox="0 0 50 50" fill="none" xmlns="http://www.w3.org/2000/svg">
<path d="M8.79475 38.6696C8.10695 38.6683 7.43 38.8411 6.82692 39.1718C3.93394 35.4558 2.24804 30.943 1.99595 26.2402C1.74386 21.5374 2.93766 16.8701 5.41681 12.8661C7.89597 8.86202 11.5416 5.71318 15.8634 3.84301C20.1853 1.97283 24.976 1.47099 29.5915 2.40499C29.8454 2.45672 30.1094 2.40548 30.3254 2.26255C30.5415 2.11962 30.6919 1.8967 30.7437 1.64283C30.7954 1.38896 30.7442 1.12494 30.6013 0.908855C30.4583 0.692765 30.2354 0.542305 29.9816 0.490575C28.3414 0.161989 26.6724 -0.00233922 24.9996 2.51532e-05C20.304 -0.00014988 15.7033 1.3223 11.7244 3.81593C7.74553 6.30955 4.54929 9.87351 2.5018 14.0996C0.454298 18.3258 -0.361678 23.0432 0.147321 27.7116C0.65632 32.3801 2.46971 36.8107 5.37981 40.4962C4.87226 41.2572 4.6335 42.1661 4.70146 43.0783C4.76941 43.9906 5.14019 44.854 5.75489 45.5314C6.36959 46.2088 7.19299 46.6614 8.09429 46.8172C8.9956 46.9731 9.92314 46.8234 10.7296 46.3917C11.5361 45.9601 12.1752 45.2714 12.5455 44.4349C12.9159 43.5985 12.9961 42.6622 12.7736 41.7749C12.551 40.8876 12.0385 40.1002 11.3172 39.5375C10.596 38.9749 9.70748 38.6694 8.7928 38.6696H8.79475ZM10.314 44.2909C9.963 44.6417 9.50124 44.8599 9.0074 44.9084C8.51356 44.9569 8.01817 44.8327 7.60561 44.557C7.19305 44.2812 6.88884 43.871 6.74477 43.3961C6.60071 42.9212 6.62571 42.411 6.81552 41.9525C7.00533 41.4939 7.3482 41.1154 7.78575 40.8813C8.22329 40.6472 8.72845 40.5721 9.21518 40.6686C9.70191 40.7652 10.1401 41.0276 10.4552 41.411C10.7702 41.7944 10.9426 42.2752 10.943 42.7715C10.9436 43.0537 10.8882 43.3332 10.7801 43.5938C10.672 43.8545 10.5132 44.0911 10.313 44.2899L10.314 44.2909Z" fill="#FF4815"/>
<path d="M44.6186 9.50491C45.1724 8.67127 45.4019 7.66367 45.2637 6.67238C45.1254 5.6811 44.6291 4.77474 43.8683 4.12444C43.1076 3.47415 42.1351 3.12493 41.1345 3.14274C40.1339 3.16054 39.1744 3.54414 38.4372 4.22109C37.7001 4.89804 37.2363 5.82149 37.1334 6.81706C37.0306 7.81264 37.2957 8.81143 37.8788 9.62484C38.462 10.4383 39.3227 11.01 40.2985 11.2321C41.2744 11.4541 42.2977 11.3112 43.1754 10.8303C46.0627 14.5435 47.7456 19.051 47.998 23.7481C48.2505 28.4453 47.0605 33.1073 44.5878 37.1086C42.1151 41.11 38.4779 44.2593 34.1642 46.1341C29.8505 48.0089 25.0667 48.5194 20.4546 47.5971C20.3289 47.5719 20.1994 47.5718 20.0736 47.5967C19.9478 47.6216 19.8281 47.671 19.7214 47.7421C19.6147 47.8132 19.523 47.9047 19.4516 48.0113C19.3803 48.1178 19.3306 48.2374 19.3054 48.3632C19.2803 48.4889 19.2801 48.6184 19.305 48.7442C19.3299 48.8701 19.3793 48.9898 19.4504 49.0965C19.5215 49.2032 19.613 49.2949 19.7195 49.3663C19.8261 49.4376 19.9456 49.4873 20.0714 49.5125C21.6945 49.8365 23.3456 49.9999 25.0007 50.0001C29.6964 50.0003 34.2972 48.6777 38.2761 46.184C42.255 43.6902 45.4513 40.1261 47.4987 35.8999C49.5461 31.6736 50.3619 26.956 49.8527 22.2875C49.3435 17.619 47.5299 13.1884 44.6196 9.50295L44.6186 9.50491ZM39.6863 8.75006C39.3356 8.399 39.1174 7.9372 39.0689 7.4433C39.0204 6.94941 39.1445 6.45396 39.4203 6.04136C39.696 5.62875 40.1062 5.3245 40.5811 5.18042C41.0559 5.03634 41.566 5.06135 42.0245 5.25117C42.483 5.441 42.8615 5.78392 43.0956 6.22151C43.3296 6.65911 43.4048 7.16432 43.3082 7.65111C43.2116 8.13789 42.9493 8.57614 42.5659 8.89121C42.1826 9.20629 41.7018 9.37871 41.2056 9.3791C40.9228 9.38055 40.6425 9.32578 40.381 9.21796C40.1195 9.11014 39.882 8.95143 39.6824 8.75104L39.6863 8.75006Z" fill="#FF4815"/>
<path d="M20.9711 41.7993C20.9711 42.058 21.0739 42.306 21.2567 42.4889C21.4396 42.6718 21.6877 42.7746 21.9463 42.7746H28.0526C28.3112 42.7746 28.5592 42.6718 28.7421 42.4889C28.925 42.306 29.0277 42.058 29.0277 41.7993V39.9064C30.31 39.5612 31.5419 39.0504 32.6923 38.3869L34.0292 39.724C34.1198 39.8148 34.2274 39.8869 34.3459 39.9361C34.4644 39.9852 34.5914 40.0105 34.7196 40.0105C34.8479 40.0105 34.9749 39.9852 35.0934 39.9361C35.2118 39.8869 35.3194 39.8148 35.41 39.724L39.726 35.4046C39.8168 35.314 39.8889 35.2064 39.938 35.0879C39.9872 34.9695 40.0125 34.8424 40.0125 34.7142C40.0125 34.5859 39.9872 34.4589 39.938 34.3404C39.8889 34.2219 39.8168 34.1143 39.726 34.0237L38.391 32.6886C39.0544 31.5381 39.5651 30.306 39.9103 29.0236H41.7962C42.0548 29.0236 42.3029 28.9208 42.4857 28.738C42.6686 28.5551 42.7713 28.307 42.7713 28.0483V21.9394C42.7713 21.6807 42.6686 21.4327 42.4857 21.2498C42.3029 21.0669 42.0548 20.9641 41.7962 20.9641H39.9093C39.5644 19.6818 39.054 18.4497 38.391 17.2992L39.7192 15.9709C39.8101 15.8803 39.8823 15.7726 39.9315 15.654C39.9808 15.5354 40.0061 15.4083 40.0061 15.2799C40.0061 15.1515 39.9808 15.0244 39.9315 14.9058C39.8823 14.7872 39.8101 14.6796 39.7192 14.589L35.4003 10.2725C35.3097 10.1817 35.2021 10.1096 35.0836 10.0605C34.9651 10.0113 34.8381 9.98599 34.7099 9.98599C34.5816 9.98599 34.4546 10.0113 34.3361 10.0605C34.2177 10.1096 34.1101 10.1817 34.0195 10.2725L32.6933 11.5988C31.5429 10.9354 30.311 10.4246 29.0287 10.0794V8.20205C29.0287 7.9434 28.926 7.69534 28.7431 7.51245C28.5602 7.32955 28.3122 7.22681 28.0536 7.22681H21.9482C21.6896 7.22681 21.4416 7.32955 21.2587 7.51245C21.0758 7.69534 20.9731 7.9434 20.9731 8.20205V10.0784C19.6908 10.4232 18.4589 10.9336 17.3085 11.5969L15.9823 10.2706C15.8917 10.1797 15.7841 10.1077 15.6657 10.0585C15.5472 10.0093 15.4202 9.98404 15.2919 9.98404C15.1637 9.98404 15.0367 10.0093 14.9182 10.0585C14.7997 10.1077 14.6921 10.1797 14.6015 10.2706L10.2826 14.587C10.1918 14.6776 10.1198 14.7852 10.0706 14.9037C10.0215 15.0222 9.99615 15.1492 9.99615 15.2775C9.99615 15.4058 10.0215 15.5328 10.0706 15.6513C10.1198 15.7697 10.1918 15.8774 10.2826 15.9679L11.6108 17.2962C10.9474 18.4467 10.4366 19.6788 10.0915 20.9612H8.20948C7.95086 20.9612 7.70284 21.064 7.51996 21.2469C7.33709 21.4298 7.23434 21.6778 7.23434 21.9365V28.0435C7.23434 28.3021 7.33709 28.5502 7.51996 28.7331C7.70284 28.916 7.95086 29.0187 8.20948 29.0187H10.0896C10.4347 30.3012 10.9454 31.5332 11.6088 32.6837L10.2739 34.0188C10.183 34.1094 10.111 34.217 10.0618 34.3355C10.0127 34.454 9.98738 34.581 9.98738 34.7093C9.98738 34.8376 10.0127 34.9646 10.0618 35.0831C10.111 35.2016 10.183 35.3092 10.2739 35.3998L14.5898 39.7191C14.6804 39.81 14.788 39.8821 14.9065 39.9313C15.0249 39.9805 15.1519 40.0058 15.2802 40.0059C15.4084 40.006 15.5354 39.9808 15.6539 39.9317C15.7723 39.8827 15.88 39.8108 15.9706 39.7201L17.3066 38.383C18.457 39.0463 19.6889 39.5571 20.9711 39.9025V41.7993ZM17.6888 36.3331C17.5013 36.2115 17.2777 36.158 17.0554 36.1816C16.8332 36.2053 16.6258 36.3045 16.4679 36.4628L15.2792 37.6545L12.3441 34.7171L13.5318 33.5283C13.6898 33.3705 13.7889 33.1633 13.8125 32.9412C13.8361 32.7191 13.7828 32.4957 13.6615 32.3082C12.7777 30.945 12.1499 29.432 11.8087 27.8435C11.762 27.625 11.6417 27.4292 11.468 27.2888C11.2942 27.1484 11.0775 27.0719 10.8541 27.0721H9.17683V22.9185H10.8521C11.0755 22.9188 11.2922 22.8423 11.466 22.7019C11.6398 22.5615 11.7601 22.3656 11.8068 22.1471C12.148 20.5587 12.7758 19.0457 13.6595 17.6824C13.7809 17.495 13.8342 17.2715 13.8106 17.0495C13.787 16.8274 13.6879 16.6202 13.5298 16.4624L12.3499 15.2814L15.287 12.3459L16.466 13.5259C16.6238 13.6842 16.8312 13.7835 17.0535 13.8071C17.2757 13.8307 17.4993 13.7772 17.6869 13.6556C19.0499 12.7717 20.5627 12.1437 22.1511 11.8027C22.3695 11.756 22.5653 11.6357 22.7057 11.4619C22.8462 11.2881 22.9226 11.0713 22.9224 10.8479V9.1773H27.0755V10.845C27.0753 11.0684 27.1517 11.2852 27.2921 11.4589C27.4326 11.6327 27.6284 11.753 27.8468 11.7997C29.4351 12.1411 30.9479 12.769 32.311 13.6527C32.4985 13.774 32.7219 13.8274 32.9439 13.8037C33.166 13.7801 33.3732 13.681 33.5309 13.523L34.7108 12.3439L37.648 15.2794L36.4681 16.4595C36.3098 16.6173 36.2106 16.8247 36.1869 17.047C36.1633 17.2693 36.2168 17.4929 36.3384 17.6805C37.2219 19.0438 37.8497 20.5568 38.1911 22.1452C38.2378 22.3637 38.3581 22.5595 38.5319 22.6999C38.7057 22.8403 38.9224 22.9168 39.1458 22.9166H40.824V27.0702H39.1458C38.9224 27.0699 38.7057 27.1464 38.5319 27.2868C38.3581 27.4273 38.2378 27.6231 38.1911 27.8416C37.85 29.4301 37.2221 30.943 36.3384 32.3063C36.2168 32.4938 36.1633 32.7175 36.1869 32.9398C36.2106 33.162 36.3098 33.3695 36.4681 33.5273L37.6558 34.7151L34.7206 37.6526L33.5319 36.4638C33.3741 36.3055 33.1667 36.2062 32.9444 36.1826C32.7222 36.159 32.4986 36.2125 32.311 36.3341C30.9478 37.2177 29.4351 37.8456 27.8468 38.187C27.6284 38.2337 27.4326 38.354 27.2921 38.5278C27.1517 38.7016 27.0753 38.9184 27.0755 39.1418V40.827H22.9243V39.1418C22.9246 38.9184 22.8481 38.7016 22.7077 38.5278C22.5673 38.354 22.3715 38.2337 22.153 38.187C20.5647 37.8455 19.0519 37.2172 17.6888 36.3331Z" fill="#FF4815"/>
<path d="M33.069 25.0013C33.069 23.4052 32.5958 21.8449 31.7091 20.5178C30.8225 19.1907 29.5622 18.1563 28.0877 17.5455C26.6133 16.9347 24.9908 16.7748 23.4255 17.0862C21.8602 17.3976 20.4224 18.1662 19.2939 19.2949C18.1654 20.4235 17.3969 21.8615 17.0855 23.4269C16.7742 24.9924 16.934 26.615 17.5447 28.0896C18.1555 29.5643 19.1897 30.8247 20.5167 31.7114C21.8437 32.5982 23.4038 33.0715 24.9998 33.0715C27.1392 33.0692 29.1903 32.2182 30.703 30.7052C32.2158 29.1923 33.0667 27.141 33.069 25.0013ZM18.8847 25.0013C18.8847 23.7915 19.2434 22.6089 19.9154 21.6031C20.5874 20.5972 21.5426 19.8131 22.6602 19.3502C23.7778 18.8872 25.0075 18.7661 26.1939 19.0021C27.3803 19.2381 28.4701 19.8207 29.3255 20.6761C30.1808 21.5316 30.7633 22.6215 30.9993 23.808C31.2353 24.9945 31.1142 26.2244 30.6512 27.3421C30.1883 28.4598 29.4044 29.4151 28.3986 30.0872C27.3929 30.7593 26.2104 31.1181 25.0007 31.1181C23.3792 31.1163 21.8246 30.4713 20.678 29.3245C19.5314 28.1778 18.8865 26.623 18.8847 25.0013Z" fill="#FF4815"/>
<path d="M33.9914 3.69317C34.217 3.69299 34.4355 3.61462 34.6098 3.47139C34.7841 3.32816 34.9033 3.12894 34.9472 2.90766C34.9911 2.68638 34.9569 2.45673 34.8505 2.25782C34.7441 2.05892 34.572 1.90306 34.3635 1.81679C34.1551 1.73053 33.9232 1.7192 33.7073 1.78473C33.4915 1.85025 33.305 1.98859 33.1797 2.17617C33.0544 2.36375 32.998 2.58898 33.0201 2.81348C33.0422 3.03799 33.1414 3.24788 33.3009 3.40742C33.4845 3.58976 33.7326 3.69242 33.9914 3.69317Z" fill="#FF4815"/>
<path d="M16.0509 46.3262C15.8253 46.3263 15.6068 46.4047 15.4325 46.548C15.2582 46.6912 15.139 46.8904 15.0951 47.1117C15.0512 47.333 15.0854 47.5626 15.1918 47.7615C15.2982 47.9604 15.4703 48.1163 15.6788 48.2025C15.8872 48.2888 16.1191 48.3001 16.335 48.2346C16.5508 48.1691 16.7373 48.0307 16.8626 47.8432C16.9879 47.6556 17.0444 47.4304 17.0222 47.2059C17.0001 46.9813 16.9009 46.7715 16.7414 46.6119C16.5577 46.4297 16.3097 46.327 16.0509 46.3262Z" fill="#FF4815"/>
</svg>
