<svg width="45" height="45" viewBox="0 0 45 45" fill="none" xmlns="http://www.w3.org/2000/svg">
<g filter="url(#filter0_d_2_30)">
<circle cx="22.5" cy="22.5" r="12.5" fill="white"/>
</g>
<path d="M28.5615 18.854C28.5615 18.8397 28.5713 18.8278 28.5713 18.8135L24.8654 22.3196L28.5664 25.7136C28.5688 25.6898 28.5615 25.6659 28.5615 25.6397V18.854Z" fill="#FF4815"/>
<path d="M24.2995 22.8608L22.7865 24.2898C22.7112 24.3614 22.6117 24.3995 22.5121 24.3995C22.415 24.3995 22.3178 24.3637 22.2425 24.2946L20.7344 22.9133L17.0091 26.4416C17.0989 26.4726 17.1961 26.4988 17.2981 26.4988H27.7261C27.8767 26.4988 28.02 26.4535 28.1414 26.3867L24.2995 22.8608Z" fill="#FF4815"/>
<path d="M22.5097 23.4763L28.1633 18.124C28.0345 18.0501 27.8864 18 27.7261 18H17.2981C17.0917 18 16.8998 18.0787 16.7517 18.2004L22.5097 23.4763Z" fill="#FF4815"/>
<path d="M16.4287 18.9854V25.6422C16.4287 25.7186 16.4457 25.7925 16.4651 25.8617L20.1443 22.3842L16.4287 18.9854Z" fill="#FF4815"/>
<defs>
<filter id="filter0_d_2_30" x="0" y="0" width="45" height="45" filterUnits="userSpaceOnUse" color-interpolation-filters="sRGB">
<feFlood flood-opacity="0" result="BackgroundImageFix"/>
<feColorMatrix in="SourceAlpha" type="matrix" values="0 0 0 0 0 0 0 0 0 0 0 0 0 0 0 0 0 0 127 0" result="hardAlpha"/>
<feOffset/>
<feGaussianBlur stdDeviation="5"/>
<feColorMatrix type="matrix" values="0 0 0 0 0 0 0 0 0 0 0 0 0 0 0 0 0 0 0.15 0"/>
<feBlend mode="normal" in2="BackgroundImageFix" result="effect1_dropShadow_2_30"/>
<feBlend mode="normal" in="SourceGraphic" in2="effect1_dropShadow_2_30" result="shape"/>
</filter>
</defs>
</svg>
