<svg width="60" height="50" viewBox="0 0 60 50" fill="none" xmlns="http://www.w3.org/2000/svg">
<path d="M58.7772 0H1.22279C0.898488 0 0.587466 0.130475 0.358148 0.362724C0.12883 0.594973 0 0.909971 0 1.23842L0 48.7616C0 49.09 0.12883 49.405 0.358148 49.6373C0.587466 49.8695 0.898488 50 1.22279 50H58.7772C59.1015 50 59.4125 49.8695 59.6419 49.6373C59.8712 49.405 60 49.09 60 48.7616V1.23966C60.0002 1.07692 59.9687 0.915749 59.9073 0.765354C59.8459 0.614958 59.7558 0.478288 59.6423 0.363159C59.5287 0.24803 59.3939 0.156699 59.2454 0.0943848C59.097 0.0320709 58.9379 -8.13679e-08 58.7772 0ZM57.5544 2.47684V9.94576H2.44559V2.48055L57.5544 2.47684ZM2.44559 47.5219V12.43H57.5532V47.5219H2.44559Z" fill="#FF4815"/>
<path d="M19.1121 18.6694H9.31996C8.99566 18.6694 8.68464 18.7999 8.45532 19.0322C8.22601 19.2644 8.09717 19.5794 8.09717 19.9079V29.9527C8.09717 30.2811 8.22601 30.5961 8.45532 30.8284C8.68464 31.0606 8.99566 31.1911 9.31996 31.1911H19.1121C19.4364 31.1911 19.7474 31.0606 19.9767 30.8284C20.2061 30.5961 20.3349 30.2811 20.3349 29.9527V19.9079C20.3349 19.5794 20.2061 19.2644 19.9767 19.0322C19.7474 18.7999 19.4364 18.6694 19.1121 18.6694ZM17.8893 28.7143H10.5452V21.15H17.8881L17.8893 28.7143Z" fill="#FF4815"/>
<path d="M25.0149 31.1945H34.8058C35.1301 31.1945 35.4411 31.064 35.6705 30.8318C35.8998 30.5995 36.0286 30.2845 36.0286 29.9561V19.9113C36.0286 19.5828 35.8998 19.2678 35.6705 19.0356C35.4411 18.8033 35.1301 18.6729 34.8058 18.6729H25.0149C24.6906 18.6729 24.3796 18.8033 24.1503 19.0356C23.9209 19.2678 23.7921 19.5828 23.7921 19.9113V29.9561C23.7921 30.2845 23.9209 30.5995 24.1503 30.8318C24.3796 31.064 24.6906 31.1945 25.0149 31.1945ZM26.2377 21.1497H33.5745V28.714H26.2377V21.1497Z" fill="#FF4815"/>
<path d="M40.7094 31.1945H50.5015C50.8258 31.1945 51.1368 31.064 51.3661 30.8318C51.5955 30.5995 51.7243 30.2845 51.7243 29.9561V19.9113C51.7243 19.5828 51.5955 19.2678 51.3661 19.0356C51.1368 18.8033 50.8258 18.6729 50.5015 18.6729H40.7094C40.3851 18.6729 40.0741 18.8033 39.8447 19.0356C39.6154 19.2678 39.4866 19.5828 39.4866 19.9113V29.9561C39.4866 30.2845 39.6154 30.5995 39.8447 30.8318C40.0741 31.064 40.3851 31.1945 40.7094 31.1945ZM41.9322 21.1497H49.275V28.714H41.9322V21.1497Z" fill="#FF4815"/>
<path d="M19.1121 34.3413H9.31996C8.99566 34.3413 8.68464 34.4718 8.45532 34.7041C8.22601 34.9363 8.09717 35.2513 8.09717 35.5797C8.09717 35.9082 8.22601 36.2232 8.45532 36.4554C8.68464 36.6877 8.99566 36.8182 9.31996 36.8182H19.1121C19.4364 36.8182 19.7474 36.6877 19.9767 36.4554C20.2061 36.2232 20.3349 35.9082 20.3349 35.5797C20.3349 35.2513 20.2061 34.9363 19.9767 34.7041C19.7474 34.4718 19.4364 34.3413 19.1121 34.3413Z" fill="#FF4815"/>
<path d="M19.1121 38.9312H9.31996C8.99566 38.9312 8.68464 39.0616 8.45532 39.2939C8.22601 39.5261 8.09717 39.8411 8.09717 40.1696C8.09717 40.498 8.22601 40.813 8.45532 41.0453C8.68464 41.2775 8.99566 41.408 9.31996 41.408H19.1121C19.4364 41.408 19.7474 41.2775 19.9767 41.0453C20.2061 40.813 20.3349 40.498 20.3349 40.1696C20.3349 39.8411 20.2061 39.5261 19.9767 39.2939C19.7474 39.0616 19.4364 38.9312 19.1121 38.9312Z" fill="#FF4815"/>
<path d="M34.8972 34.3413H25.1051C24.7808 34.3413 24.4697 34.4718 24.2404 34.7041C24.0111 34.9363 23.8823 35.2513 23.8823 35.5797C23.8823 35.9082 24.0111 36.2232 24.2404 36.4554C24.4697 36.6877 24.7808 36.8182 25.1051 36.8182H34.8972C35.2215 36.8182 35.5325 36.6877 35.7618 36.4554C35.9911 36.2232 36.12 35.9082 36.12 35.5797C36.12 35.2513 35.9911 34.9363 35.7618 34.7041C35.5325 34.4718 35.2215 34.3413 34.8972 34.3413Z" fill="#FF4815"/>
<path d="M34.8972 38.9312H25.1051C24.7808 38.9312 24.4697 39.0616 24.2404 39.2939C24.0111 39.5261 23.8823 39.8411 23.8823 40.1696C23.8823 40.498 24.0111 40.813 24.2404 41.0453C24.4697 41.2775 24.7808 41.408 25.1051 41.408H34.8972C35.2215 41.408 35.5325 41.2775 35.7618 41.0453C35.9911 40.813 36.12 40.498 36.12 40.1696C36.12 39.8411 35.9911 39.5261 35.7618 39.2939C35.5325 39.0616 35.2215 38.9312 34.8972 38.9312Z" fill="#FF4815"/>
<path d="M50.6808 34.3413H40.8887C40.5644 34.3413 40.2533 34.4718 40.024 34.7041C39.7947 34.9363 39.6659 35.2513 39.6659 35.5797C39.6659 35.9082 39.7947 36.2232 40.024 36.4554C40.2533 36.6877 40.5644 36.8182 40.8887 36.8182H50.6808C51.0051 36.8182 51.3161 36.6877 51.5454 36.4554C51.7748 36.2232 51.9036 35.9082 51.9036 35.5797C51.9036 35.2513 51.7748 34.9363 51.5454 34.7041C51.3161 34.4718 51.0051 34.3413 50.6808 34.3413Z" fill="#FF4815"/>
<path d="M50.6808 38.9312H40.8887C40.5644 38.9312 40.2533 39.0616 40.024 39.2939C39.7947 39.5261 39.6659 39.8411 39.6659 40.1696C39.6659 40.498 39.7947 40.813 40.024 41.0453C40.2533 41.2775 40.5644 41.408 40.8887 41.408H50.6808C51.0051 41.408 51.3161 41.2775 51.5454 41.0453C51.7748 40.813 51.9036 40.498 51.9036 40.1696C51.9036 39.8411 51.7748 39.5261 51.5454 39.2939C51.3161 39.0616 51.0051 38.9312 50.6808 38.9312Z" fill="#FF4815"/>
<path d="M9.31996 7.42557H9.92525C10.2496 7.42557 10.5606 7.2951 10.7899 7.06285C11.0192 6.8306 11.148 6.5156 11.148 6.18715C11.148 5.8587 11.0192 5.5437 10.7899 5.31145C10.5606 5.07921 10.2496 4.94873 9.92525 4.94873H9.31996C8.99566 4.94873 8.68464 5.07921 8.45532 5.31145C8.22601 5.5437 8.09717 5.8587 8.09717 6.18715C8.09717 6.5156 8.22601 6.8306 8.45532 7.06285C8.68464 7.2951 8.99566 7.42557 9.31996 7.42557Z" fill="#FF4815"/>
<path d="M14.3981 7.42557H15.0022C15.3265 7.42557 15.6375 7.2951 15.8669 7.06285C16.0962 6.8306 16.225 6.5156 16.225 6.18715C16.225 5.8587 16.0962 5.5437 15.8669 5.31145C15.6375 5.07921 15.3265 4.94873 15.0022 4.94873H14.3981C14.0738 4.94873 13.7628 5.07921 13.5335 5.31145C13.3042 5.5437 13.1754 5.8587 13.1754 6.18715C13.1754 6.5156 13.3042 6.8306 13.5335 7.06285C13.7628 7.2951 14.0738 7.42557 14.3981 7.42557Z" fill="#FF4815"/>
<path d="M19.4758 7.42557H20.0799C20.4042 7.42557 20.7152 7.2951 20.9446 7.06285C21.1739 6.8306 21.3027 6.5156 21.3027 6.18715C21.3027 5.8587 21.1739 5.5437 20.9446 5.31145C20.7152 5.07921 20.4042 4.94873 20.0799 4.94873H19.4758C19.1515 4.94873 18.8405 5.07921 18.6112 5.31145C18.3819 5.5437 18.2531 5.8587 18.2531 6.18715C18.2531 6.5156 18.3819 6.8306 18.6112 7.06285C18.8405 7.2951 19.1515 7.42557 19.4758 7.42557Z" fill="#FF4815"/>
</svg>
