<svg width="51" height="50" viewBox="0 0 51 50" fill="none" xmlns="http://www.w3.org/2000/svg">
<g filter="url(#filter0_d_2_932)">
<path d="M35.7424 39.4957H14.4416C11.9889 39.4957 10 37.5539 10 35.1593V14.3632C10 11.9686 11.9889 10.0269 14.4416 10.0269H35.7424C38.1952 10.0269 40.184 11.9686 40.184 14.3632V35.1593C40.184 37.5539 38.1952 39.4957 35.7424 39.4957Z" fill="white"/>
</g>
<path d="M28.6978 34.0129H21.4335C18.1957 34.0129 15.5627 31.4423 15.5627 28.2812V21.1891C15.5627 18.028 18.1957 15.4574 21.4335 15.4574H28.6978C31.9356 15.4574 34.5686 18.028 34.5686 21.1891V28.2794C34.5686 31.4404 31.9337 34.0129 28.6978 34.0129ZM21.4335 17.5256C19.3639 17.5256 17.6811 19.1685 17.6811 21.1891V28.2794C17.6811 30.3 19.3639 31.9428 21.4335 31.9428H28.6978C30.7674 31.9428 32.4501 30.3 32.4501 28.2794V21.1891C32.4501 19.1685 30.7674 17.5256 28.6978 17.5256H21.4335Z" fill="#FF4815"/>
<path d="M25.0654 29.4762C22.3873 29.4762 20.2088 27.3492 20.2088 24.7346C20.2088 22.12 22.3873 19.993 25.0654 19.993C27.7435 19.993 29.9221 22.12 29.9221 24.7346C29.9221 27.3492 27.7435 29.4762 25.0654 29.4762ZM25.0654 21.8541C23.439 21.8541 22.115 23.1467 22.115 24.7346C22.115 26.3225 23.439 27.6151 25.0654 27.6151C26.6918 27.6151 28.0159 26.3225 28.0159 24.7346C28.0159 23.1449 26.6918 21.8541 25.0654 21.8541Z" fill="#FF4815"/>
<path d="M30.1679 20.5187C30.6211 20.5187 30.9886 20.1599 30.9886 19.7174C30.9886 19.2749 30.6211 18.9161 30.1679 18.9161C29.7146 18.9161 29.3472 19.2749 29.3472 19.7174C29.3472 20.1599 29.7146 20.5187 30.1679 20.5187Z" fill="#FF4815"/>
<defs>
<filter id="filter0_d_2_932" x="0" y="0.0268555" width="50.184" height="49.4688" filterUnits="userSpaceOnUse" color-interpolation-filters="sRGB">
<feFlood flood-opacity="0" result="BackgroundImageFix"/>
<feColorMatrix in="SourceAlpha" type="matrix" values="0 0 0 0 0 0 0 0 0 0 0 0 0 0 0 0 0 0 127 0" result="hardAlpha"/>
<feOffset/>
<feGaussianBlur stdDeviation="5"/>
<feColorMatrix type="matrix" values="0 0 0 0 0 0 0 0 0 0 0 0 0 0 0 0 0 0 0.2 0"/>
<feBlend mode="normal" in2="BackgroundImageFix" result="effect1_dropShadow_2_932"/>
<feBlend mode="normal" in="SourceGraphic" in2="effect1_dropShadow_2_932" result="shape"/>
</filter>
</defs>
</svg>
