<svg width="20" height="20" viewBox="0 0 20 20" fill="none" xmlns="http://www.w3.org/2000/svg">
<path d="M13.6978 19.0129H6.43348C3.19571 19.0129 0.562683 16.4423 0.562683 13.2812V6.18907C0.562683 3.02803 3.19571 0.457397 6.43348 0.457397H13.6978C16.9356 0.457397 19.5686 3.02803 19.5686 6.18907V13.2794C19.5686 16.4404 16.9337 19.0129 13.6978 19.0129ZM6.43348 2.52564C4.36386 2.52564 2.68113 4.1685 2.68113 6.18907V13.2794C2.68113 15.3 4.36386 16.9428 6.43348 16.9428H13.6978C15.7674 16.9428 17.4501 15.3 17.4501 13.2794V6.18907C17.4501 4.1685 15.7674 2.52564 13.6978 2.52564H6.43348Z" fill="#FF4815"/>
<path d="M10.0654 14.4762C7.38734 14.4762 5.2088 12.3492 5.2088 9.7346C5.2088 7.11996 7.38734 4.99304 10.0654 4.99304C12.7435 4.99304 14.9221 7.11996 14.9221 9.7346C14.9221 12.3492 12.7435 14.4762 10.0654 14.4762ZM10.0654 6.8541C8.43905 6.8541 7.11502 8.14675 7.11502 9.7346C7.11502 11.3225 8.43905 12.6151 10.0654 12.6151C11.6918 12.6151 13.0159 11.3225 13.0159 9.7346C13.0159 8.14491 11.6918 6.8541 10.0654 6.8541Z" fill="#FF4815"/>
<path d="M15.1679 5.51866C15.6211 5.51866 15.9886 5.15992 15.9886 4.7174C15.9886 4.27487 15.6211 3.91614 15.1679 3.91614C14.7146 3.91614 14.3472 4.27487 14.3472 4.7174C14.3472 5.15992 14.7146 5.51866 15.1679 5.51866Z" fill="#FF4815"/>
</svg>
