<svg width="100" height="89" viewBox="0 0 100 89" fill="none" xmlns="http://www.w3.org/2000/svg">
<path d="M15.12 66.35C15 67.03 14.79 68.04 14.68 68.39L13.08 74.31H9.9L8.2 68.24C8.12 67.98 7.93 67.11 7.88 66.35H7.82V72.34H8.69V74.3H4.57V72.34H5.39V65.63H4.58V63.68H10.34L11.88 69.37L13.34 63.68H19.13V65.64H18.3V72.33H19.14V74.31H14.33V72.33H15.18V67.25V66.35H15.12Z" fill="#FF4815"/>
<path d="M19.75 68.94C19.75 65.66 21.94 63.39 25.09 63.39C28.82 63.39 30.55 65.62 30.55 69.05C30.55 72.49 28.63 74.59 25.2 74.59C22.02 74.58 19.75 72.74 19.75 68.94ZM26.74 69.04C26.74 67.2 26.24 65.73 25.07 65.73C24.14 65.72 23.5 67.05 23.5 68.94C23.5 70.93 24.21 72.2 25.19 72.2C26.15 72.19 26.74 70.93 26.74 69.04Z" fill="#FF4815"/>
<path d="M35.84 63.68V65.64H35.02V68.93C35.02 71.38 35.57 71.9 36.54 71.9C37.47 71.9 38.08 71.53 38.08 68.92V65.68H37.26V63.68H41.76V65.64H40.94V69.34C40.94 72.94 39.43 74.57 36.58 74.57C33.51 74.48 31.87 72.87 31.87 69.41V65.65H31.02V63.68H35.84Z" fill="#FF4815"/>
<path d="M53.02 65.64V74.31H49.75L45.87 68.52V72.35H47.04V74.31H42.37V72.35H43.27V65.64H42.39V63.68H46.75L50.48 69.26V65.64H49.45V63.68H54.03V65.64H53.02Z" fill="#FF4815"/>
<path d="M64.84 67.63H62.6V65.68H61.32V72.28H62.58V74.3H56.92V72.28H58.17V65.68H56.86V67.63H54.63V63.68H64.83V67.63H64.84Z" fill="#FF4815"/>
<path d="M71.26 74.31V72.32H72.7L72.38 71.29H69.26L68.94 72.32H70.13V74.31H65.3V72.32H66.33L68.38 65.64H67.76V63.68H73.6L76.29 72.32H77.35V74.31H71.26ZM71.82 69.46L70.82 66.18L69.83 69.46H71.82Z" fill="#FF4815"/>
<path d="M83.02 63.68V65.69H82.08V72.29H83.02V74.31H77.97V72.28H78.93V65.68H77.97V63.68H83.02Z" fill="#FF4815"/>
<path d="M94.43 65.64V74.31H91.16L87.28 68.52V72.35H88.45V74.31H83.78V72.35H84.68V65.64H83.8V63.68H88.16L91.89 69.26V65.64H90.86V63.68H95.44V65.64H94.43Z" fill="#FF4815"/>
<path d="M5.96 88.15V86.16H7.4L7.08 85.13H3.97L3.65 86.16H4.84V88.15H0V86.16H1.04L3.09 79.49H2.46V77.53H8.3L11 86.16H12.06V88.15H5.96ZM6.52 83.3L5.52 80.02L4.53 83.3H6.52Z" fill="#FF4815"/>
<path d="M12.67 86.13H13.61V79.53H12.67V77.52H17.31C20.99 77.52 23.09 79.79 23.09 82.69C23.09 86.16 20.99 88.15 17.25 88.15H12.67V86.13ZM17.31 86.13C18.92 86.1 19.59 84.59 19.59 82.69C19.59 81.06 18.92 79.53 17.31 79.53H16.73V86.13H17.31Z" fill="#FF4815"/>
<path d="M29.71 84.74C29.74 84.31 29.95 83.57 30.26 82.81L31.64 79.49H30.84V77.51H35.16V79.49H34.42L30.77 88.14H27.97L23.94 79.49H23.1V77.51H28.7V79.49H27.88L29.17 82.9C29.41 83.65 29.61 84.31 29.64 84.74H29.71Z" fill="#FF4815"/>
<path d="M44.56 77.52V80.88H41.93V79.53H39.5V81.63H42.39V83.65H39.5V86.13H41.93V84.72H44.56V88.16H35.39V86.14H36.35V79.54H35.39V77.53H44.56V77.52Z" fill="#FF4815"/>
<path d="M55.97 79.48V88.15H52.7L48.82 82.36V86.19H49.99V88.15H45.32V86.19H46.22V79.48H45.34V77.52H49.7L53.43 83.1V79.48H52.4V77.52H56.98V79.48H55.97Z" fill="#FF4815"/>
<path d="M67.79 81.48H65.56V79.53H64.28V86.13H65.54V88.15H59.88V86.13H61.13V79.53H59.82V81.48H57.58V77.53H67.78V81.48H67.79Z" fill="#FF4815"/>
<path d="M73.09 77.52V79.48H72.27V82.77C72.27 85.22 72.82 85.74 73.79 85.74C74.72 85.74 75.33 85.37 75.33 82.76V79.54H74.5V77.53H79V79.49H78.18V83.18C78.18 86.78 76.67 88.41 73.82 88.41C70.75 88.32 69.11 86.71 69.11 83.26V79.5H68.26V77.52H73.09Z" fill="#FF4815"/>
<path d="M84.56 77.52C88.09 77.52 88.77 78.92 88.77 80.65C88.77 81.84 87.83 82.67 86.56 82.85C87.61 83 88.55 83.91 88.55 85.01C88.55 85.66 88.64 86.04 88.91 86.04C89.14 86.04 89.26 85.86 89.26 85.55V85.05H90.28V85.89C90.28 87.15 89.75 88.32 88.06 88.32C86.07 88.32 85.11 87.27 85.11 85.49C85.11 84.11 84.94 83.77 83.59 83.77V86.13H84.52V88.14H79.61V86.13H80.46V79.5H79.61V77.51H84.56V77.52ZM83.6 82.08H84.28C85.16 82.08 85.74 81.65 85.74 80.85C85.74 79.95 85.24 79.5 84.36 79.5H83.6V82.08Z" fill="#FF4815"/>
<path d="M31.05 74.78C30.99 74.85 30.92 74.92 30.86 74.98H31.2C31.15 74.93 31.11 74.85 31.05 74.78Z" fill="#FF4815"/>
<path d="M21.67 61.14V61.58C22.69 61.11 23.84 60.85 25.09 60.85C26.35 60.85 27.48 61.06 28.48 61.44V61.14H39.86H43.78L46.43 52.79L40.86 33.78L46.4 11.21L48.98 6.04L60.94 34.04L62.49 37.66L64.13 35.87L68.68 61.15H75.45H75.48H79.1V53.89L71.37 47.44L72.51 27.34L82.93 45.68L83.88 57.24L83.95 58.08L84.51 58.71L86.66 61.14H90.05L86.41 57.03L85.41 44.91L72.76 22.68L63.26 33.05L49.15 0L37.69 23L26.61 26.85L20.48 39.78L10.94 49.51L9.08 61.14H21.67Z" fill="#FF4815"/>
<path d="M100 77.52V80.88H97.37V79.53H94.94V81.63H97.83V83.65H94.94V86.13H97.37V84.72H100V88.16H90.83V86.14H91.79V79.54H90.83V77.53H100V77.52Z" fill="#FF4815"/>
</svg>
