<svg width="45" height="45" viewBox="0 0 45 45" fill="none" xmlns="http://www.w3.org/2000/svg">
<g filter="url(#filter0_d_2_39)">
<circle cx="22.5" cy="22.5" r="12.5" fill="white"/>
</g>
<path opacity="0.8" d="M27.9574 24.5332C27.1618 24.5332 26.3792 24.4084 25.6382 24.164C25.2742 24.0392 24.8296 24.1536 24.6086 24.3824L23.1474 25.4848C21.4522 24.58 20.407 23.5348 19.5152 21.8526L20.5864 20.4278C20.8646 20.1496 20.9634 19.744 20.8438 19.3644C20.5968 18.6208 20.472 17.8382 20.472 17.0426C20.472 16.468 20.004 16 19.4294 16H17.0426C16.468 16 16 16.468 16 17.0426C16 23.6362 21.3638 29 27.9574 29C28.532 29 29 28.532 29 27.9574V25.5758C29 25.0012 28.532 24.5332 27.9574 24.5332Z" fill="#FF4815"/>
<defs>
<filter id="filter0_d_2_39" x="0" y="0" width="45" height="45" filterUnits="userSpaceOnUse" color-interpolation-filters="sRGB">
<feFlood flood-opacity="0" result="BackgroundImageFix"/>
<feColorMatrix in="SourceAlpha" type="matrix" values="0 0 0 0 0 0 0 0 0 0 0 0 0 0 0 0 0 0 127 0" result="hardAlpha"/>
<feOffset/>
<feGaussianBlur stdDeviation="5"/>
<feColorMatrix type="matrix" values="0 0 0 0 0 0 0 0 0 0 0 0 0 0 0 0 0 0 0.15 0"/>
<feBlend mode="normal" in2="BackgroundImageFix" result="effect1_dropShadow_2_39"/>
<feBlend mode="normal" in="SourceGraphic" in2="effect1_dropShadow_2_39" result="shape"/>
</filter>
</defs>
</svg>
