<svg width="30" height="25" viewBox="0 0 30 25" fill="none" xmlns="http://www.w3.org/2000/svg">
<path fill-rule="evenodd" clip-rule="evenodd" d="M21.3994 12.6071C21.5238 11.7957 21.7726 10.9844 22.0837 10.2355C23.39 7.17731 26.3759 4.9305 29.8594 4.68085V0C23.7632 0.312057 18.6623 4.55603 17.1072 10.2355C16.7962 11.3589 16.6096 12.6071 16.6096 13.8553V24.0908H29.8594V12.6695H21.3994V12.6071Z" fill="white"/>
<path fill-rule="evenodd" clip-rule="evenodd" d="M4.79046 12.6071C4.91487 11.7957 5.16369 10.9844 5.47472 10.2355C6.78104 7.17731 9.76692 4.9305 13.2504 4.68085V0C7.15428 0.312057 2.11561 4.55603 0.560462 10.2355C0.187228 11.3589 0.000610352 12.6071 0.000610352 13.8553V24.0908H13.1882V12.6695H4.79046V12.6071Z" fill="white"/>
</svg>
