<svg width="52" height="52" viewBox="0 0 52 52" fill="none" xmlns="http://www.w3.org/2000/svg">
<path d="M51.251 18.475C51.2514 18.2223 51.188 17.9737 51.0667 17.7521C50.9454 17.5305 50.7701 17.3432 50.557 17.2074C50.344 17.0717 50.1001 16.9919 49.848 16.9756C49.5959 16.9593 49.3438 17.0069 49.115 17.114L46.077 18.531C45.0922 18.9885 44.0239 19.2386 42.9384 19.2658C41.8529 19.293 40.7734 19.0966 39.767 18.689L39.715 18.669L33.386 16.369C31.9127 15.8323 30.3084 15.7704 28.7981 16.1918C27.2879 16.6133 25.9475 17.497 24.965 18.719L23.065 16.727C24.1579 14.1632 24.3253 11.299 23.5384 8.62539C22.7514 5.95174 21.0592 3.63497 18.7516 2.07205C16.444 0.509129 13.6647 -0.202651 10.8899 0.0586679C8.11513 0.319987 5.51759 1.53814 3.54237 3.5044C1.56714 5.47066 0.337184 8.06263 0.0632444 10.8362C-0.210695 13.6098 0.488433 16.3923 2.04084 18.7069C3.59325 21.0216 5.90229 22.7244 8.57234 23.5235C11.2424 24.3226 14.1072 24.1683 16.676 23.087L20.513 27.143L16.798 28.875C16.0083 29.2411 15.3418 29.8283 14.8791 30.5656C14.4164 31.3028 14.1775 32.1584 14.1912 33.0287C14.205 33.899 14.4709 34.7466 14.9566 35.4689C15.4424 36.1911 16.1271 36.757 16.928 37.098C16.7055 37.8326 16.6745 38.6119 16.8382 39.3618C17.0018 40.1117 17.3545 40.8074 17.8629 41.3825C18.3712 41.9577 19.0181 42.3932 19.7423 42.6478C20.4664 42.9024 21.2436 42.9675 22 42.837C22.0364 43.4699 22.2061 44.0879 22.498 44.6507C22.7899 45.2134 23.1974 45.7081 23.6939 46.1024C24.1903 46.4966 24.7644 46.7816 25.3786 46.9385C25.9928 47.0954 26.6333 47.1208 27.258 47.013C27.3023 47.7461 27.5251 48.4574 27.9069 49.0848C28.2888 49.7122 28.8182 50.2368 29.4491 50.613C30.08 50.9892 30.7932 51.2055 31.5268 51.2431C32.2603 51.2807 32.9919 51.1386 33.658 50.829L41.482 47.181C45.0667 45.5152 48.2567 43.107 50.841 40.116L50.885 40.066C51.1213 39.793 51.2513 39.444 51.251 39.083C51.252 34.75 51.252 24.419 51.251 18.475ZM12.012 21.021C10.2302 21.021 8.48837 20.4926 7.00685 19.5027C5.52532 18.5128 4.37062 17.1057 3.68875 15.4596C3.00688 13.8134 2.82847 12.002 3.17608 10.2544C3.5237 8.50682 4.38172 6.90157 5.64165 5.64164C6.90159 4.38171 8.50684 3.52368 10.2544 3.17607C12.002 2.82845 13.8134 3.00686 15.4596 3.68873C17.1058 4.3706 18.5128 5.52531 19.5027 7.00683C20.4926 8.48835 21.021 10.2302 21.021 12.012C21.0183 14.4005 20.0683 16.6904 18.3794 18.3794C16.6904 20.0683 14.4005 21.0183 12.012 21.021ZM19.334 21.528C20.1321 20.9126 20.8503 20.2001 21.472 19.407L26.29 24.444L23.377 25.802L19.334 21.528ZM40.214 44.459L32.39 48.107C32.029 48.2752 31.616 48.2932 31.2418 48.157C30.8675 48.0208 30.5628 47.7414 30.3945 47.3805C30.2262 47.0195 30.2082 46.6065 30.3444 46.2323C30.4807 45.858 30.76 45.5532 31.121 45.385L33.843 44.116C34.2038 43.9476 34.483 43.6427 34.619 43.2685C34.7551 42.8942 34.7369 42.4813 34.5685 42.1205C34.4001 41.7596 34.0952 41.4805 33.721 41.3444C33.3468 41.2084 32.9338 41.2266 32.573 41.395L27.13 43.933C26.769 44.1012 26.356 44.1192 25.9818 43.983C25.6075 43.8468 25.3028 43.5674 25.1345 43.2065C24.9662 42.8455 24.9482 42.4325 25.0844 42.0583C25.2207 41.684 25.5 41.3792 25.861 41.211L28.583 39.942C28.7617 39.8586 28.9223 39.7409 29.0555 39.5956C29.1888 39.4502 29.292 39.28 29.3595 39.0947C29.427 38.9094 29.4573 38.7126 29.4487 38.5156C29.4401 38.3186 29.3928 38.1252 29.3095 37.9465C29.2262 37.7677 29.1084 37.6072 28.9631 37.4739C28.8177 37.3407 28.6475 37.2374 28.4622 37.1699C28.2769 37.1025 28.0801 37.0722 27.8831 37.0808C27.6861 37.0893 27.4927 37.1366 27.314 37.22L21.87 39.759C21.6912 39.8424 21.4978 39.8897 21.3008 39.8984C21.1038 39.907 20.907 39.8768 20.7216 39.8093C20.5363 39.7419 20.366 39.6387 20.2206 39.5055C20.0751 39.3722 19.9574 39.2117 19.874 39.033C19.7906 38.8542 19.7432 38.6608 19.7346 38.4638C19.7259 38.2668 19.7562 38.07 19.8236 37.8846C19.891 37.6993 19.9943 37.529 20.1275 37.3836C20.2607 37.2381 20.4212 37.1204 20.6 37.037L26.044 34.495C26.2227 34.4116 26.3833 34.2939 26.5165 34.1486C26.6497 34.0032 26.753 33.833 26.8205 33.6477C26.888 33.4624 26.9183 33.2656 26.9097 33.0686C26.9011 32.8716 26.8538 32.6782 26.7705 32.4995C26.6872 32.3207 26.5694 32.1602 26.4241 32.0269C26.2787 31.8937 26.1085 31.7904 25.9232 31.7229C25.7379 31.6555 25.5411 31.6252 25.3441 31.6338C25.1471 31.6423 24.9537 31.6896 24.775 31.773L19.332 34.311C19.1525 34.4033 18.9563 34.4584 18.7551 34.4731C18.5539 34.4878 18.3517 34.4617 18.1608 34.3965C17.9698 34.3312 17.794 34.2281 17.6439 34.0933C17.4937 33.9585 17.3723 33.7948 17.2869 33.612C17.2015 33.4292 17.1538 33.2311 17.1468 33.0294C17.1397 32.8278 17.1735 32.6268 17.2459 32.4384C17.3184 32.2501 17.4281 32.0783 17.5685 31.9334C17.7089 31.7885 17.8771 31.6734 18.063 31.595L32.363 24.925C32.5418 24.842 32.7025 24.7247 32.8359 24.5797C32.9694 24.4346 33.073 24.2647 33.1407 24.0797C33.2085 23.8946 33.2392 23.698 33.231 23.5011C33.2228 23.3041 33.1759 23.1108 33.093 22.932C33.01 22.7532 32.8927 22.5925 32.7477 22.459C32.6026 22.3256 32.4327 22.222 32.2477 22.1542C32.0626 22.0864 31.866 22.0557 31.6691 22.0639C31.4722 22.0721 31.2788 22.119 31.1 22.202L29.166 23.102L27.074 20.915C27.6316 20.073 28.4572 19.4441 29.417 19.1301C30.3768 18.8161 31.4145 18.8354 32.362 19.185L38.662 21.479C40.0481 22.0361 41.5338 22.3032 43.0272 22.2639C44.5206 22.2245 45.9901 21.8794 47.345 21.25L48.245 20.829C48.245 26.568 48.245 34.489 48.245 38.513C45.9969 41.0169 43.265 43.0395 40.214 44.459Z" fill="#FF4815"/>
<path d="M17.578 7.94799C17.4387 7.80845 17.2732 7.69775 17.0911 7.62222C16.9089 7.54668 16.7137 7.50781 16.5165 7.50781C16.3193 7.50781 16.124 7.54668 15.9419 7.62222C15.7598 7.69775 15.5943 7.80845 15.455 7.94799L10.506 12.893L8.56498 10.952C8.28345 10.6705 7.90162 10.5123 7.50348 10.5123C7.10534 10.5123 6.72351 10.6705 6.44198 10.952C6.16045 11.2335 6.00229 11.6153 6.00229 12.0135C6.00229 12.4116 6.16045 12.7935 6.44198 13.075L9.44198 16.075C9.5813 16.2145 9.74676 16.3252 9.92891 16.4008C10.111 16.4763 10.3063 16.5152 10.5035 16.5152C10.7007 16.5152 10.8959 16.4763 11.0781 16.4008C11.2602 16.3252 11.4257 16.2145 11.565 16.075L17.571 10.069C17.8531 9.78863 18.0123 9.40769 18.0137 9.00994C18.015 8.61219 17.8583 8.23021 17.578 7.94799Z" fill="#FF4815"/>
</svg>
