<svg width="101" height="92" viewBox="0 0 101 92" fill="none" xmlns="http://www.w3.org/2000/svg">
<path d="M10.3115 67.27C10.3515 67.57 10.3415 67.87 10.4215 68.16C10.4715 68.45 10.5515 68.74 10.6515 69.02C10.8615 69.58 11.1315 70.11 11.5015 70.57C12.2115 71.52 13.2115 72.2 14.2815 72.64C14.5615 72.73 14.8215 72.86 15.1115 72.92C15.3915 73 15.6715 73.07 15.9615 73.11C16.5315 73.22 17.1115 73.24 17.6915 73.24L19.4915 73.2C19.7315 73.19 20.0715 73.15 20.3615 73.12C20.6415 73.07 20.8815 72.98 21.1415 72.92L21.2615 72.89L21.4015 72.92L22.0215 73.05C22.2315 73.1 22.4415 73.08 22.6515 73.1C23.0615 73.13 23.5615 73.09 24.0015 73.09L24.6915 73.07L25.0315 73.06L25.3315 73.03C25.5515 73 25.8115 73 25.9915 72.94L26.5515 72.79L26.7015 72.75L26.8915 72.79L27.5015 72.91C27.7015 72.96 27.9115 72.94 28.1115 72.96C28.5115 72.99 29.0115 72.95 29.4615 72.95L30.1515 72.93L30.4915 72.92L30.7815 72.89C31.0015 72.86 31.2715 72.86 31.4415 72.8L31.9815 72.65L32.1615 72.6L32.4015 72.65L32.9915 72.77C33.1915 72.82 33.3915 72.8 33.5915 72.81C33.9715 72.84 34.4915 72.8 34.9315 72.8L35.6215 72.79L35.9715 72.78L36.2515 72.76C36.4615 72.73 36.7415 72.73 36.9115 72.68L37.4315 72.54L37.6515 72.48L37.9315 72.54L38.5115 72.66C38.7015 72.71 38.9015 72.69 39.1015 72.71C39.2015 72.71 39.2815 72.73 39.4115 72.72H39.7615L40.4615 72.71L41.1615 72.7L41.5115 72.69H41.5215C41.5815 72.69 41.4315 72.69 41.4515 72.69H41.4715H41.5115L41.6015 72.68L41.7715 72.66C41.9815 72.63 42.2815 72.63 42.4215 72.57C42.5915 72.52 42.7515 72.47 42.9215 72.43L43.1915 72.37L43.4815 72.42L44.0815 72.54C44.2815 72.56 44.4915 72.56 44.6915 72.57C44.7615 72.58 44.9815 72.57 44.9815 72.57C44.9815 72.57 45.1115 72.56 45.0115 72.57L45.1015 72.56L45.2815 72.53L46.0115 72.42L47.4815 72.21L48.2115 72.11L48.5815 72.06L48.6715 72.05H48.6915C48.7115 72.05 48.5615 72.07 48.6315 72.06H48.6415L48.6915 72.05L48.8715 72.01L48.7815 72.03L53.1515 70.65L53.2215 70.63L53.2815 70.62L54.8315 70.4C55.3615 70.35 55.8815 70.32 56.4115 70.29C56.9215 70.27 57.4015 70.27 57.9015 70.27L59.3815 70.25L59.8315 70.24L60.2215 70.6C60.4915 70.84 60.7715 71.07 61.0815 71.27C61.3915 71.46 61.7215 71.64 62.0715 71.78C62.4115 71.93 62.7715 72.04 63.1415 72.12C63.5115 72.21 63.8915 72.26 64.2715 72.3C64.6615 72.31 65.0115 72.33 65.4815 72.32L66.8115 72.3L67.4815 72.29H67.6515H67.7315H67.7715H67.7915H67.8015C67.8915 72.29 67.6815 72.29 67.7015 72.29L68.0315 72.26C68.2215 72.23 68.5315 72.24 68.6315 72.18C68.7615 72.14 68.9015 72.1 69.0415 72.07L69.4615 71.99L69.8415 72.07L70.3515 72.18C70.5215 72.23 70.7015 72.21 70.8715 72.23C70.9615 72.23 71.0315 72.25 71.1515 72.25H71.4915H72.1815L72.8715 72.24H73.2215H73.2615H73.2715H73.2815C73.0715 72.25 73.2215 72.24 73.1815 72.24H73.2015L73.2915 72.23L73.4615 72.22C73.6715 72.19 73.9715 72.2 74.1015 72.15C74.2415 72.11 74.3815 72.07 74.5215 72.04L74.9515 71.96L75.3415 72.04L75.8415 72.15C76.0115 72.2 76.1815 72.18 76.3615 72.2C76.4515 72.2 76.5215 72.22 76.6315 72.22H76.9715L77.6615 72.21L78.3515 72.2H78.6915H78.7315H78.7415H78.7515C78.7715 72.2 78.5515 72.21 78.6415 72.2H78.6615L78.7515 72.19L78.9215 72.18C79.1315 72.15 79.4315 72.16 79.5515 72.11C79.6915 72.07 79.8215 72.03 79.9615 72L80.4015 71.91L80.8015 72L81.2915 72.11C81.4515 72.16 81.6215 72.14 81.7915 72.16L82.0515 72.18H82.3915L83.0715 72.17L83.7515 72.16H84.0915H84.1715H84.1915H84.2015C84.2915 72.16 84.0715 72.16 84.1015 72.16H84.1415L84.3115 72.15L84.6515 72.12C84.7515 72.11 84.9015 72.11 84.9515 72.08C85.0815 72.04 85.2115 72.01 85.3415 71.98L85.7315 71.91L86.1815 71.98C86.4615 72.03 86.7215 72.11 87.0115 72.11L87.2215 72.13C87.2515 72.13 87.2915 72.14 87.3415 72.13C87.2715 72.13 87.4115 72.13 87.4315 72.13L88.0215 72.1C88.3515 72.05 88.6015 72.04 88.9415 71.95C89.2615 71.89 89.5615 71.78 89.8615 71.69C90.1615 71.58 90.4415 71.45 90.7215 71.3C90.9915 71.15 91.2615 70.99 91.4915 70.79C91.7415 70.61 91.9515 70.4 92.1515 70.18C92.3515 69.96 92.5215 69.72 92.6715 69.47C92.8215 69.22 92.9315 68.96 93.0315 68.69C93.1115 68.41 93.1815 68.14 93.2215 67.85C93.2515 67.55 93.2615 67.31 93.2615 66.88V65.71L93.2515 61.03V60.74L93.3715 60.44C94.1515 58.47 94.8415 56.44 95.3615 54.36C95.6415 53.33 95.8415 52.28 96.0615 51.23C96.2115 50.18 96.4415 49.13 96.5315 48.07C96.6415 47.01 96.7815 45.95 96.7915 44.89L96.8515 43.3C96.8615 42.86 96.8315 42.23 96.8215 41.71C96.8115 40.58 96.6915 39.56 96.6015 38.52C96.4915 37.48 96.3215 36.41 96.1515 35.36C95.7815 33.26 95.2415 31.18 94.6115 29.14C94.4515 28.63 94.2915 28.12 94.1015 27.62L94.0015 27.24L93.9315 27.05L93.8615 26.84L93.8315 26.74L93.6215 25.94C93.4815 25.51 93.3215 24.41 93.3215 23.89L93.3315 22.24L93.4415 9.01V8.8V8.7V8.67C93.4415 8.72 93.4315 8.51 93.4515 8.78V8.73L93.4115 8.32L93.3315 7.5L93.3115 7.29L93.2615 7.15L93.1615 6.87C93.1015 6.68 93.0415 6.49 92.9915 6.3C92.7615 5.92 92.6015 5.49 92.3215 5.13C92.0115 4.8 91.8015 4.38 91.4215 4.13L90.9015 3.69C90.7315 3.54 90.5115 3.46 90.3215 3.34C90.1215 3.23 89.9315 3.1 89.7215 3.01L89.0715 2.8C88.6515 2.61 88.1815 2.62 87.7315 2.55L87.3915 2.51L86.9815 2.5L86.1515 2.49L72.9215 2.31L59.7015 2.08L56.3915 2.01C55.3015 2 54.1215 1.88 53.2415 2.1C52.2615 2.3 51.3215 2.73 50.5315 3.35C50.3315 3.5 50.1415 3.67 49.9715 3.86L49.7315 4.1L49.4815 4.43C49.1015 4.87 48.9215 5.3 48.6815 5.73L48.7115 5.63L48.1115 8.52L48.1215 8.43L48.1815 9.24C48.1915 9.5 48.2515 9.81 48.2915 10.08C48.3715 10.64 48.4615 11.22 48.5215 11.79C48.5515 12.06 48.5915 12.37 48.6115 12.66L48.6815 13.52L48.8215 15.23L48.9515 16.94C48.9715 17.22 48.9815 17.53 48.9915 17.8C48.9915 18.08 49.0215 18.38 49.0015 18.67C48.9915 19.24 48.9615 19.82 48.9215 20.39C48.9015 20.68 48.9015 20.96 48.8515 21.25L48.7315 22.1V22.11H48.7215H48.3615L48.7215 22.08L48.7115 22.09L48.7715 21.24C48.8015 20.96 48.7815 20.67 48.7815 20.38C48.7815 19.8 48.7715 19.24 48.7415 18.67C48.7415 18.38 48.6915 18.11 48.6715 17.82C48.6415 17.53 48.6215 17.26 48.5715 16.97L48.3315 15.27L48.1015 13.57L48.0015 12.73C47.9715 12.44 47.9215 12.19 47.8715 11.9C47.7815 11.33 47.6615 10.79 47.5515 10.22C47.5015 9.93 47.4315 9.67 47.4015 9.37L47.2915 8.47V8.45L47.3015 8.39L47.7515 5.47L47.7615 5.41L47.7815 5.37C48.0415 4.82 48.3015 4.23 48.6215 3.82L48.8515 3.48C48.9915 3.3 49.0615 3.24 49.1715 3.11C49.3615 2.88 49.5815 2.67 49.8015 2.48C50.7015 1.69 51.7915 1.11 52.9615 0.82C54.2515 0.49 55.2915 0.59 56.4015 0.53L59.7115 0.46L72.9415 0.22L86.1715 0.04L87.0015 0.03L87.4015 0L87.8815 0.04C88.5215 0.11 89.1815 0.11 89.7915 0.34L90.7215 0.62C91.0215 0.74 91.3015 0.91 91.5915 1.05C91.8715 1.21 92.1815 1.33 92.4315 1.53L93.1915 2.14C93.7315 2.52 94.0815 3.08 94.5115 3.56C94.9015 4.08 95.1715 4.68 95.4915 5.24L95.8115 6.25L95.9615 6.76C96.0215 6.94 96.0515 7.09 96.0515 7.22L96.1415 8.04L96.1815 8.45L96.1915 8.5L96.2015 8.69V8.79V9L96.3115 22.23L96.3215 23.88C96.3015 24.21 96.3815 24.27 96.3915 24.47L96.4215 24.72C96.4215 24.8 96.4815 24.97 96.5115 25.09L96.7315 25.89L96.7615 25.99C96.6915 25.78 96.7515 25.94 96.7315 25.9L96.7415 25.92L96.7615 25.97L96.8315 26.17L96.9815 26.57C97.1815 27.1 97.3515 27.64 97.5315 28.18C98.2215 30.34 98.7915 32.54 99.2015 34.78C99.4015 35.9 99.5815 37.01 99.7015 38.17C99.8115 39.32 99.9415 40.5 99.9515 41.58C99.9615 42.16 100.001 42.62 100.001 43.29L99.9415 45C99.9315 46.15 99.7915 47.28 99.6815 48.41C99.5915 49.55 99.3315 50.66 99.1615 51.79C98.9215 52.9 98.7015 54.02 98.4015 55.11C97.8415 57.31 97.1015 59.46 96.2415 61.58L96.3615 60.99L96.3515 65.67V66.84C96.3515 67.19 96.3415 67.72 96.2815 68.2C96.2215 68.69 96.1015 69.17 95.9415 69.64C95.7715 70.1 95.5615 70.55 95.3115 70.97C95.0515 71.39 94.7715 71.79 94.4415 72.14C94.1215 72.5 93.7715 72.84 93.3815 73.12C93.0115 73.42 92.6015 73.66 92.1915 73.89C91.7815 74.12 91.3515 74.29 90.9115 74.45C90.4715 74.59 90.0315 74.73 89.5815 74.81C89.1615 74.91 88.6315 74.96 88.1815 75L87.6015 75.02L87.3915 75.03L87.2215 75.02L86.8515 74.99C86.3515 74.98 85.8715 74.84 85.3815 74.73H86.2115C85.9015 74.8 85.5915 74.87 85.2815 74.92C85.1015 74.96 85.0315 74.95 84.9015 74.96L84.5615 74.98L84.3915 74.99L84.2015 75H84.1215H83.7815L83.1015 74.99L82.4215 74.98H82.0815L81.6615 74.95C81.3815 74.92 81.0915 74.92 80.8115 74.85L79.9815 74.65H80.8315C80.5215 74.73 80.2115 74.8 79.8915 74.86C79.5615 74.92 79.4115 74.9 79.1515 74.93L78.9815 74.94L78.8915 74.95L78.7015 74.96H78.3615H77.6715L77.0015 74.98H76.6615C76.5515 74.98 76.3815 74.96 76.2415 74.95C75.9615 74.92 75.6615 74.92 75.3815 74.85L74.5415 74.65H75.3615C75.0515 74.73 74.7415 74.79 74.4315 74.85C74.1115 74.91 73.9415 74.9 73.6915 74.92L73.5215 74.93L73.4315 74.94H73.2415H72.8915L72.2015 74.93H71.5115H71.1715C71.0615 74.93 70.8915 74.91 70.7615 74.9C70.4715 74.87 70.1915 74.87 69.9115 74.8L69.0815 74.6H69.8715C69.5815 74.67 69.2815 74.74 68.9815 74.79C68.6515 74.86 68.5115 74.83 68.2615 74.86L67.9315 74.88H67.5015L66.8315 74.87L65.5015 74.85C65.0815 74.85 64.5415 74.82 64.0515 74.78C63.5515 74.71 63.0515 74.64 62.5615 74.5C62.0715 74.37 61.5815 74.21 61.1215 73.99C60.6515 73.79 60.2015 73.53 59.7715 73.24C59.3415 72.95 58.9415 72.6 58.5615 72.24L59.4015 72.59L57.9215 72.57C57.4315 72.57 56.9315 72.55 56.4515 72.56C55.9915 72.58 55.5315 72.6 55.0715 72.63L53.6815 72.79L53.8015 72.76L49.3915 74L49.3315 74.02L49.3015 74.03L49.1215 74.06L48.9615 74.09L48.8715 74.1L48.5015 74.14L47.7615 74.22L46.2915 74.38L45.5515 74.46C45.4015 74.47 45.3715 74.48 45.1215 74.5C44.8815 74.51 44.8515 74.51 44.6715 74.5C44.3815 74.48 44.0915 74.46 43.8115 74.42L42.9615 74.22L43.5115 74.21L42.6515 74.4C42.3515 74.47 42.1615 74.44 41.9215 74.47L41.5015 74.49L41.1515 74.48L40.4515 74.47L39.7515 74.46H39.4015C39.2915 74.46 39.1415 74.44 39.0115 74.43C38.7415 74.4 38.4715 74.4 38.2115 74.33L37.4315 74.14H37.9215L37.0915 74.32C36.8115 74.38 36.6215 74.36 36.3715 74.38C36.2315 74.38 36.2015 74.4 35.9715 74.4L35.6215 74.39L34.9315 74.38C34.4515 74.36 34.0515 74.38 33.5115 74.32C33.2515 74.29 32.9915 74.29 32.7415 74.22L31.9815 74.03H32.4015L31.5915 74.2C31.3215 74.26 31.1215 74.24 30.8815 74.26C30.7415 74.26 30.7015 74.27 30.4915 74.27L30.1515 74.26L29.4615 74.24C28.9915 74.22 28.5715 74.24 28.0515 74.18C27.8015 74.15 27.5415 74.15 27.3015 74.08L26.5615 73.89H26.9015L26.1215 74.05C25.8615 74.1 25.6515 74.09 25.4115 74.11C25.2815 74.12 25.2215 74.13 25.0315 74.12L24.6915 74.11L24.0015 74.09C23.5315 74.07 23.1015 74.09 22.6015 74.03C22.3515 74 22.1015 74 21.8615 73.93L21.1415 73.74H21.4015C21.0715 73.81 20.7315 73.89 20.4215 73.93C20.1115 73.94 19.8515 73.97 19.4915 73.97L17.6915 73.92C17.0715 73.89 16.4515 73.83 15.8415 73.69C15.5315 73.63 15.2415 73.54 14.9415 73.44C14.6415 73.36 14.3615 73.21 14.0815 73.1C12.9715 72.55 11.9615 71.76 11.2915 70.72C10.9415 70.22 10.7015 69.64 10.5215 69.07C10.4415 68.78 10.3715 68.48 10.3415 68.18C10.3015 67.87 10.3315 67.57 10.3115 67.27Z" fill="#FF4815"/>
<path d="M6.5115 59.26L6.7315 56.54C7.9615 56.64 8.26149 55.43 8.34149 54.81C8.38149 54.3 8.32148 53.56 7.71148 53.51C6.57148 53.42 6.60149 59.07 2.87149 58.77C0.701485 58.59 -0.1085 56.47 0.0115001 55.04C0.1115 53.81 0.60149 52.6 1.75149 52.1L0.541499 51.86L0.741481 49.34L4.41149 49.64L4.2015 52.29C3.1215 52.2 2.4315 53 2.3515 54.02C2.3115 54.44 2.5315 55.05 3.0415 55.09C4.5515 55.21 4.6615 49.39 8.1015 49.67C10.3815 49.85 11.0315 52.06 10.8915 53.8C10.7715 55.28 10.0015 56.24 9.30148 56.75L10.4115 57L10.2015 59.56L6.5115 59.26Z" fill="#FF4815"/>
<path d="M2.02148 42.53C2.81148 39.22 4.38151 38.93 6.01151 39.32C7.89151 39.77 8.43151 41.7 7.95151 43.75L7.6915 44.83L9.90149 45.36L10.1115 44.49L11.9915 44.94L10.9015 49.54L9.02148 49.09L9.21149 48.29L2.99149 46.81L2.80148 47.61L0.931488 47.17L2.02148 42.53ZM6.15149 44.46L6.30148 43.82C6.50148 42.99 6.20151 42.32 5.45151 42.14C4.61151 41.94 4.03149 42.33 3.84149 43.16L3.67151 43.87L6.15149 44.46Z" fill="#FF4815"/>
<path d="M7.45151 28.49L10.3815 29.88L9.2915 32.17L8.11148 31.61L7.1015 33.73L8.93149 34.6L10.1215 32.08L11.8815 32.92L10.6915 35.44L12.8515 36.46L13.8515 34.34L12.6215 33.76L13.7115 31.47L16.7015 32.89L12.9115 40.88L11.1515 40.04L11.5515 39.21L5.80148 36.48L5.4115 37.31L3.6615 36.48L7.45151 28.49Z" fill="#FF4815"/>
<path d="M21.6515 24.51C21.8015 25.99 21.4915 27.77 20.2115 29.19C18.1315 31.5 15.2615 31.69 12.8315 29.5C10.3315 27.24 10.5315 24 11.8115 22.57C12.7915 21.48 13.8415 21.54 14.0615 21.56L13.6815 20.76L15.2215 19.05L18.3115 21.84L16.5515 23.79C15.8115 23.18 14.8415 22.93 14.1415 23.71C13.4315 24.49 13.9415 25.88 15.1315 26.95C16.2115 27.92 17.6815 28.24 18.6115 27.21C19.4415 26.29 19.1315 24.71 19.1115 24.52L21.6515 24.51Z" fill="#FF4815"/>
<path d="M21.9215 14.75L22.9415 16.4L22.1715 16.88L25.5115 22.3L26.2915 21.82L27.3115 23.48L23.1715 26.04L22.1515 24.38L22.9415 23.89L19.6015 18.47L18.8115 18.96L17.7915 17.31L21.9215 14.75Z" fill="#FF4815"/>
<path d="M32.6415 22.26L32.2215 20.38L33.5815 20.08L33.0615 19.17L30.1215 19.82L30.0415 20.86L31.1615 20.61L31.5815 22.49L27.0315 23.5L26.6115 21.62L27.5815 21.4L28.1215 14.68L27.5315 14.81L27.1215 12.96L32.6215 11.74L36.9615 19.31L37.9615 19.09L38.3815 20.97L32.6415 22.26ZM32.1615 17.57L30.5315 14.69L30.2915 17.99L32.1615 17.57Z" fill="#FF4815"/>
<path d="M43.7915 11.43L43.5915 13.35L42.8215 13.27L42.1515 19.6L44.0315 19.8L44.2315 17.95L46.6815 18.21L46.2815 22L38.1215 21.13L38.3315 19.19L39.1315 19.28L39.8015 12.95L39.0015 12.86L39.2015 10.94L43.7915 11.43Z" fill="#FF4815"/>
<path d="M90.4115 28.28C89.9915 27.16 89.5815 25.32 89.5815 24.12V8.66C89.5815 7.47 88.6115 6.5 87.4215 6.5H54.7315C53.5415 6.5 52.7715 7.45 52.9815 8.62C53.0215 8.86 53.0715 9.13 53.1115 9.41L56.6615 9.96C57.0415 9.52 57.5915 9.23 58.2215 9.23C59.3515 9.23 60.2715 10.15 60.2715 11.28C60.2715 12.41 59.3515 13.33 58.2215 13.33C57.3815 13.33 56.6615 12.82 56.3415 12.1L53.4615 11.66C53.7015 13.29 53.9115 15.14 54.0315 16.99L57.3415 18.62C57.6115 18.49 57.9115 18.41 58.2315 18.41C59.3615 18.41 60.2815 19.33 60.2815 20.47C60.2815 21.6 59.3615 22.52 58.2315 22.52C57.1015 22.52 56.1815 21.6 56.1815 20.47C56.1815 20.47 56.1815 20.47 56.1815 20.46L54.1315 19.45C54.1415 21.25 54.0015 22.92 53.6415 24.23C53.8815 24.27 54.1215 24.38 54.3015 24.58L56.4615 27.1C56.5915 27.07 56.7315 27.06 56.8715 27.06C58.0015 27.06 58.9215 27.98 58.9215 29.11C58.9215 30.24 58.0015 31.16 56.8715 31.16C55.7415 31.16 54.8215 30.24 54.8215 29.11C54.8215 28.93 54.8515 28.76 54.8915 28.59L52.7415 26.09C52.6815 26.16 52.6415 26.24 52.5815 26.3C51.8515 27.03 50.3115 27.32 48.5215 27.36L49.3515 30.01C50.2715 30.21 50.9615 31.03 50.9615 32.01C50.9615 33.14 50.0415 34.06 48.9115 34.06C47.7815 34.06 46.8615 33.14 46.8615 32.01C46.8615 31.53 47.0315 31.09 47.3215 30.74L46.2415 27.31C44.6815 27.21 43.1115 27.01 41.8215 26.81V30.27C42.4015 30.63 42.7915 31.27 42.7915 32.01C42.7915 33.14 41.8715 34.06 40.7415 34.06C39.6115 34.06 38.6815 33.14 38.6815 32.01C38.6815 31.28 39.0715 30.64 39.6515 30.27V26.43C39.2015 26.34 38.9415 26.29 38.9415 26.29C22.9415 26.29 15.5615 41.35 15.5615 59.93H38.9415H52.5815H89.6015C89.6015 59.93 93.2315 52.4 93.2315 43.11C93.2215 36.69 91.4815 31.12 90.4115 28.28ZM87.2715 8.81V13.51C84.5915 13.93 79.5315 14.61 75.1515 14.61C70.5215 14.61 69.1115 13.84 68.7815 13.6C68.3615 13.15 67.7515 11.12 67.2915 8.8H87.2715V8.81ZM88.0515 57.61H65.5215C66.6915 45.36 77.0315 35.75 89.5815 35.75C89.7615 35.75 89.9415 35.75 90.1315 35.76C90.6415 38.27 90.8915 40.74 90.8915 43.11C90.9015 49.55 89.0215 55.16 88.0515 57.61Z" fill="#FF4815"/>
<path d="M89.5915 67.27C89.5915 67.87 88.6215 68.35 87.4315 68.35C87.4315 68.35 87.4015 68.35 87.3515 68.35C87.3115 68.35 87.2815 68.23 87.2815 68.08V67.13C87.2815 66.98 87.1615 66.86 87.0115 66.86H84.8215C84.6715 66.86 84.5515 66.98 84.5515 67.13V68.08C84.5515 68.23 84.4315 68.35 84.2815 68.35H82.0915C81.9415 68.35 81.8215 68.23 81.8215 68.08V67.13C81.8215 66.98 81.7015 66.86 81.5515 66.86H79.3615C79.2115 66.86 79.0915 66.98 79.0915 67.13V68.08C79.0915 68.23 78.9615 68.35 78.8115 68.35H76.6215C76.4715 68.35 76.3515 68.23 76.3515 68.08V67.13C76.3515 66.98 76.2315 66.86 76.0815 66.86H73.8915C73.7415 66.86 73.6115 66.98 73.6115 67.13V68.08C73.6115 68.23 73.4915 68.35 73.3415 68.35H71.1515C71.0015 68.35 70.8815 68.23 70.8815 68.08V67.13C70.8815 66.98 70.7515 66.86 70.6015 66.86H68.4115C68.2615 66.86 68.1415 66.98 68.1415 67.13V68.08C68.1415 68.23 68.0215 68.35 67.8715 68.35H65.1115C63.9115 68.35 62.9415 67.87 62.9415 67.27V66.19H56.5715C55.3815 66.19 53.4615 66.38 52.2915 66.62L47.8815 67.93C47.0615 68.09 45.8915 68.23 44.8415 68.3C44.6915 68.31 44.5615 68.2 44.5615 68.04V66.78C44.5615 66.63 44.4415 66.51 44.2915 66.51H42.1015C41.9515 66.51 41.8315 66.63 41.8315 66.78V68.07C41.8315 68.22 41.7015 68.34 41.5615 68.34H39.3715C39.2215 68.34 39.1015 68.22 39.1015 68.07V66.78C39.1015 66.63 38.9815 66.51 38.8315 66.51H36.6415C36.4915 66.51 36.3715 66.63 36.3715 66.78V68.07C36.3715 68.22 36.2415 68.34 36.0915 68.34H33.9015C33.7515 68.34 33.6315 68.22 33.6315 68.07V66.78C33.6315 66.63 33.5015 66.51 33.3615 66.51H31.1715C31.0215 66.51 30.8915 66.63 30.8915 66.78V68.07C30.8915 68.22 30.7715 68.34 30.6215 68.34H28.4315C28.2815 68.34 28.1515 68.22 28.1515 68.07V66.78C28.1515 66.63 28.0315 66.51 27.8815 66.51H25.6915C25.5415 66.51 25.4215 66.63 25.4215 66.78V68.07C25.4215 68.22 25.3015 68.34 25.1515 68.34H22.9615C22.8115 68.34 22.6915 68.22 22.6915 68.07V66.78C22.6915 66.63 22.5615 66.51 22.4115 66.51H20.2215C20.0715 66.51 19.9515 66.63 19.9515 66.78V68.07C19.9515 68.22 19.8315 68.34 19.6715 68.34H17.7515C16.5515 68.34 15.5915 67.86 15.5915 67.26V66.18V62.24H89.6315V66.18C89.5915 66.19 89.5915 66.67 89.5915 67.27Z" fill="#FF4815"/>
<path d="M14.9615 86.28H18.6515C18.6515 87.95 20.3215 88.23 21.1515 88.27C21.8515 88.27 22.8415 88.11 22.8415 87.28C22.8415 85.73 15.2115 86.39 15.2115 81.32C15.2115 78.38 17.9915 77.05 19.9415 77.05C21.6115 77.05 23.3015 77.59 24.0915 79.08L24.2915 77.41H27.7115V82.39H24.1215C24.1215 80.92 22.9715 80.09 21.5815 80.09C21.0015 80.09 20.2115 80.45 20.2115 81.14C20.2115 83.18 28.0715 82.71 28.0715 87.38C28.0715 90.48 25.1715 91.59 22.8115 91.59C20.8115 91.59 19.4215 90.66 18.6615 89.76L18.4415 91.29H14.9715V86.28H14.9615Z" fill="#FF4815"/>
<path d="M35.4815 77.41V80.03H34.2515V83.03H38.0215V80.03H36.8515V77.41H43.3015V80.03H42.1515V88.67H43.3015V91.29H36.8515V88.67H38.0215V85.67H34.2515V88.67H35.4815V91.29H29.0515V88.67H30.1415V80.03H29.0515V77.41H35.4815Z" fill="#FF4815"/>
<path d="M44.0915 84.28C44.0915 79.99 46.9515 77.03 51.0615 77.03C55.9315 77.03 58.1915 79.95 58.1915 84.42C58.1915 88.91 55.6915 91.65 51.2015 91.65C47.0515 91.64 44.0915 89.24 44.0915 84.28ZM53.2315 84.42C53.2315 82.02 52.5715 80.09 51.0415 80.09C49.8315 80.07 49.0015 81.82 49.0015 84.28C49.0015 86.88 49.9315 88.53 51.2115 88.53C52.4515 88.53 53.2315 86.88 53.2315 84.42Z" fill="#FF4815"/>
<path d="M70.9515 77.41V81.8H67.5115V80.03H64.3315V82.77H68.1115V85.41H64.3315V88.65H67.5115V86.8H70.9515V91.29H58.9815V88.65H60.2315V80.03H58.9815V77.41H70.9515Z" fill="#FF4815"/>
<path d="M71.9415 86.28H75.6415C75.6415 87.95 77.3115 88.23 78.1415 88.27C78.8415 88.27 79.8315 88.11 79.8315 87.28C79.8315 85.73 72.2015 86.39 72.2015 81.32C72.2015 78.38 74.9815 77.05 76.9315 77.05C78.6015 77.05 80.2915 77.59 81.0815 79.08L81.2815 77.41H84.7015V82.39H81.1115C81.1115 80.92 79.9615 80.09 78.5715 80.09C77.9915 80.09 77.2015 80.45 77.2015 81.14C77.2015 83.18 85.0615 82.71 85.0615 87.38C85.0615 90.48 82.1615 91.59 79.8015 91.59C77.8015 91.59 76.4015 90.66 75.6515 89.76L75.4315 91.29H71.9515V86.28H71.9415Z" fill="#FF4815"/>
</svg>
