<svg width="47" height="52" viewBox="0 0 47 52" fill="none" xmlns="http://www.w3.org/2000/svg">
<path d="M34.0331 39.64C33.8353 39.64 33.642 39.6987 33.4775 39.8085C33.3131 39.9184 33.1849 40.0746 33.1092 40.2573C33.0335 40.4401 33.0137 40.6411 33.0523 40.8351C33.0909 41.0291 33.1862 41.2073 33.326 41.3471C33.4659 41.487 33.644 41.5822 33.838 41.6208C34.032 41.6594 34.2331 41.6396 34.4158 41.5639C34.5985 41.4882 34.7547 41.36 34.8646 41.1956C34.9745 41.0311 35.0331 40.8378 35.0331 40.64C35.0331 40.3748 34.9277 40.1205 34.7402 39.9329C34.5527 39.7454 34.2983 39.64 34.0331 39.64Z" fill="#FF4815"/>
<path d="M36.5001 36.4L31.7421 34.814L30.0331 31.4C31.5869 29.8119 32.6216 27.7893 33.0001 25.6L33.2131 24.323H35.0351C35.8303 24.3214 36.5924 24.0048 37.1547 23.4426C37.717 22.8803 38.0335 22.1182 38.0351 21.323V15.015C38.0351 13.0432 37.6467 11.0907 36.8922 9.26901C36.1376 7.4473 35.0316 5.79206 33.6373 4.39779C32.2431 3.00352 30.5878 1.89752 28.7661 1.14295C26.9444 0.388374 24.9919 0 23.0201 0C21.0483 0 19.0958 0.388374 17.2741 1.14295C15.4524 1.89752 13.7972 3.00352 12.4029 4.39779C11.0086 5.79206 9.90265 7.4473 9.14807 9.26901C8.3935 11.0907 8.00512 13.0432 8.00512 15.015V21.321C8.00576 21.9415 8.1983 22.5467 8.55635 23.0535C8.91441 23.5604 9.42046 23.9441 10.0051 24.152V25.325C10.0067 26.1202 10.3233 26.8823 10.8856 27.4446C11.4478 28.0068 12.21 28.3234 13.0051 28.325H13.8841C14.3168 29.2674 14.8822 30.1429 15.5631 30.925C15.7051 31.088 15.8531 31.246 16.0041 31.4L14.2971 34.814L9.54712 36.4C4.01512 38.248 0.00012207 44.072 0.00012207 50.251C0.00012207 50.5162 0.105478 50.7706 0.293015 50.9581C0.480551 51.1456 0.734906 51.251 1.00012 51.251H45.0451C45.3103 51.251 45.5647 51.1456 45.7522 50.9581C45.9398 50.7706 46.0451 50.5162 46.0451 50.251C46.0461 44.072 42.0311 38.248 36.5001 36.4ZM36.0371 21.318C36.0371 21.5832 35.9318 21.8376 35.7442 22.0251C35.5567 22.2126 35.3023 22.318 35.0371 22.318H33.5081C33.7621 20.347 33.9321 18.25 34.0001 16.184C34.0001 16.126 34.0001 16.069 34.0051 16.012H36.0361L36.0371 21.318ZM11.0121 22.318C10.7469 22.318 10.4926 22.2126 10.305 22.0251C10.1175 21.8376 10.0121 21.5832 10.0121 21.318V16.016H12.0441C12.0441 16.1207 12.0478 16.2257 12.0551 16.331C12.0551 16.331 12.0551 16.338 12.0551 16.342C12.1251 18.351 12.2921 20.394 12.5411 22.322H11.0111L11.0121 22.318ZM13.0121 26.318C12.7469 26.318 12.4926 26.2126 12.305 26.0251C12.1175 25.8376 12.0121 25.5832 12.0121 25.318V24.318H12.8331L13.0461 25.595C13.0871 25.838 13.1371 26.08 13.1941 26.32L13.0121 26.318ZM12.0121 14.006H10.0481C10.3017 10.7386 11.7786 7.68709 14.1839 5.46116C16.5893 3.23523 19.7459 1.99876 23.0231 1.99876C26.3004 1.99876 29.457 3.23523 31.8623 5.46116C34.2676 7.68709 35.7446 10.7386 35.9981 14.006H34.0331C33.9982 11.3444 32.918 8.8033 31.0258 6.93124C29.1335 5.05918 26.5809 4.00633 23.9191 4H22.1271C19.4641 4.00663 16.9106 5.06069 15.0183 6.93444C13.1261 8.80819 12.0469 11.3512 12.0141 14.014L12.0121 14.006ZM22.1271 6.006H23.9191C26.0749 6.01315 28.1397 6.87514 29.6607 8.40286C31.1817 9.93058 32.0345 11.9992 32.0321 14.155C32.0321 14.47 32.0321 14.744 32.0241 14.994C32.0241 14.994 32.0241 15.001 32.0241 15.004L30.7721 14.825C27.3497 14.328 24.1786 12.7412 21.7291 10.3C21.6362 10.207 21.5258 10.1333 21.4043 10.083C21.2828 10.0327 21.1526 10.0069 21.0211 10.007C19.6898 10.0103 18.3756 10.3072 17.1721 10.8763C15.9686 11.4455 14.9053 12.273 14.0581 13.3C14.2661 11.3029 15.2052 9.45315 16.6948 8.10666C18.1844 6.76017 20.1192 6.01198 22.1271 6.006ZM15.2691 26.327C14.5923 23.1289 14.1909 19.8787 14.0691 16.612L15.4161 14.812C16.0305 13.9971 16.8146 13.3253 17.7142 12.8433C18.6138 12.3612 19.6073 12.0803 20.6261 12.02C23.3409 14.5953 26.7869 16.2663 30.4901 16.803L31.9641 17.014C31.8641 19.105 31.6641 21.203 31.3761 23.132C31.2841 23.752 31.2121 24.152 31.0271 25.267C30.7748 26.8624 30.0732 28.3529 29.0044 29.5639C27.9356 30.775 26.5438 31.6564 24.9921 32.105C23.3077 32.5394 21.5268 32.404 19.9275 31.7198C18.3281 31.0357 17.0002 29.8412 16.1511 28.323H18.1901C18.3981 28.9077 18.7818 29.4137 19.2886 29.7718C19.7954 30.1298 20.4006 30.3224 21.0211 30.323H23.0211C23.8176 30.323 24.5814 30.0066 25.1446 29.4434C25.7077 28.8803 26.0241 28.1164 26.0241 27.32C26.0241 26.5236 25.7077 25.7597 25.1446 25.1966C24.5814 24.6334 23.8176 24.317 23.0211 24.317H21.0211C20.4 24.3161 19.7938 24.5079 19.2864 24.8662C18.7789 25.2244 18.3952 25.7314 18.1881 26.317L15.2691 26.327ZM20.9371 34.136C22.162 34.3959 23.4247 34.4244 24.6601 34.22L22.8911 36.091L20.9371 34.136ZM21.5151 37.546L18.3401 40.9C17.4653 39.2246 16.7162 37.4865 16.0991 35.7L17.2911 33.315L21.5151 37.546ZM28.5851 32.983L29.9471 35.707C29.33 37.4935 28.581 39.2316 27.7061 40.907L24.3061 37.507L28.5851 32.983ZM20.0201 27.328C20.0201 27.0628 20.1255 26.8084 20.313 26.6209C20.5006 26.4334 20.7549 26.328 21.0201 26.328H23.0201C23.2853 26.328 23.5397 26.4334 23.7272 26.6209C23.9148 26.8084 24.0201 27.0628 24.0201 27.328C24.0201 27.5932 23.9148 27.8476 23.7272 28.0351C23.5397 28.2226 23.2853 28.328 23.0201 28.328H21.0201C20.7549 28.328 20.5006 28.2226 20.313 28.0351C20.1255 27.8476 20.0201 27.5932 20.0201 27.328ZM2.04212 49.25C2.21025 46.8379 3.06615 44.5246 4.50844 42.5839C5.95074 40.6432 7.919 39.1566 10.1801 38.3L14.3941 36.9C15.1671 39.037 16.1202 41.1044 17.2431 43.08L17.2491 43.09C18.0746 44.5403 18.9897 45.9376 19.9891 47.274L21.2201 49.25H2.04212ZM23.0231 48.358L21.6651 46.178C21.6498 46.1533 21.6335 46.1297 21.6161 46.107C20.8053 45.0244 20.0525 43.8995 19.3611 42.737L22.9311 38.962L26.6931 42.724C25.9996 43.8912 25.2441 45.0204 24.4301 46.107C24.3811 46.172 24.4501 46.069 23.0231 48.357V48.358ZM24.8231 49.25L26.0541 47.273C27.0612 45.9265 27.9827 44.5181 28.8131 43.056L28.8281 43.029C29.94 41.069 30.8847 39.0187 31.6521 36.9L35.8661 38.3C38.1265 39.1572 40.0939 40.6441 41.5355 42.5847C42.977 44.5253 43.8323 46.8384 44.0001 49.25H24.8261H24.8231Z" fill="#FF4815"/>
<path d="M40.9961 45.1989C40.3221 43.8538 39.3534 42.678 38.1621 41.7589C38.0579 41.6788 37.9389 41.6199 37.812 41.5857C37.685 41.5515 37.5526 41.5427 37.4222 41.5597C37.2918 41.5767 37.1661 41.6192 37.0521 41.6848C36.9382 41.7503 36.8383 41.8378 36.7581 41.942C36.678 42.0462 36.6191 42.1651 36.5849 42.2921C36.5507 42.419 36.5419 42.5515 36.5588 42.6819C36.5758 42.8122 36.6183 42.938 36.6839 43.0519C36.7495 43.1659 36.8369 43.2658 36.9411 43.3459C37.8924 44.0802 38.6659 45.0195 39.2041 46.094C39.2629 46.2116 39.3442 46.3164 39.4435 46.4026C39.5428 46.4887 39.6581 46.5545 39.7828 46.5961C39.9076 46.6377 40.0392 46.6543 40.1704 46.6451C40.3015 46.6358 40.4295 46.6007 40.5471 46.542C40.6647 46.4832 40.7696 46.4018 40.8558 46.3025C40.9419 46.2032 41.0077 46.0879 41.0493 45.9632C41.0909 45.8385 41.1075 45.7069 41.0982 45.5757C41.0889 45.4446 41.0539 45.3165 40.9951 45.1989H40.9961Z" fill="#FF4815"/>
</svg>
