<svg width="23" height="18" viewBox="0 0 23 18" fill="none" xmlns="http://www.w3.org/2000/svg">
<path d="M18.5775 1.66767C18.5775 1.66767 17.4563 0.342013 15.4956 0.404353C13.1743 0.479529 11.0184 1.86569 11.2663 5.41911C11.2663 5.41911 7.76932 6.45874 2.32861 1.40731C2.32861 1.40731 0.578278 4.1943 3.6733 6.81994C3.6733 6.81994 2.80377 7.05464 1.64313 6.4239C1.64313 6.4239 1.02149 8.77634 5.00484 10.5604C5.00484 10.5604 3.66016 10.9326 3.05167 10.5604C3.05167 10.5604 3.40662 13.0613 6.98431 13.6573C6.98431 13.6573 5.14569 15.4413 0.79425 15.3918C0.79425 15.3918 9.8427 19.9115 16.1154 14.1028C20.5945 9.95531 19.9729 4.41799 19.9729 4.41799C19.9729 4.41799 21.2913 4.02195 22.0782 2.62295C22.0782 2.62295 20.5814 3.08134 19.7194 3.00616C19.7194 3.00616 21.3683 2.00138 21.496 0.813235C21.4941 0.813235 20.0875 1.79235 18.5775 1.66767Z" fill="#FF4815"/>
</svg>
