<svg width="45" height="50" viewBox="0 0 45 50" fill="none" xmlns="http://www.w3.org/2000/svg">
<path d="M41.0754 6.50338H40.4854C41.0659 5.54891 41.2509 4.40378 41.0008 3.31376C40.7507 2.22374 40.0854 1.27571 39.1477 0.673138C38.21 0.0705663 37.0747 -0.138519 35.9853 0.0907585C34.896 0.320036 33.9395 0.969401 33.3212 1.89948L30.2561 6.50338H3.92464C2.88416 6.50467 1.88666 6.92068 1.15092 7.66017C0.415184 8.39966 0.00128376 9.40225 0 10.448V35.6715C0.00128376 36.7173 0.415184 37.7198 1.15092 38.4593C1.88666 39.1988 2.88416 39.6148 3.92464 39.6161H19.1711L18.0175 44.4794H15.5327C14.7535 44.4802 14.0064 44.7917 13.4554 45.3454C12.9044 45.8992 12.5946 46.6501 12.5938 47.4333V48.0496H9.52975C9.27243 48.0496 9.02564 48.1524 8.84369 48.3352C8.66173 48.5181 8.55951 48.7662 8.55951 49.0248C8.55951 49.2834 8.66173 49.5315 8.84369 49.7144C9.02564 49.8973 9.27243 50 9.52975 50H35.4712C35.7285 50 35.9753 49.8973 36.1573 49.7144C36.3392 49.5315 36.4415 49.2834 36.4415 49.0248C36.4415 48.7662 36.3392 48.5181 36.1573 48.3352C35.9753 48.1524 35.7285 48.0496 35.4712 48.0496H32.4062V47.4333C32.4054 46.6499 32.0954 45.8989 31.5442 45.3451C30.9931 44.7913 30.2457 44.4799 29.4664 44.4794H26.9816L25.8299 39.6161H41.0754C42.1158 39.6148 43.1133 39.1988 43.8491 38.4593C44.5848 37.7198 44.9987 36.7173 45 35.6715V10.449C44.9987 9.40305 44.5847 8.40032 43.8487 7.6608C43.1128 6.92128 42.115 6.50539 41.0744 6.50435L41.0754 6.50338ZM27.1533 23.6668C25.6339 24.7395 22.7872 23.2826 20.0705 24.7395C19.4078 21.2766 19.825 18.0204 23.2772 17.3017C23.7163 17.2106 24.1639 17.1678 24.6122 17.174L28.1284 19.7972C28.4358 20.4559 28.5071 21.201 28.3303 21.9065C28.1534 22.6119 27.7393 23.2342 27.1582 23.6678L27.1533 23.6668ZM28.1323 13.1991L30.8829 15.247L28.7688 17.8468L26.2791 15.994L28.1323 13.1991ZM34.9356 2.98585C35.11 2.72567 35.335 2.5037 35.5971 2.33337C35.8591 2.16304 36.1529 2.04787 36.4605 1.99482C36.7681 1.94178 37.0832 1.95195 37.3867 2.02474C37.6903 2.09752 37.9761 2.2314 38.2267 2.41829C38.4774 2.60518 38.6878 2.84121 38.8451 3.1121C39.0025 3.383 39.1036 3.68314 39.1423 3.99441C39.181 4.30567 39.1566 4.6216 39.0704 4.9231C38.9842 5.22459 38.8382 5.50541 38.641 5.74858L32.1171 13.7452L29.2151 11.5812L34.9356 2.98585ZM30.4628 47.4333V48.0496H14.5372V47.4333C14.5374 47.168 14.6424 46.9137 14.829 46.7261C15.0157 46.5385 15.2687 46.433 15.5327 46.4327H29.4664C29.7305 46.4327 29.9838 46.5381 30.1706 46.7257C30.3575 46.9133 30.4626 47.1678 30.4628 47.4333ZM24.9838 44.4794H20.0171L21.1688 39.6161H23.8321L24.9838 44.4794ZM43.0576 35.6715C43.0571 36.1997 42.8481 36.7062 42.4764 37.0797C42.1048 37.4532 41.6009 37.6633 41.0754 37.6638H3.92561C3.40006 37.6633 2.89617 37.4532 2.52455 37.0797C2.15292 36.7062 1.94392 36.1997 1.9434 35.6715V31.0978H4.72025C4.97757 31.0978 5.22436 30.9951 5.40631 30.8122C5.58827 30.6293 5.69049 30.3812 5.69049 30.1226C5.69049 29.864 5.58827 29.6159 5.40631 29.433C5.22436 29.2501 4.97757 29.1474 4.72025 29.1474H1.9434V10.449C1.94392 9.92078 2.15292 9.41432 2.52455 9.0408C2.89617 8.66728 3.40006 8.45721 3.92561 8.45669H28.958L24.4512 15.2255C23.5067 15.2017 22.5681 15.3808 21.6981 15.7508C20.828 16.1207 20.0465 16.6731 19.4059 17.371C17.7128 19.3574 17.4149 22.48 18.522 26.6499C18.5652 26.814 18.6502 26.9639 18.7687 27.0849C18.8872 27.2058 19.035 27.2936 19.1976 27.3395C19.3602 27.3854 19.5319 27.3878 19.6957 27.3466C19.8595 27.3054 20.0098 27.2219 20.1316 27.1044C22.6436 24.6917 25.7726 27.3238 28.5728 25.0438C29.3667 24.3637 29.9335 23.4547 30.1965 22.4401C30.4594 21.4254 30.4057 20.3541 30.0427 19.3711L38.9447 8.45669H41.0792C41.6048 8.45721 42.1087 8.66728 42.4803 9.0408C42.8519 9.41432 43.0609 9.92078 43.0614 10.449V29.1445H12.4987C12.2414 29.1445 11.9946 29.2472 11.8126 29.4301C11.6307 29.613 11.5285 29.861 11.5285 30.1197C11.5285 30.3783 11.6307 30.6264 11.8126 30.8092C11.9946 30.9921 12.2414 31.0949 12.4987 31.0949H43.0614L43.0576 35.6715Z" fill="#FF4815"/>
<path d="M8.4188 29.1632C8.23078 29.2011 8.05818 29.2943 7.9228 29.4308C7.78741 29.5674 7.69532 29.7412 7.65816 29.9303C7.621 30.1194 7.64043 30.3153 7.714 30.4933C7.78757 30.6714 7.91197 30.8234 8.0715 30.9304C8.23103 31.0374 8.41853 31.0945 8.61032 31.0944C8.8021 31.0944 8.98957 31.0372 9.14903 30.9301C9.3085 30.823 9.43281 30.6708 9.50627 30.4928C9.57973 30.3147 9.59903 30.1188 9.56175 29.9297C9.53694 29.8038 9.48767 29.6841 9.41676 29.5775C9.34585 29.4708 9.2547 29.3792 9.14853 29.308C9.04235 29.2368 8.92324 29.1874 8.79803 29.1625C8.67281 29.1377 8.54394 29.1379 8.4188 29.1632V29.1632Z" fill="#FF4815"/>
</svg>
