<svg width="20" height="15" viewBox="0 0 20 15" fill="none" xmlns="http://www.w3.org/2000/svg">
<path d="M1.08173 2.04176C1.08123 2.20756 1.12994 2.36977 1.22168 2.50787C1.31343 2.64597 1.44409 2.75374 1.59713 2.81754C1.75016 2.88134 1.91869 2.89829 2.08136 2.86625C2.24403 2.83421 2.39354 2.75463 2.51096 2.63757C2.62837 2.52051 2.70841 2.37124 2.74094 2.20866C2.77347 2.04609 2.75703 1.87751 2.6937 1.72429C2.63036 1.57106 2.52299 1.44007 2.38517 1.34791C2.24735 1.25574 2.08528 1.20654 1.91948 1.20654C1.69773 1.20654 1.48503 1.29446 1.32799 1.45102C1.17096 1.60758 1.0824 1.82002 1.08173 2.04176ZM2.19991 2.04176C2.20041 2.09743 2.18436 2.15199 2.1538 2.19853C2.12323 2.24506 2.07954 2.28146 2.02825 2.30311C1.97696 2.32476 1.92039 2.33069 1.86573 2.32013C1.81107 2.30958 1.76078 2.28303 1.72123 2.24384C1.68169 2.20465 1.65468 2.1546 1.64363 2.10004C1.63259 2.04547 1.638 1.98886 1.65919 1.93737C1.68037 1.88589 1.71638 1.84187 1.76263 1.81088C1.80889 1.7799 1.8633 1.76336 1.91897 1.76335C1.99313 1.76308 2.06436 1.79225 2.11703 1.84445C2.1697 1.89664 2.19951 1.96761 2.19991 2.04176Z" fill="white"/>
<path d="M3.50385 2.04176C3.50335 2.20756 3.55205 2.36977 3.6438 2.50787C3.73555 2.64597 3.86621 2.75374 4.01925 2.81754C4.17228 2.88134 4.3408 2.89829 4.50348 2.86625C4.66615 2.83421 4.81566 2.75463 4.93307 2.63757C5.05049 2.52051 5.13053 2.37124 5.16306 2.20866C5.19559 2.04609 5.17915 1.87751 5.11582 1.72429C5.05248 1.57106 4.94511 1.44007 4.80729 1.34791C4.66946 1.25574 4.5074 1.20654 4.3416 1.20654C4.11985 1.20654 3.90715 1.29446 3.75011 1.45102C3.59308 1.60758 3.50452 1.82002 3.50385 2.04176ZM4.62203 2.04176C4.62253 2.09743 4.60648 2.15199 4.57592 2.19853C4.54535 2.24506 4.50165 2.28146 4.45036 2.30311C4.39908 2.32476 4.34251 2.33069 4.28785 2.32013C4.23319 2.30958 4.1829 2.28303 4.14335 2.24384C4.10381 2.20465 4.0768 2.1546 4.06575 2.10004C4.0547 2.04547 4.06012 1.98886 4.08131 1.93737C4.10249 1.88589 4.1385 1.84187 4.18475 1.81088C4.231 1.7799 4.28542 1.76336 4.34109 1.76335C4.37789 1.76309 4.41439 1.77008 4.44848 1.78393C4.48258 1.79779 4.51361 1.81823 4.5398 1.84409C4.56599 1.86995 4.58682 1.90072 4.6011 1.93463C4.61539 1.96855 4.62284 2.00496 4.62304 2.04176H4.62203Z" fill="white"/>
<path d="M5.85816 2.04176C5.85766 2.20756 5.90637 2.36977 5.99811 2.50787C6.08986 2.64597 6.22052 2.75374 6.37356 2.81754C6.52659 2.88134 6.69512 2.89829 6.85779 2.86625C7.02046 2.83421 7.16997 2.75463 7.28739 2.63757C7.4048 2.52051 7.48484 2.37124 7.51737 2.20866C7.5499 2.04609 7.53346 1.87751 7.47012 1.72429C7.40679 1.57106 7.29942 1.44007 7.16159 1.34791C7.02377 1.25574 6.8617 1.20654 6.69591 1.20654C6.47416 1.20654 6.26146 1.29446 6.10443 1.45102C5.94739 1.60758 5.85883 1.82002 5.85816 2.04176ZM6.97634 2.04176C6.97684 2.09743 6.96079 2.15199 6.93023 2.19853C6.89966 2.24506 6.85596 2.28146 6.80467 2.30311C6.75339 2.32476 6.69683 2.33069 6.64216 2.32013C6.5875 2.30958 6.53721 2.28303 6.49766 2.24384C6.45812 2.20465 6.43111 2.1546 6.42006 2.10004C6.40902 2.04547 6.41443 1.98886 6.43562 1.93737C6.45681 1.88589 6.49281 1.84187 6.53906 1.81088C6.58532 1.7799 6.63973 1.76336 6.6954 1.76335C6.76956 1.76308 6.84079 1.79225 6.89346 1.84445C6.94613 1.89664 6.97593 1.96761 6.97634 2.04176Z" fill="white"/>
<path d="M9.5053 13.0067C10.2488 13.004 10.9748 12.7811 11.5916 12.366C12.2085 11.951 12.6886 11.3625 12.9712 10.6749C13.2538 9.98723 13.3264 9.23125 13.1797 8.50239C13.033 7.77353 12.6736 7.10448 12.147 6.57972C11.6203 6.05496 10.9499 5.69801 10.2206 5.55396C9.49117 5.40991 8.73546 5.4852 8.04883 5.77034C7.36221 6.05547 6.77547 6.53766 6.36269 7.15602C5.94992 7.77439 5.72962 8.5012 5.72961 9.24467C5.7339 10.2435 6.1335 11.1999 6.84104 11.9049C7.54859 12.6099 8.5065 13.006 9.5053 13.0067ZM9.5053 6.12248C9.94806 6.52191 10.3067 7.00565 10.5602 7.54538H8.4342C8.69428 7.00602 9.05787 6.52306 9.50429 6.12399L9.5053 6.12248ZM10.7708 8.10219C10.9733 8.80075 10.9865 9.54055 10.8093 10.2459H8.18009C7.9973 9.54114 8.01095 8.79976 8.21957 8.10219H10.7708ZM12.7252 9.24315C12.7255 9.5839 12.6709 9.92248 12.5637 10.2459H11.3818C11.5375 9.53847 11.5261 8.80444 11.3483 8.10219H12.5126C12.6528 8.46692 12.7246 8.85441 12.7242 9.24517L12.7252 9.24315ZM9.5053 12.3643C9.02084 11.9307 8.63504 11.3982 8.37396 10.8027H10.6215C10.3669 11.3986 9.98565 11.932 9.50429 12.3659L9.5053 12.3643ZM7.60151 10.2474H6.44587C6.21666 9.54816 6.23454 8.79138 6.4965 8.10371H7.63644C7.45787 8.80584 7.44643 9.54007 7.60303 10.2474H7.60151ZM6.69036 10.8042H7.76451C7.9764 11.3719 8.29188 11.8952 8.69489 12.3476C8.27479 12.2381 7.88108 12.0451 7.53727 11.78C7.19347 11.5149 6.90664 11.1832 6.69391 10.8048L6.69036 10.8042ZM10.2924 12.3517C10.6917 11.8965 11.0041 11.3721 11.2142 10.8042H12.3132C12.0991 11.1853 11.81 11.519 11.4633 11.785C11.1166 12.0511 10.7194 12.2441 10.296 12.3522L10.2924 12.3517ZM12.2306 7.5469H11.1611C10.9521 7.03218 10.6585 6.55603 10.2924 6.13816C11.0965 6.34101 11.7918 6.84543 12.2342 7.5469H12.2306ZM8.69539 6.14221C8.32595 6.55759 8.02952 7.03254 7.81867 7.5469H6.77642C7.21488 6.85104 7.90229 6.34866 8.69844 6.14221H8.69539Z" fill="white"/>
<path d="M9.1985 1.76335H10.0995C10.1734 1.76335 10.2442 1.73402 10.2964 1.68181C10.3486 1.6296 10.3779 1.55879 10.3779 1.48495C10.3779 1.41111 10.3486 1.3403 10.2964 1.28809C10.2442 1.23588 10.1734 1.20654 10.0995 1.20654H9.1985C9.08881 1.20654 8.98021 1.22814 8.87887 1.27012C8.77754 1.31209 8.68547 1.37362 8.60791 1.45117C8.53035 1.52873 8.46883 1.6208 8.42686 1.72214C8.38488 1.82347 8.36328 1.93208 8.36328 2.04176C8.36328 2.15144 8.38488 2.26005 8.42686 2.36138C8.46883 2.46272 8.53035 2.55479 8.60791 2.63235C8.68547 2.70991 8.77754 2.77143 8.87887 2.8134C8.98021 2.85537 9.08881 2.87698 9.1985 2.87698H17.0278C17.1375 2.87698 17.2461 2.85537 17.3474 2.8134C17.4487 2.77143 17.5408 2.70991 17.6184 2.63235C17.6959 2.55479 17.7574 2.46272 17.7994 2.36138C17.8414 2.26005 17.863 2.15144 17.863 2.04176C17.863 1.93208 17.8414 1.82347 17.7994 1.72214C17.7574 1.6208 17.6959 1.52873 17.6184 1.45117C17.5408 1.37362 17.4487 1.31209 17.3474 1.27012C17.2461 1.22814 17.1375 1.20654 17.0278 1.20654H11.3989C11.3624 1.20654 11.3262 1.21374 11.2924 1.22773C11.2586 1.24172 11.2279 1.26224 11.2021 1.28809C11.1762 1.31394 11.1557 1.34463 11.1417 1.37841C11.1277 1.41218 11.1205 1.44839 11.1205 1.48495C11.1205 1.52151 11.1277 1.55771 11.1417 1.59149C11.1557 1.62527 11.1762 1.65596 11.2021 1.68181C11.2279 1.70767 11.2586 1.72817 11.2924 1.74216C11.3262 1.75615 11.3624 1.76335 11.3989 1.76335H17.0278C17.1016 1.76335 17.1724 1.79269 17.2246 1.8449C17.2768 1.89711 17.3062 1.96792 17.3062 2.04176C17.3062 2.1156 17.2768 2.18641 17.2246 2.23862C17.1724 2.29083 17.1016 2.32016 17.0278 2.32016H9.1985C9.12466 2.32016 9.05385 2.29083 9.00164 2.23862C8.94943 2.18641 8.9201 2.1156 8.9201 2.04176C8.9201 1.96792 8.94943 1.89711 9.00164 1.8449C9.05385 1.79269 9.12466 1.76335 9.1985 1.76335Z" fill="white"/>
<path d="M17.6155 0H1.39254C1.02334 0.00040196 0.669372 0.147244 0.408308 0.408308C0.147244 0.669372 0.00040196 1.02333 0 1.39253L0 5.12419C0 5.19802 0.029332 5.26884 0.0815432 5.32105C0.133754 5.37326 0.204568 5.40259 0.278406 5.40259C0.352244 5.40259 0.423057 5.37326 0.475268 5.32105C0.52748 5.26884 0.556812 5.19802 0.556812 5.12419V4.03182H14.7018C14.7757 4.03182 14.8465 4.00249 14.8987 3.95028C14.9509 3.89807 14.9803 3.82725 14.9803 3.75342C14.9803 3.67958 14.9509 3.60877 14.8987 3.55655C14.8465 3.50434 14.7757 3.47501 14.7018 3.47501H0.556812V1.39253C0.557079 1.1711 0.645161 0.958819 0.801737 0.802243C0.958313 0.645667 1.1706 0.557587 1.39203 0.557319H17.6155C17.8369 0.557587 18.0492 0.645667 18.2058 0.802243C18.3624 0.958819 18.4504 1.1711 18.4507 1.39253V3.47501H16.0372C15.9633 3.47501 15.8925 3.50434 15.8403 3.55655C15.7881 3.60877 15.7588 3.67958 15.7588 3.75342C15.7588 3.82725 15.7881 3.89807 15.8403 3.95028C15.8925 4.00249 15.9633 4.03182 16.0372 4.03182H18.4532V13.608C18.453 13.8294 18.3649 14.0417 18.2083 14.1983C18.0517 14.3548 17.8395 14.4429 17.618 14.4432H12.2154C12.1416 14.4432 12.0708 14.4725 12.0186 14.5247C11.9664 14.5769 11.937 14.6478 11.937 14.7216C11.937 14.7954 11.9664 14.8662 12.0186 14.9185C12.0708 14.9707 12.1416 15 12.2154 15H17.6155C17.9847 14.9996 18.3387 14.8528 18.5997 14.5917C18.8608 14.3306 19.0076 13.9767 19.008 13.6075V1.39253C19.0076 1.02333 18.8608 0.669372 18.5997 0.408308C18.3387 0.147244 17.9847 0.00040196 17.6155 0Z" fill="white"/>
<path d="M10.916 14.443H1.39252C1.17109 14.4428 0.958801 14.3547 0.802225 14.1981C0.64565 14.0415 0.557568 13.8293 0.5573 13.6078V6.42294C0.5573 6.38638 0.550099 6.35017 0.536108 6.3164C0.522116 6.28262 0.501609 6.25192 0.475757 6.22607C0.449904 6.20022 0.419213 6.17972 0.385435 6.16573C0.351658 6.15173 0.315455 6.14453 0.278894 6.14453C0.242333 6.14453 0.206131 6.15173 0.172353 6.16573C0.138575 6.17972 0.107884 6.20022 0.0820315 6.22607C0.0561791 6.25192 0.0356719 6.28262 0.0216807 6.3164C0.00768946 6.35017 0.000488281 6.38638 0.000488281 6.42294V13.6073C0.000890241 13.9765 0.147732 14.3305 0.408796 14.5916C0.66986 14.8526 1.02382 14.9995 1.39302 14.9999H10.916C10.9899 14.9999 11.0607 14.9705 11.1129 14.9183C11.1651 14.8661 11.1944 14.7953 11.1944 14.7215C11.1944 14.6476 11.1651 14.5768 11.1129 14.5246C11.0607 14.4724 10.9899 14.443 10.916 14.443Z" fill="white"/>
</svg>
