<svg width="56" height="50" viewBox="0 0 56 50" fill="none" xmlns="http://www.w3.org/2000/svg">
<path d="M54.3616 13.3356H49.4389V1.6646C49.4389 1.22312 49.2663 0.799722 48.9591 0.487549C48.6518 0.175377 48.2351 0 47.8006 0H1.63835C1.20383 0 0.787113 0.175377 0.479862 0.487549C0.172612 0.799722 0 1.22312 0 1.6646L0 31.6728C0 32.1143 0.172612 32.5377 0.479862 32.8499C0.787113 33.162 1.20383 33.3374 1.63835 33.3374H23.0789V40.0058H14.8752C14.4406 40.0058 14.0239 40.1811 13.7167 40.4933C13.4094 40.8055 13.2368 41.2289 13.2368 41.6704C13.2368 42.1118 13.4094 42.5352 13.7167 42.8474C14.0239 43.1596 14.4406 43.335 14.8752 43.335H33.0325V48.3354C33.0325 48.7769 33.2051 49.2003 33.5123 49.5125C33.8196 49.8246 34.2363 50 34.6708 50H54.3616C54.7962 50 55.2129 49.8246 55.5201 49.5125C55.8274 49.2003 56 48.7769 56 48.3354V15.0024C56.0003 14.7837 55.9581 14.567 55.8759 14.3647C55.7937 14.1625 55.6731 13.9788 55.5209 13.824C55.3687 13.6692 55.188 13.5463 54.9891 13.4625C54.7902 13.3788 54.577 13.3356 54.3616 13.3356ZM3.27671 3.32919H46.1579V13.3312H34.673C34.2385 13.3312 33.8218 13.5066 33.5145 13.8187C33.2073 14.1309 33.0347 14.5543 33.0347 14.9958V30.0049H3.27671V3.32919ZM26.3491 40.0069V33.3396H33.0325V40.008L26.3491 40.0069ZM52.72 46.6752H36.3135V16.6693H52.72V46.6752Z" fill="#FF4815"/>
<path d="M46.1578 20.0039H42.8811C42.4466 20.0039 42.0298 20.1793 41.7226 20.4915C41.4153 20.8036 41.2427 21.227 41.2427 21.6685C41.2427 22.11 41.4153 22.5334 41.7226 22.8455C42.0298 23.1577 42.4466 23.3331 42.8811 23.3331H46.1578C46.5923 23.3331 47.009 23.1577 47.3163 22.8455C47.6235 22.5334 47.7961 22.11 47.7961 21.6685C47.7961 21.227 47.6235 20.8036 47.3163 20.4915C47.009 20.1793 46.5923 20.0039 46.1578 20.0039Z" fill="#FF4815"/>
<path d="M46.1578 40.0068H42.8811C42.4466 40.0068 42.0298 40.1822 41.7226 40.4944C41.4153 40.8065 41.2427 41.23 41.2427 41.6714C41.2427 42.1129 41.4153 42.5363 41.7226 42.8485C42.0298 43.1607 42.4466 43.336 42.8811 43.336H46.1578C46.5923 43.336 47.009 43.1607 47.3163 42.8485C47.6235 42.5363 47.7961 42.1129 47.7961 41.6714C47.7961 41.23 47.6235 40.8065 47.3163 40.4944C47.009 40.1822 46.5923 40.0068 46.1578 40.0068Z" fill="#FF4815"/>
</svg>
