<svg width="51" height="50" viewBox="0 0 51 50" fill="none" xmlns="http://www.w3.org/2000/svg">
<g filter="url(#filter0_d_2_941)">
<path d="M36.1946 39.4689H14.8937C12.441 39.4689 10.4521 37.5271 10.4521 35.1325V14.3364C10.4521 11.9417 12.441 10 14.8937 10H36.1946C38.6473 10 40.6362 11.9417 40.6362 14.3364V35.1325C40.6362 37.5271 38.6473 39.4689 36.1946 39.4689Z" fill="white"/>
</g>
<path d="M25.5442 33.7125C23.6718 33.7125 21.8764 33.168 20.3401 32.1357L16.616 33.5659L17.9268 29.7612C16.8939 28.2724 16.3493 26.5397 16.3493 24.7337C16.3493 22.3354 17.3052 20.0801 19.0424 18.3841C20.7796 16.688 23.0896 15.7548 25.5461 15.7548C28.0026 15.7548 30.3126 16.688 32.0498 18.3841C33.787 20.0801 34.7429 22.3354 34.7429 24.7337C34.7429 27.1319 33.787 29.3872 32.0498 31.0832C30.3107 32.7774 28.0007 33.7125 25.5442 33.7125ZM20.4547 31.2318L20.6369 31.3601C22.0736 32.3759 23.7694 32.9131 25.5442 32.9131C30.1642 32.9131 33.9222 29.2442 33.9222 24.7337C33.9222 20.2231 30.1642 16.5542 25.5442 16.5542C20.9242 16.5542 17.1662 20.2231 17.1662 24.7337C17.1662 26.4407 17.7015 28.0762 18.7137 29.466L18.8339 29.6329L17.9512 32.1925L20.4547 31.2318Z" fill="#FF4815"/>
<path d="M30.7241 26.9968C30.8048 27.0812 30.8405 27.1949 30.8218 27.3085C30.7166 27.9723 30.1212 30.4072 27.1239 29.3713C23.6683 28.1776 21.1704 26.0801 20.3704 23.2821C19.5703 20.4841 21.8766 19.7433 22.3611 19.9083C22.8457 20.0734 24.0476 22.1508 23.8786 22.6037C23.7096 23.0565 22.8983 23.4874 22.9245 23.966C22.9471 24.3712 26.0064 27.3452 26.876 27.1087C27.4732 26.9455 27.5352 26.0434 28.1249 25.9407C28.6639 25.8472 30.2039 26.4596 30.7241 26.9968Z" fill="#FF4815"/>
<defs>
<filter id="filter0_d_2_941" x="0.452148" y="0" width="50.184" height="49.4689" filterUnits="userSpaceOnUse" color-interpolation-filters="sRGB">
<feFlood flood-opacity="0" result="BackgroundImageFix"/>
<feColorMatrix in="SourceAlpha" type="matrix" values="0 0 0 0 0 0 0 0 0 0 0 0 0 0 0 0 0 0 127 0" result="hardAlpha"/>
<feOffset/>
<feGaussianBlur stdDeviation="5"/>
<feColorMatrix type="matrix" values="0 0 0 0 0 0 0 0 0 0 0 0 0 0 0 0 0 0 0.2 0"/>
<feBlend mode="normal" in2="BackgroundImageFix" result="effect1_dropShadow_2_941"/>
<feBlend mode="normal" in="SourceGraphic" in2="effect1_dropShadow_2_941" result="shape"/>
</filter>
</defs>
</svg>
