<svg width="19" height="19" viewBox="0 0 19 19" fill="none" xmlns="http://www.w3.org/2000/svg">
<path d="M9.5442 18.7125C7.67179 18.7125 5.87637 18.168 4.34013 17.1357L0.615957 18.5659L1.92683 14.7612C0.893908 13.2724 0.349274 11.5397 0.349274 9.73365C0.349274 7.33537 1.3052 5.0801 3.0424 3.38407C4.77959 1.68804 7.08959 0.754761 9.54608 0.754761C12.0026 0.754761 14.3126 1.68804 16.0498 3.38407C17.787 5.0801 18.7429 7.33537 18.7429 9.73365C18.7429 12.1319 17.787 14.3872 16.0498 16.0832C14.3107 17.7774 12.0007 18.7125 9.5442 18.7125ZM4.45469 16.2318L4.63686 16.3601C6.07357 17.3759 7.76945 17.9131 9.5442 17.9131C14.1642 17.9131 17.9222 14.2442 17.9222 9.73365C17.9222 5.22312 14.1642 1.55419 9.5442 1.55419C4.9242 1.55419 1.16623 5.22312 1.16623 9.73365C1.16623 11.4407 1.70147 13.0762 2.71374 14.466L2.83393 14.6329L1.95125 17.1925L4.45469 16.2318Z" fill="#FF4815"/>
<path d="M14.7241 11.9968C14.8048 12.0812 14.8405 12.1949 14.8218 12.3085C14.7166 12.9723 14.1212 15.4072 11.1239 14.3713C7.66825 13.1776 5.17045 11.0801 4.3704 8.28208C3.57035 5.48408 5.87659 4.74332 6.36113 4.90834C6.84567 5.07336 8.04762 7.15077 7.87859 7.60366C7.70957 8.05655 6.89825 8.48743 6.92455 8.96599C6.94708 9.3712 10.0064 12.3452 10.876 12.1087C11.4732 11.9455 11.5352 11.0434 12.1249 10.9407C12.6639 10.8472 14.2039 11.4596 14.7241 11.9968Z" fill="#FF4815"/>
</svg>
